<svg width="16" height="17" viewBox="0 0 16 17" fill="none" xmlns="http://www.w3.org/2000/svg">
<path fill-rule="evenodd" clip-rule="evenodd" d="M8.00016 15.3319C11.6821 15.3319 14.6668 12.3472 14.6668 8.66526C14.6668 4.98336 11.6821 1.9986 8.00016 1.9986C4.31826 1.9986 1.3335 4.98336 1.3335 8.66526C1.3335 12.3472 4.31826 15.3319 8.00016 15.3319ZM8.00016 5.66526C8.36835 5.66526 8.66683 5.96374 8.66683 6.33193L8.66683 8.9986C8.66683 9.36679 8.36835 9.66526 8.00016 9.66526C7.63197 9.66526 7.3335 9.36679 7.3335 8.9986L7.3335 6.33193C7.3335 5.96374 7.63197 5.66526 8.00016 5.66526ZM8.00016 11.6653C8.36835 11.6653 8.66683 11.3668 8.66683 10.9986C8.66683 10.6304 8.36835 10.3319 8.00016 10.3319C7.63197 10.3319 7.3335 10.6304 7.3335 10.9986C7.3335 11.3668 7.63197 11.6653 8.00016 11.6653Z" fill="black"/>
</svg>
