<svg width="128" height="128" viewBox="0 0 128 128" fill="none" xmlns="http://www.w3.org/2000/svg">
<path fill-rule="evenodd" clip-rule="evenodd" d="M26.2876 26.2876C30.1072 22.468 36.3 22.468 40.1196 26.2876L64.3109 50.4789L88.5022 26.2876C92.1501 22.6398 98.0645 22.6398 101.712 26.2877C105.36 29.9355 105.36 35.8499 101.712 39.4978L77.5211 63.6891L101.712 87.8803C105.532 91.6999 105.532 97.8927 101.712 101.712C97.8927 105.532 91.6999 105.532 87.8802 101.712L63.689 77.5212L39.4978 101.712C35.8499 105.36 29.9355 105.36 26.2877 101.712C22.6398 98.0645 22.6398 92.1501 26.2877 88.5022L50.4789 64.311L26.2876 40.1197C22.4679 36.3001 22.4679 30.1072 26.2876 26.2876Z" fill="black"/>
</svg>
