<svg width="16" height="16" viewBox="0 0 16 16" fill="none" xmlns="http://www.w3.org/2000/svg">
<path d="M7.66667 3.33333V6.33333C7.66667 6.36667 7.66667 6.4 7.66 6.44C7.63334 6.76 7.49333 7.05333 7.28 7.27333C7.04 7.51333 6.70667 7.66667 6.33333 7.66667H3.33333C2.6 7.66667 2 7.06667 2 6.33333V3.33333C2 2.6 2.6 2 3.33333 2H6.33333C7.06667 2 7.66667 2.6 7.66667 3.33333Z" fill="black"/>
<path d="M6.33333 14H3.33333C2.6 14 2 13.4 2 12.6667V9.66667C2 8.93333 2.6 8.33333 3.33333 8.33333H6.33333C7.06667 8.33333 7.66667 8.93333 7.66667 9.66667V12.6667C7.66667 13.4 7.06667 14 6.33333 14Z" fill="black"/>
<path d="M14.0002 9.66667V12.6667C14.0002 13.4 13.4002 14 12.6668 14H9.66683C8.9335 14 8.3335 13.4 8.3335 12.6667V9.66667C8.3335 9.3 8.48016 8.96667 8.72016 8.72C8.94016 8.50667 9.23349 8.36 9.56016 8.34C9.60016 8.33333 9.6335 8.33333 9.66683 8.33333H12.6668C13.4002 8.33333 14.0002 8.93333 14.0002 9.66667Z" fill="black"/>
<path d="M8.3335 6.33333V5.27604L11.6095 2H12.6668C12.8619 2 13.0475 2.04244 13.2149 2.11854L8.45203 6.88136C8.37594 6.71397 8.3335 6.52837 8.3335 6.33333Z" fill="black"/>
<path d="M9.66683 7.66667C9.37017 7.66667 9.09533 7.56848 8.87321 7.403L13.7365 2.53971C13.902 2.76184 14.0002 3.03668 14.0002 3.33333V3.9999L10.3334 7.66667H9.66683Z" fill="black"/>
<path d="M12.6668 7.66667H11.2762L14.0002 4.94271V6.33333C14.0002 7.06667 13.4002 7.66667 12.6668 7.66667Z" fill="black"/>
<path d="M10.6667 2H9.66683C9.6335 2 9.60016 2 9.56016 2.00667C9.23349 2.02667 8.94016 2.17333 8.72016 2.38667C8.48016 2.63333 8.3335 2.96667 8.3335 3.33333V4.33323L10.6667 2Z" fill="black"/>
</svg>
