<svg width="24" height="24" viewBox="0 0 24 24" fill="none" xmlns="http://www.w3.org/2000/svg">
<path d="M5.0002 7.28257C4.0542 8.22757 2.8262 8.70457 1.5882 8.72857C0.890203 8.74157 0.476203 9.49757 0.861203 10.0796C1.2732 10.7026 1.8452 11.2516 2.6022 11.6656C4.2372 12.5596 6.3002 12.4766 7.8282 11.4096C10.4642 9.56857 10.6992 5.91257 8.5342 3.74757C8.3072 3.52057 8.0642 3.32357 7.8082 3.15257C7.2212 2.76157 6.4582 3.16557 6.4452 3.87057C6.4232 5.10757 5.9462 6.33557 5.0002 7.28257Z" fill="#E2B00A"/>
<path d="M19.483 9.46959C18.345 6.43859 15.429 4.27759 12 4.27759C7.888 4.27759 4.504 7.38159 4.055 11.3726C1.746 11.8156 0 13.8396 0 16.2776C0 19.0386 2.239 21.2776 5 21.2776H18C21.314 21.2776 24 18.5916 24 15.2776C24 12.4766 22.078 10.1316 19.483 9.46959Z" fill="#F5F9FF"/>
</svg>
