<svg width="48" height="48" viewBox="0 0 48 48" fill="none" xmlns="http://www.w3.org/2000/svg">
<path fill-rule="evenodd" clip-rule="evenodd" d="M22.364 32.3107L14.5858 24.5326C13.8047 23.7515 13.8047 22.4852 14.5858 21.7041L20.6523 15.6376C21.0241 15.2658 21.5274 15.0554 22.0533 15.0519L29.8833 15C30.9982 14.9927 31.9039 15.8983 31.8965 17.0132L31.8446 24.8433C31.8411 25.3691 31.6307 25.8724 31.2589 26.2442L25.1924 32.3107C24.4113 33.0918 23.145 33.0918 22.364 32.3107ZM26.032 20.8643C26.4225 21.2549 27.0557 21.2549 27.4462 20.8643C27.8367 20.4738 27.8367 19.8407 27.4462 19.4501C27.0557 19.0596 26.4225 19.0596 26.032 19.4501C25.6415 19.8407 25.6415 20.4738 26.032 20.8643Z" fill="black"/>
</svg>
