<svg width="48" height="54" viewBox="0 0 48 54" fill="none" xmlns="http://www.w3.org/2000/svg">
<path fill-rule="evenodd" clip-rule="evenodd" d="M17 18H31C32.11 18 33 18.9 33 20V34C33 35.1 32.11 36 31 36H17C15.89 36 15 35.1 15 34V20C15 18.9 15.89 18 17 18ZM21.5 31.5C21.7761 31.7762 22.2239 31.7762 22.5 31.5L30.295 23.705C30.6848 23.3153 30.6859 22.6837 30.2975 22.2925C29.9072 21.8994 29.2717 21.8983 28.88 22.29L22.2241 28.946C22.1003 29.0698 21.8996 29.0699 21.7756 28.9463L19.1155 26.2935C18.7257 25.9048 18.0947 25.9053 17.7055 26.2945C17.3159 26.6842 17.3159 27.3159 17.7055 27.7055L21.5 31.5Z" fill="#00A3C7"/>
</svg>
