<svg width="24" height="24" viewBox="0 0 24 24" fill="none" xmlns="http://www.w3.org/2000/svg">
<path d="M19.5202 3.00696C19.3953 2.99554 19.2691 2.99797 19.1419 3.01576C17.0812 3.30486 12.6539 3.94185 8.11786 9.30549H6.2424C5.92983 9.30549 5.63084 9.43392 5.41375 9.65912L3.343 11.8143C3.00791 12.1494 2.9077 12.6494 3.08966 13.0881C3.27071 13.5268 3.69518 13.8095 4.16989 13.8095H6.3849C6.08649 14.1465 5.92974 14.5051 5.7621 14.9126C5.57649 15.3638 5.41297 15.8613 5.273 16.3324C4.99306 17.2746 4.80677 18.1182 4.80677 18.1182C4.77387 18.2661 4.77883 18.42 4.8212 18.5655C4.86356 18.7111 4.94197 18.8436 5.04915 18.9507C5.15633 19.0579 5.28882 19.1363 5.43436 19.1787C5.5799 19.2211 5.73377 19.226 5.88173 19.1931C5.88173 19.1931 6.72531 19.0068 7.66747 18.7269C8.13855 18.5869 8.63608 18.4234 9.08726 18.2378C9.49476 18.0702 9.85329 17.9134 10.1904 17.615V19.83C10.1904 20.3047 10.473 20.7301 10.9117 20.9103C11.0603 20.9724 11.2151 21 11.3674 21C11.6655 21 11.9538 20.8895 12.1556 20.6868L14.3178 18.7163C14.5574 18.4983 14.6943 18.19 14.6943 17.8666V15.882C20.0556 11.3464 20.6941 6.91846 20.9839 4.85781C21.0551 4.34616 20.8878 3.84329 20.523 3.47847C20.2487 3.20418 19.8946 3.0412 19.5202 3.00696ZM16.0455 6.6031C16.7913 6.6031 17.3966 7.20844 17.3966 7.9543C17.3966 8.70016 16.7913 9.30549 16.0455 9.30549C15.2996 9.30549 14.6943 8.70016 14.6943 7.9543C14.6943 7.20844 15.2996 6.6031 16.0455 6.6031ZM8.06508 14.661L9.33884 15.9348L9.02568 16.248C9.042 16.2316 8.7614 16.4235 8.40111 16.5717C8.04083 16.7199 7.58873 16.8699 7.15374 16.9992C7.04507 17.0315 7.05099 17.0242 6.94614 17.0537C6.97567 16.9489 6.96839 16.9548 7.00067 16.8461C7.12992 16.4111 7.27998 15.959 7.42819 15.5987C7.57641 15.2385 7.76824 14.9578 7.75191 14.9742L8.06508 14.661Z" fill="black"/>
</svg>
