<svg width="16" height="16" viewBox="0 0 16 16" fill="none" xmlns="http://www.w3.org/2000/svg">
<path fill-rule="evenodd" clip-rule="evenodd" d="M12.722 2.51865C13.1225 2.28274 13.6352 2.26339 14.0665 2.51241C14.3853 2.69651 14.7931 2.58726 14.9772 2.26839C15.1613 1.94953 15.052 1.54181 14.7331 1.35771C13.6571 0.73644 12.328 0.950382 11.4965 1.7984L11.4237 1.75633C10.7859 1.38814 9.97048 1.60664 9.60229 2.24436L9.26896 2.82171C9.21249 2.91952 9.16982 3.02151 9.14035 3.12542C6.69783 2.653 4.11862 3.7424 2.80485 6.01791C1.148 8.88767 2.13125 12.5572 5.001 14.2141C7.87076 15.8709 11.5403 14.8877 13.1972 12.0179C14.5109 9.74239 14.1648 6.96402 12.5344 5.08494C12.6096 5.00746 12.6766 4.91952 12.7331 4.82171L13.0664 4.24436C13.4054 3.65718 13.247 2.91932 12.722 2.51865ZM6.97526 6.69105C7.34345 6.69105 7.64193 7.03928 7.64193 7.46883V10.8022C7.64193 11.2317 7.34345 11.5799 6.97526 11.5799C6.60707 11.5799 6.30859 11.2317 6.30859 10.8022V7.46883C6.30859 7.03928 6.60707 6.69105 6.97526 6.69105ZM4.97526 8.02435C5.34345 8.02435 5.64193 8.37257 5.64193 8.80212V9.5799C5.64193 10.0095 5.34345 10.3577 4.97526 10.3577C4.60707 10.3577 4.30859 10.0095 4.30859 9.5799L4.30859 8.80212C4.30859 8.37257 4.60707 8.02435 4.97526 8.02435ZM10.9753 7.35771C11.3435 7.35771 11.6419 7.70593 11.6419 8.13548V10.3577C11.6419 10.7873 11.3435 11.1355 10.9753 11.1355C10.6071 11.1355 10.3086 10.7873 10.3086 10.3577L10.3086 8.13548C10.3086 7.70593 10.6071 7.35771 10.9753 7.35771ZM8.97526 5.35772C9.34345 5.35772 9.64193 5.70594 9.64193 6.1355L9.64193 12.1357C9.64193 12.5652 9.34345 12.9134 8.97526 12.9134C8.60707 12.9134 8.30859 12.5652 8.30859 12.1357L8.30859 6.1355C8.30859 5.70594 8.60707 5.35772 8.97526 5.35772Z" fill="black"/>
</svg>
