<svg width="16" height="16" viewBox="0 0 16 16" fill="none" xmlns="http://www.w3.org/2000/svg">
<path d="M10.0949 2.50594C10.1761 2.20283 10.0349 1.88411 9.7559 1.74057C9.47685 1.59702 9.13547 1.66751 8.93611 1.90984L3.81835 8.13057C3.67434 8.30561 3.62914 8.54183 3.69835 8.75767C3.76756 8.97351 3.94169 9.1394 4.16063 9.19807L6.73644 9.88825L5.70116 13.752C5.61994 14.0551 5.7611 14.3738 6.04015 14.5173C6.3192 14.6609 6.66057 14.5904 6.85994 14.3481L11.9777 8.12733C12.1217 7.95228 12.1669 7.71607 12.0977 7.50022C12.0285 7.28438 11.8544 7.11849 11.6354 7.05983L9.05961 6.36964L10.0949 2.50594Z" fill="black"/>
</svg>
