<svg width="16" height="17" viewBox="0 0 16 17" fill="none" xmlns="http://www.w3.org/2000/svg">
<path fill-rule="evenodd" clip-rule="evenodd" d="M9.12533 3.313C8.61586 2.44938 7.38446 2.44938 6.875 3.313L1.52226 12.3867C0.997992 13.2754 1.62788 14.4057 2.64742 14.4057H13.3529C14.3724 14.4057 15.0023 13.2754 14.4781 12.3867L9.12533 3.313ZM8.00026 6.40562C8.36253 6.40562 8.65621 6.7041 8.65621 7.07229V9.73895C8.65621 10.1071 8.36253 10.4056 8.00026 10.4056C7.63799 10.4056 7.34431 10.1071 7.34431 9.73895V7.07229C7.34431 6.7041 7.63799 6.40562 8.00026 6.40562ZM8.00011 12.4056C8.36238 12.4056 8.65605 12.1071 8.65605 11.7389C8.65605 11.3707 8.36238 11.0723 8.00011 11.0723C7.63784 11.0723 7.34416 11.3707 7.34416 11.7389C7.34416 12.1071 7.63784 12.4056 8.00011 12.4056Z" fill="black"/>
</svg>
