<svg width="16" height="16" viewBox="0 0 16 16" fill="none" xmlns="http://www.w3.org/2000/svg">
<path fill-rule="evenodd" clip-rule="evenodd" d="M12.6667 14H3.33333C2.6 14 2 13.4 2 12.6667V3.33333C2 2.6 2.6 2 3.33333 2H12.6667C13.4 2 14 2.6 14 3.33333V12.6667C14 13.4 13.4 14 12.6667 14ZM12.2002 9.39991C12.4579 9.14217 12.4579 8.72431 12.2002 8.46657C11.9424 8.20884 11.5246 8.20884 11.2668 8.46657L10.3334 9.39999L9.40007 8.46664C9.14234 8.20891 8.72447 8.20891 8.46674 8.46664C8.209 8.72438 8.209 9.14224 8.46674 9.39998L9.40008 10.3333L8.46684 11.2666C8.2091 11.5243 8.2091 11.9422 8.46684 12.1999C8.72457 12.4576 9.14244 12.4576 9.40017 12.1999L10.3334 11.2667L11.2667 12.2C11.5245 12.4577 11.9423 12.4577 12.2001 12.2C12.4578 11.9422 12.4578 11.5244 12.2001 11.2666L11.2667 10.3333L12.2002 9.39991ZM5.97322 8.61306C5.60873 8.61306 5.31325 8.31758 5.31325 7.95309V6.63308H3.9933C3.62881 6.63308 3.33333 6.3376 3.33333 5.97311C3.33333 5.60862 3.62881 5.31315 3.9933 5.31315H5.31326V3.9933C5.31326 3.62881 5.60873 3.33333 5.97322 3.33333C6.33771 3.33333 6.63319 3.62881 6.63319 3.9933V5.31315L7.95309 5.31315C8.31758 5.31315 8.61306 5.60862 8.61306 5.97311C8.61306 6.3376 8.31758 6.63308 7.95309 6.63308L6.63319 6.63308V7.95309C6.63319 8.31758 6.33771 8.61306 5.97322 8.61306Z" fill="black"/>
</svg>
