<svg width="61" height="50" viewBox="0 0 61 50" fill="none" xmlns="http://www.w3.org/2000/svg">
<g opacity="0.7">
<ellipse cx="45.099" cy="35" rx="7.97844" ry="8" fill="#8DA4BB"/>
<g filter="url(#filter0_d_81_4247)">
<path fill-rule="evenodd" clip-rule="evenodd" d="M46.712 35.2567C47.6531 34.6547 48.145 33.8915 48.145 32.8057C48.145 31.1502 46.8831 30 44.969 30C43.4291 30 42.3919 30.7095 41.9534 31.8275C41.7289 32.3972 42.1994 33.0207 42.8196 33.0207C43.2046 33.0207 43.5147 32.752 43.6751 32.3972C43.889 31.9457 44.2953 31.677 44.8514 31.677C45.6106 31.677 46.1239 32.1823 46.1239 32.8702C46.1239 33.5582 45.8566 33.913 45.0011 34.4612C44.83 34.5795 44.6589 34.6977 44.5092 34.8375C44.2525 35.074 44.0494 35.3535 43.921 35.6867C43.8676 35.8587 43.8355 36.0307 43.8141 36.2135C43.8141 36.2606 43.809 36.3102 43.8038 36.3612C43.7984 36.4149 43.7927 36.4701 43.7927 36.5252C43.8034 36.6327 43.8462 36.7402 43.8997 36.837C44.028 37.0842 44.2953 37.2562 44.5947 37.2562H44.8193C45.0973 37.2562 45.354 37.1057 45.4823 36.88C45.5688 36.7785 45.5921 36.6428 45.6145 36.5125C45.6254 36.4495 45.636 36.3878 45.6534 36.3317C45.6962 36.2135 45.7496 36.106 45.8138 36.0092C46.0383 35.6867 46.3912 35.461 46.712 35.2567ZM44.7835 40.2125C45.3741 40.2125 45.8529 39.7312 45.8529 39.1375C45.8529 38.5438 45.3741 38.0625 44.7835 38.0625C44.1929 38.0625 43.7142 38.5438 43.7142 39.1375C43.7142 39.7312 44.1929 40.2125 44.7835 40.2125Z" fill="white"/>
</g>
<g opacity="0.84">
<path fill-rule="evenodd" clip-rule="evenodd" d="M11.1556 18.5311C10.3609 17.7343 10.3609 16.4423 11.1556 15.6454C20.6926 6.08315 36.155 6.08315 45.6919 15.6454C46.4866 16.4423 46.4866 17.7343 45.6919 18.5311C44.8971 19.328 43.6086 19.328 42.8139 18.5311C34.8664 10.5625 21.9811 10.5625 14.0336 18.5311C13.2389 19.328 11.9504 19.328 11.1556 18.5311Z" fill="#ACC4DD"/>
<path fill-rule="evenodd" clip-rule="evenodd" d="M16.432 23.8215C15.6373 23.0246 15.6373 21.7327 16.432 20.9358C23.0549 14.2953 33.7926 14.2953 40.4155 20.9358C41.2103 21.7327 41.2103 23.0246 40.4155 23.8215C39.6208 24.6183 38.3322 24.6183 37.5375 23.8215C32.5041 18.7747 24.3434 18.7747 19.31 23.8215C18.5153 24.6183 17.2267 24.6183 16.432 23.8215Z" fill="#ACC4DD"/>
<path fill-rule="evenodd" clip-rule="evenodd" d="M21.7078 29.1119C20.9131 28.3151 20.9131 27.0231 21.7078 26.2263C25.4165 22.5076 31.4294 22.5076 35.138 26.2263C35.9328 27.0231 35.9328 28.3151 35.138 29.1119C34.3433 29.9088 33.0549 29.9088 32.2601 29.1119C30.1409 26.987 26.705 26.987 24.5857 29.1119C23.791 29.9088 22.5026 29.9088 21.7078 29.1119Z" fill="#ACC4DD"/>
<path d="M30.4591 32.9595C30.4591 34.0864 29.548 35 28.4241 35C27.3003 35 26.3892 34.0864 26.3892 32.9595C26.3892 31.8326 27.3003 30.919 28.4241 30.919C29.548 30.919 30.4591 31.8326 30.4591 32.9595Z" fill="#6F7F95"/>
</g>
</g>
<defs>
<filter id="filter0_d_81_4247" x="40.8965" y="30" width="8.24854" height="12.2125" filterUnits="userSpaceOnUse" color-interpolation-filters="sRGB">
<feFlood flood-opacity="0" result="BackgroundImageFix"/>
<feColorMatrix in="SourceAlpha" type="matrix" values="0 0 0 0 0 0 0 0 0 0 0 0 0 0 0 0 0 0 127 0" result="hardAlpha"/>
<feOffset dy="1"/>
<feGaussianBlur stdDeviation="0.5"/>
<feColorMatrix type="matrix" values="0 0 0 0 0.696007 0 0 0 0 0.758281 0 0 0 0 0.879167 0 0 0 0.25 0"/>
<feBlend mode="normal" in2="BackgroundImageFix" result="effect1_dropShadow_81_4247"/>
<feBlend mode="normal" in="SourceGraphic" in2="effect1_dropShadow_81_4247" result="shape"/>
</filter>
</defs>
</svg>
