<svg width="16" height="16" viewBox="0 0 16 16" fill="none" xmlns="http://www.w3.org/2000/svg">
<path fill-rule="evenodd" clip-rule="evenodd" d="M12.6665 5.99999H5.99984L5.99984 12.6667H12.6665V5.99999ZM5.99984 4.66666C5.26346 4.66666 4.6665 5.26361 4.6665 5.99999V12.6667C4.6665 13.403 5.26346 14 5.99984 14H12.6665C13.4029 14 13.9998 13.403 13.9998 12.6667V5.99999C13.9998 5.26361 13.4029 4.66666 12.6665 4.66666H5.99984Z" fill="black"/>
<path fill-rule="evenodd" clip-rule="evenodd" d="M2 4C2 2.89543 2.89543 2 4 2H10.6667C11.0349 2 11.3333 2.29848 11.3333 2.66667C11.3333 3.03486 11.0349 3.33333 10.6667 3.33333H4C3.63181 3.33333 3.33333 3.63181 3.33333 4V10.6667C3.33333 11.0349 3.03486 11.3333 2.66667 11.3333C2.29848 11.3333 2 11.0349 2 10.6667V4Z" fill="black"/>
</svg>
