<svg width="16" height="16" viewBox="0 0 16 16" fill="none" xmlns="http://www.w3.org/2000/svg">
<path fill-rule="evenodd" clip-rule="evenodd" d="M7.99984 2.66666C5.05432 2.66666 2.66651 5.05447 2.66651 7.99999C2.66651 10.9455 5.05432 13.3333 7.99984 13.3333C10.9454 13.3333 13.3332 10.9455 13.3332 7.99999C13.3332 5.05447 10.9454 2.66666 7.99984 2.66666ZM1.33317 7.99999C1.33317 4.31809 4.31794 1.33332 7.99984 1.33332C11.6817 1.33332 14.6665 4.31809 14.6665 7.99999C14.6665 11.6819 11.6817 14.6667 7.99984 14.6667C4.31794 14.6667 1.33317 11.6819 1.33317 7.99999Z" fill="black"/>
<path fill-rule="evenodd" clip-rule="evenodd" d="M7.99967 10.9999C7.63148 10.9999 7.33301 10.7014 7.33301 10.3332L7.33301 7.66657C7.33301 7.29839 7.63148 6.99991 7.99967 6.99991C8.36786 6.99991 8.66634 7.29839 8.66634 7.66657L8.66634 10.3332C8.66634 10.7014 8.36786 10.9999 7.99967 10.9999Z" fill="black"/>
<path d="M7.33317 5.66659C7.33317 5.2984 7.63165 4.99992 7.99984 4.99992C8.36803 4.99992 8.6665 5.2984 8.6665 5.66659C8.6665 6.03478 8.36803 6.33325 7.99984 6.33325C7.63165 6.33325 7.33317 6.03477 7.33317 5.66659Z" fill="black"/>
</svg>
