<svg width="128" height="128" viewBox="0 0 128 128" fill="none" xmlns="http://www.w3.org/2000/svg">
<path d="M111.353 28.097L111.88 28.6232C115.72 32.4587 115.79 38.64 112.087 42.561L111.88 42.7742L60.5838 94.0058C59.0483 95.5393 57.0988 96.5079 54.9982 96.8206C51.7684 97.5095 48.4277 96.609 46.0142 94.3407L45.7845 94.1181L19.2204 67.5874C15.3901 63.7523 15.3154 57.566 19.0369 53.6426L19.2356 53.4388L19.7562 52.919C23.5879 49.0922 29.7674 49.0136 33.6919 52.7271L33.8958 52.9253L53.127 72.1334L97.2198 28.097C101.124 24.1977 107.449 24.1977 111.353 28.097Z" fill="black"/>
</svg>
