<svg width="48" height="48" viewBox="0 0 48 48" fill="none" xmlns="http://www.w3.org/2000/svg">
<path fill-rule="evenodd" clip-rule="evenodd" d="M21.85 2.386C22.232 1.542 23.074 1 24 1C24.926 1 25.768 1.542 26.15 2.386L28.484 7.542C28.814 8.272 29.41 8.848 30.15 9.154C30.89 9.46 31.718 9.474 32.468 9.192L37.764 7.198C38.632 6.872 39.61 7.082 40.264 7.738C40.92 8.394 41.13 9.372 40.804 10.238L38.81 15.534C38.528 16.284 38.542 17.112 38.848 17.852C39.154 18.592 39.73 19.186 40.46 19.518L45.616 21.852C46.458 22.232 47 23.074 47 24C47 24.926 46.458 25.768 45.614 26.15L40.458 28.484C39.728 28.814 39.152 29.41 38.846 30.15C38.54 30.89 38.526 31.718 38.808 32.468L40.802 37.764C41.128 38.632 40.918 39.61 40.262 40.264C39.606 40.92 38.628 41.13 37.762 40.804L32.466 38.81C31.716 38.528 30.888 38.542 30.148 38.848C29.408 39.154 28.814 39.73 28.482 40.46L26.148 45.616C25.768 46.458 24.926 47 24 47C23.074 47 22.232 46.458 21.85 45.614L19.516 40.458C19.186 39.728 18.59 39.152 17.85 38.846C17.11 38.54 16.282 38.526 15.532 38.808L10.236 40.802C9.368 41.128 8.39 40.918 7.736 40.262C7.082 39.606 6.87 38.628 7.196 37.762L9.19 32.466C9.472 31.716 9.458 30.888 9.152 30.148C8.846 29.408 8.27 28.814 7.54 28.482L2.384 26.148C1.542 25.768 1 24.926 1 24C1 23.074 1.542 22.232 2.386 21.85L7.542 19.516C8.272 19.186 8.848 18.59 9.154 17.85C9.46 17.11 9.474 16.282 9.192 15.532L7.196 10.236C6.87 9.368 7.08 8.39 7.736 7.736C8.392 7.08 9.37 6.87 10.236 7.196L15.532 9.19C16.282 9.474 17.11 9.46 17.85 9.154C18.59 8.848 19.184 8.272 19.516 7.542L21.85 2.386Z" fill="#E2B00A"/>
<path opacity="0.7" d="M37 24C37 31.1786 31.1786 37 24 37C16.8214 37 11 31.1786 11 24C11 16.8214 16.8214 11 24 11C31.1786 11 37 16.824 37 24Z" fill="#F5F9FF"/>
</svg>
