<svg width="16" height="16" viewBox="0 0 16 16" fill="none" xmlns="http://www.w3.org/2000/svg">
<path fill-rule="evenodd" clip-rule="evenodd" d="M2 4.66664C2 4.29845 2.29848 3.99997 2.66667 3.99997H13.3333C13.7015 3.99997 14 4.29845 14 4.66664C14 5.03483 13.7015 5.3333 13.3333 5.3333H2.66667C2.29848 5.3333 2 5.03483 2 4.66664Z" fill="black"/>
<path fill-rule="evenodd" clip-rule="evenodd" d="M6 1.99998C6 1.63179 6.29848 1.33331 6.66667 1.33331H9.33333C9.70152 1.33331 10 1.63179 10 1.99998C10 2.36817 9.70152 2.66665 9.33333 2.66665H6.66667C6.29848 2.66665 6 2.36817 6 1.99998Z" fill="black"/>
<path fill-rule="evenodd" clip-rule="evenodd" d="M6.66683 6.99997C7.03502 6.99997 7.3335 7.29845 7.3335 7.66664L7.3335 11C7.3335 11.3682 7.03502 11.6666 6.66683 11.6666C6.29864 11.6666 6.00016 11.3682 6.00016 11L6.00016 7.66664C6.00016 7.29845 6.29864 6.99997 6.66683 6.99997Z" fill="black"/>
<path fill-rule="evenodd" clip-rule="evenodd" d="M9.66683 6.99997C10.035 6.99997 10.3335 7.29845 10.3335 7.66664L10.3335 11C10.3335 11.3682 10.035 11.6666 9.66683 11.6666C9.29864 11.6666 9.00016 11.3682 9.00016 11L9.00016 7.66664C9.00016 7.29845 9.29864 6.99997 9.66683 6.99997Z" fill="black"/>
<path fill-rule="evenodd" clip-rule="evenodd" d="M4.00016 3.99997C4.36835 3.99997 4.66683 4.29845 4.66683 4.66664V13.3333H11.6668V4.66664C11.6668 4.29845 11.9653 3.99997 12.3335 3.99997C12.7017 3.99997 13.0002 4.29845 13.0002 4.66664V14C13.0002 14.3682 12.7017 14.6666 12.3335 14.6666H4.00016C3.63197 14.6666 3.3335 14.3682 3.3335 14V4.66664C3.3335 4.29845 3.63197 3.99997 4.00016 3.99997Z" fill="black"/>
</svg>
