<svg width="24" height="24" viewBox="0 0 24 24" fill="none" xmlns="http://www.w3.org/2000/svg">
<path fill-rule="evenodd" clip-rule="evenodd" d="M5.93799 8.49622H2.99607C2.44595 8.49622 2 8.94442 2 9.49731V14.5028C2 15.0557 2.44595 15.5039 2.99607 15.5039H5.9381L11.5495 20.4965C12.1923 21.0685 13.2058 20.6098 13.2058 19.7469V4.25305C13.2058 3.39022 12.1923 2.93155 11.5495 3.50348L5.93799 8.49622Z" fill="black"/>
<path fill-rule="evenodd" clip-rule="evenodd" d="M15.2114 7.31831C15.5836 6.9112 16.2137 6.88443 16.6188 7.25853C17.8914 8.43388 18.6913 10.1238 18.6913 12.0001C18.6913 13.8763 17.8914 15.5662 16.6188 16.7416C16.2137 17.1157 15.5836 17.0889 15.2114 16.6818C14.8391 16.2747 14.8658 15.6414 15.2708 15.2673C16.1502 14.4552 16.6991 13.2928 16.6991 12.0001C16.6991 10.7073 16.1502 9.54494 15.2708 8.73281C14.8658 8.35872 14.8391 7.72543 15.2114 7.31831Z" fill="black"/>
<path fill-rule="evenodd" clip-rule="evenodd" d="M17.7124 5.30448C18.091 4.90336 18.7215 4.88667 19.1206 5.26719C20.8927 6.95683 21.9999 9.34931 21.9999 12C21.9999 14.6508 20.8927 17.0433 19.1206 18.7329C18.7215 19.1134 18.091 19.0967 17.7124 18.6956C17.3338 18.2945 17.3504 17.6609 17.7495 17.2803C19.1417 15.953 20.0078 14.079 20.0078 12C20.0078 9.92109 19.1417 8.04708 17.7495 6.71975C17.3504 6.33923 17.3338 5.70559 17.7124 5.30448Z" fill="black"/>
</svg>
