<svg width="16" height="16" viewBox="0 0 16 16" fill="none" xmlns="http://www.w3.org/2000/svg">
<path fill-rule="evenodd" clip-rule="evenodd" d="M1.99951 3.7999C1.99951 3.46853 2.26815 3.19989 2.59953 3.19989L13.3998 3.19989C13.7312 3.19989 13.9998 3.46853 13.9998 3.7999C13.9998 4.13128 13.7312 4.39992 13.3998 4.39992L2.59953 4.39992C2.26815 4.39992 1.99951 4.13128 1.99951 3.7999Z" fill="black"/>
<path fill-rule="evenodd" clip-rule="evenodd" d="M1.99951 12.2001C1.99951 11.8687 2.26815 11.6001 2.59953 11.6001L13.3998 11.6001C13.7312 11.6001 13.9998 11.8687 13.9998 12.2001C13.9998 12.5315 13.7312 12.8001 13.3998 12.8001L2.59953 12.8001C2.26815 12.8001 1.99951 12.5315 1.99951 12.2001Z" fill="black"/>
<path fill-rule="evenodd" clip-rule="evenodd" d="M1.99951 8.00001C1.99951 7.66863 2.26815 7.39999 2.59953 7.39999L13.3998 7.39999C13.7312 7.39999 13.9998 7.66863 13.9998 8.00001C13.9998 8.33139 13.7312 8.60002 13.3998 8.60002L2.59953 8.60002C2.26815 8.60002 1.99951 8.33139 1.99951 8.00001Z" fill="black"/>
<path d="M6.79939 3.7999C6.79939 4.62835 6.1278 5.29994 5.29935 5.29994C4.4709 5.29994 3.79932 4.62835 3.79932 3.7999C3.79932 2.97145 4.4709 2.29987 5.29935 2.29987C6.1278 2.29987 6.79939 2.97145 6.79939 3.7999Z" fill="black"/>
<path d="M6.79939 12.2001C6.79939 13.0286 6.1278 13.7001 5.29935 13.7001C4.4709 13.7001 3.79932 13.0286 3.79932 12.2001C3.79932 11.3717 4.4709 10.7001 5.29935 10.7001C6.1278 10.7001 6.79939 11.3717 6.79939 12.2001Z" fill="black"/>
<path d="M12.1998 7.99997C12.1998 8.82842 11.5282 9.50001 10.6997 9.50001C9.8713 9.50001 9.19971 8.82842 9.19971 7.99997C9.19971 7.17153 9.8713 6.49994 10.6997 6.49994C11.5282 6.49994 12.1998 7.17153 12.1998 7.99997Z" fill="black"/>
</svg>
