<svg width="48" height="48" viewBox="0 0 48 48" fill="none" xmlns="http://www.w3.org/2000/svg">
<path d="M38.966 16.384C36.69 10.322 30.858 6 24 6C15.776 6 9.008 12.208 8.11 20.19C3.492 21.076 0 25.124 0 30C0 35.522 4.478 40 10 40H36C42.628 40 48 34.628 48 28C48 22.398 44.156 17.708 38.966 16.384Z" fill="#7689A5"/>
<path fill-rule="evenodd" clip-rule="evenodd" d="M41.3 10C40.6052 10 20.3948 10 19.7 10C18.2096 10 17 11.12 17 12.5C17 13.88 18.2096 15 19.7 15C20.3948 15 40.6052 15 41.3 15C42.7904 15 44 13.88 44 12.5C44 11.12 42.7904 10 41.3 10Z" fill="#4E617D"/>
<path fill-rule="evenodd" clip-rule="evenodd" d="M32.7 19C32.1081 19 14.8919 19 14.3 19C13.0304 19 12 20.12 12 21.5C12 22.88 13.0304 24 14.3 24C14.8919 24 32.1081 24 32.7 24C33.9696 24 35 22.88 35 21.5C35 20.12 33.9696 19 32.7 19Z" fill="#4E617D"/>
<path fill-rule="evenodd" clip-rule="evenodd" d="M27.3 28C26.6052 28 6.3948 28 5.7 28C4.2096 28 3 29.12 3 30.5C3 31.88 4.2096 33 5.7 33C6.3948 33 26.6052 33 27.3 33C28.7904 33 30 31.88 30 30.5C30 29.12 28.7904 28 27.3 28Z" fill="#4E617D"/>
</svg>
