<svg width="48" height="48" viewBox="0 0 48 48" fill="none" xmlns="http://www.w3.org/2000/svg">
<path fill-rule="evenodd" clip-rule="evenodd" d="M15 19C15 18.4477 15.4477 18 16 18H32C32.5523 18 33 18.4477 33 19C33 19.5523 32.5523 20 32 20H16C15.4477 20 15 19.5523 15 19Z" fill="black"/>
<path fill-rule="evenodd" clip-rule="evenodd" d="M21 15C21 14.4477 21.4477 14 22 14H26C26.5523 14 27 14.4477 27 15C27 15.5523 26.5523 16 26 16H22C21.4477 16 21 15.5523 21 15Z" fill="black"/>
<path fill-rule="evenodd" clip-rule="evenodd" d="M22 22.5C22.5523 22.5 23 22.9477 23 23.5L23 28.5C23 29.0523 22.5523 29.5 22 29.5C21.4477 29.5 21 29.0523 21 28.5L21 23.5C21 22.9477 21.4477 22.5 22 22.5Z" fill="black"/>
<path fill-rule="evenodd" clip-rule="evenodd" d="M26.5 22.5C27.0523 22.5 27.5 22.9477 27.5 23.5L27.5 28.5C27.5 29.0523 27.0523 29.5 26.5 29.5C25.9477 29.5 25.5 29.0523 25.5 28.5L25.5 23.5C25.5 22.9477 25.9477 22.5 26.5 22.5Z" fill="black"/>
<path fill-rule="evenodd" clip-rule="evenodd" d="M18 18C18.5523 18 19 18.4477 19 19V32H29.5V19C29.5 18.4477 29.9477 18 30.5 18C31.0523 18 31.5 18.4477 31.5 19V33C31.5 33.5523 31.0523 34 30.5 34H18C17.4477 34 17 33.5523 17 33V19C17 18.4477 17.4477 18 18 18Z" fill="black"/>
</svg>
