<svg width="24" height="24" viewBox="0 0 24 24" fill="none" xmlns="http://www.w3.org/2000/svg">
<path d="M12.005 15.288H11.9949C10.8789 15.288 10.017 14.279 10.208 13.179C10.791 9.824 13.4019 9.707 13.4019 7.624C13.4019 7.045 13.3019 5.75 11.9079 5.75C11.1539 5.75 10.7109 6.232 10.4539 6.745C10.1059 7.439 9.30295 7.781 8.53795 7.646C7.37795 7.442 6.66595 6.197 7.15795 5.127C7.86195 3.6 9.30195 2 12.1529 2C16.7799 2 17.4 5.623 17.4 7.326C17.4 11.353 14.4009 11.503 13.7799 13.823C13.5559 14.66 12.871 15.288 12.005 15.288Z" fill="#7689A5"/>
<path d="M14.4091 19.556C14.4091 20.243 14.1971 20.822 13.7721 21.294C13.3441 21.764 12.7871 22 12.1001 22C11.4101 22 10.8531 21.764 10.4281 21.294C10.0031 20.822 9.78809 20.243 9.78809 19.556C9.78809 18.885 10.0031 18.306 10.4281 17.815C10.8531 17.327 11.4101 17.083 12.1001 17.083C12.7871 17.083 13.3451 17.327 13.7721 17.815C14.1961 18.306 14.4091 18.884 14.4091 19.556Z" fill="#7689A5"/>
</svg>
