<svg width="16" height="16" viewBox="0 0 16 16" fill="none" xmlns="http://www.w3.org/2000/svg">
<path d="M9.92804 5.33331H6.06929C5.0277 5.33331 4.34962 4.29331 4.81799 3.40665C5.05566 2.95331 5.53801 2.66665 6.06929 2.66665H9.93503C10.4663 2.66665 10.9487 2.95331 11.1863 3.40665C11.6477 4.29331 10.9696 5.33331 9.92804 5.33331Z" fill="black"/>
<path fill-rule="evenodd" clip-rule="evenodd" d="M13.3335 3.99998H2.66683C1.9335 3.99998 1.3335 4.59998 1.3335 5.33331V12C1.3335 12.7333 1.9335 13.3333 2.66683 13.3333H13.3335C14.0668 13.3333 14.6668 12.7333 14.6668 12V5.33331C14.6668 4.59998 14.0668 3.99998 13.3335 3.99998ZM8.00024 10.6666C9.10481 10.6666 10.0002 9.77122 10.0002 8.66665C10.0002 7.56208 9.10481 6.66665 8.00024 6.66665C6.89567 6.66665 6.00024 7.56208 6.00024 8.66665C6.00024 9.77122 6.89567 10.6666 8.00024 10.6666ZM4.00024 5.99998C4.00024 6.36817 3.70177 6.66665 3.33358 6.66665C2.96539 6.66665 2.66691 6.36817 2.66691 5.99998C2.66691 5.63179 2.96539 5.33331 3.33358 5.33331C3.70177 5.33331 4.00024 5.63179 4.00024 5.99998Z" fill="black"/>
</svg>
