<svg width="32" height="32" viewBox="0 0 32 32" fill="none" xmlns="http://www.w3.org/2000/svg">
<path d="M25.9773 10.9227C24.46 6.88133 20.572 4 16 4C10.5173 4 6.00533 8.13867 5.40667 13.46C2.328 14.0507 0 16.7493 0 20C0 23.6813 2.98533 26.6667 6.66667 26.6667H24C28.4187 26.6667 32 23.0853 32 18.6667C32 14.932 29.4373 11.8053 25.9773 10.9227Z" fill="#E8F1FF"/>
<path fill-rule="evenodd" clip-rule="evenodd" d="M27.5333 6.66666C27.0701 6.66666 13.5965 6.66666 13.1333 6.66666C12.1397 6.66666 11.3333 7.41332 11.3333 8.33332C11.3333 9.25332 12.1397 9.99999 13.1333 9.99999C13.5965 9.99999 27.0701 9.99999 27.5333 9.99999C28.5269 9.99999 29.3333 9.25332 29.3333 8.33332C29.3333 7.41332 28.5269 6.66666 27.5333 6.66666Z" fill="#7689A5"/>
<path fill-rule="evenodd" clip-rule="evenodd" d="M21.8 12.6667C21.4054 12.6667 9.92791 12.6667 9.53333 12.6667C8.68693 12.6667 8 13.4133 8 14.3333C8 15.2533 8.68693 16 9.53333 16C9.92791 16 21.4054 16 21.8 16C22.6464 16 23.3333 15.2533 23.3333 14.3333C23.3333 13.4133 22.6464 12.6667 21.8 12.6667Z" fill="#7689A5"/>
<path fill-rule="evenodd" clip-rule="evenodd" d="M18.2 18.6667C17.7368 18.6667 4.2632 18.6667 3.8 18.6667C2.8064 18.6667 2 19.4133 2 20.3333C2 21.2533 2.8064 22 3.8 22C4.2632 22 17.7368 22 18.2 22C19.1936 22 20 21.2533 20 20.3333C20 19.4133 19.1936 18.6667 18.2 18.6667Z" fill="#7689A5"/>
</svg>
