<svg width="32" height="32" viewBox="0 0 32 32" fill="none" xmlns="http://www.w3.org/2000/svg">
<path d="M23.7092 6.076C22.0293 3.616 19.2039 2 15.9999 2C11.7373 2 8.15059 4.86 7.03325 8.764C3.81325 9.236 1.33325 11.9827 1.33325 15.3333C1.33325 19.0147 4.31859 22 7.99992 22H22.6666C27.0853 22 30.6666 18.4187 30.6666 14C30.6666 9.936 27.6346 6.588 23.7092 6.076Z" fill="#E8F1FF"/>
<path d="M4.66645 28.488C4.02912 28.12 3.81045 27.304 4.17845 26.6667L10.8331 16C11.2011 15.3627 12.0171 15.144 12.6545 15.512C13.2918 15.88 13.5105 16.696 13.1425 17.3334L6.48778 28C6.11978 28.6374 5.30378 28.856 4.66645 28.488Z" fill="#A9BBD9"/>
<path d="M18.0119 28.488C17.3746 28.12 17.1559 27.304 17.5239 26.6667L24.1786 16C24.5466 15.3627 25.3626 15.144 25.9999 15.512C26.6372 15.88 26.8559 16.696 26.4879 17.3334L19.8332 28C19.4652 28.6374 18.6492 28.856 18.0119 28.488Z" fill="#A9BBD9"/>
<path d="M11.3452 28.488C10.7065 28.12 10.4892 27.304 10.8572 26.6667L17.5119 16C17.8799 15.3627 18.6959 15.144 19.3332 15.512C19.9705 15.88 20.1892 16.696 19.8212 17.3334L13.1665 28C12.7985 28.6374 11.9825 28.856 11.3452 28.488Z" fill="#A9BBD9"/>
</svg>
