<svg width="32" height="32" viewBox="0 0 32 32" fill="none" xmlns="http://www.w3.org/2000/svg">
<path d="M23.709 6.076C22.029 3.616 19.2037 2 15.9997 2C11.737 2 8.15034 4.86 7.03301 8.764C3.81301 9.236 1.33301 11.9827 1.33301 15.3333C1.33301 19.0147 4.31834 22 7.99967 22H22.6663C27.085 22 30.6663 18.4187 30.6663 14C30.6663 9.936 27.6343 6.588 23.709 6.076Z" fill="#7689A5"/>
<path d="M4.66621 28.488C4.02887 28.12 3.81021 27.304 4.17821 26.6667L10.8329 16C11.2009 15.3627 12.0169 15.144 12.6542 15.512C13.2915 15.88 13.5102 16.696 13.1422 17.3334L6.48754 28C6.11954 28.6374 5.30354 28.856 4.66621 28.488Z" fill="#F5F9FF"/>
<path d="M18.0114 28.488C17.3741 28.12 17.1554 27.304 17.5234 26.6667L24.1781 16C24.5461 15.3627 25.3621 15.144 25.9994 15.512C26.6368 15.88 26.8554 16.696 26.4874 17.3334L19.8328 28C19.4648 28.6374 18.6488 28.856 18.0114 28.488Z" fill="#F5F9FF"/>
<path d="M11.3452 28.488C10.7065 28.12 10.4892 27.304 10.8572 26.6667L17.5119 16C17.8799 15.3627 18.6959 15.144 19.3332 15.512C19.9705 15.88 20.1892 16.696 19.8212 17.3334L13.1665 28C12.7985 28.6374 11.9825 28.856 11.3452 28.488Z" fill="#F5F9FF"/>
</svg>
