<svg width="16" height="17" viewBox="0 0 16 17" fill="none" xmlns="http://www.w3.org/2000/svg">
<path fill-rule="evenodd" clip-rule="evenodd" d="M2 4.99862C2 5.62552 2.24723 6.19469 2.64951 6.61392C2.23417 7.42991 2 8.35358 2 9.33195C2 12.6457 4.68629 15.332 8 15.332C11.3137 15.332 14 12.6457 14 9.33195C14 8.35358 13.7658 7.42991 13.3505 6.61392C13.7528 6.19468 14 5.62552 14 4.99862C14 3.70995 12.9553 2.66528 11.6667 2.66528C10.9004 2.66528 10.2204 3.03466 9.79501 3.60507C9.22823 3.4276 8.62529 3.33195 8 3.33195C7.37471 3.33195 6.77177 3.4276 6.205 3.60506C5.77961 3.03466 5.09961 2.66528 4.33333 2.66528C3.04467 2.66528 2 3.70995 2 4.99862ZM5.66668 7.33195C5.66668 6.96376 5.96516 6.66528 6.33335 6.66528H9.66668C9.93056 6.66528 10.1696 6.82093 10.2764 7.06225C10.3831 7.30357 10.3375 7.58514 10.16 7.7804L7.84038 10.332H9.66668C10.0349 10.332 10.3333 10.6304 10.3333 10.9986C10.3333 11.3668 10.0349 11.6653 9.66668 11.6653H6.33335C6.06947 11.6653 5.83042 11.5096 5.72367 11.2683C5.61692 11.027 5.66255 10.7454 5.84005 10.5502L8.15965 7.99862H6.33335C5.96516 7.99862 5.66668 7.70014 5.66668 7.33195Z" fill="black"/>
</svg>
