<svg width="16" height="16" viewBox="0 0 16 16" fill="none" xmlns="http://www.w3.org/2000/svg">
<path fill-rule="evenodd" clip-rule="evenodd" d="M8.58245 1.11339C8.34594 0.98626 8.06142 0.98626 7.82491 1.11339L2.63128 3.90514C1.89894 4.29879 2.17862 5.40979 3.01005 5.40979H3.20368V13.0718C2.7774 13.5701 2.16626 13.9017 1.46219 13.9609C1.41781 13.9663 1.37342 13.9718 1.3335 13.9647C1.93938 14.5899 2.32479 14.775 3.2036 14.9098L3.20368 14.9098L4.53693 14.9098H6.52692L8.20368 14.9098C10.9651 14.9098 13.2037 12.6712 13.2037 9.90979V5.40979H13.3973C14.2287 5.40979 14.5084 4.29879 13.7761 3.90514L8.58245 1.11339ZM7.2036 6.24306C7.57179 6.24306 7.87026 6.59128 7.87026 7.02083V10.3542C7.87026 10.7837 7.57179 11.1319 7.2036 11.1319C6.83541 11.1319 6.53693 10.7837 6.53693 10.3542V7.02083C6.53693 6.59128 6.83541 6.24306 7.2036 6.24306ZM5.2036 7.57635C5.57179 7.57635 5.87026 7.92457 5.87026 8.35413V9.1319C5.87026 9.56146 5.57179 9.90968 5.2036 9.90968C4.83541 9.90968 4.53693 9.56146 4.53693 9.1319V8.35413C4.53693 7.92457 4.83541 7.57635 5.2036 7.57635ZM11.2036 6.90971C11.5718 6.90971 11.8703 7.25793 11.8703 7.68749V9.90971C11.8703 10.3393 11.5718 10.6875 11.2036 10.6875C10.8354 10.6875 10.5369 10.3393 10.5369 9.90971L10.5369 7.68749C10.5369 7.25793 10.8354 6.90971 11.2036 6.90971ZM9.2036 4.90972C9.57179 4.90972 9.87026 5.25795 9.87026 5.6875L9.87026 11.6877C9.87026 12.1172 9.57179 12.4654 9.2036 12.4654C8.83541 12.4654 8.53693 12.1172 8.53693 11.6877L8.53693 5.6875C8.53693 5.25795 8.83541 4.90972 9.2036 4.90972Z" fill="black"/>
</svg>
