<svg width="24" height="24" viewBox="0 0 24 24" fill="none" xmlns="http://www.w3.org/2000/svg">
<path fill-rule="evenodd" clip-rule="evenodd" d="M10.5369 5C7.48442 5 5.00985 7.46243 5.00985 10.5C5.00985 13.5376 7.48442 16 10.5369 16C13.5895 16 16.064 13.5376 16.064 10.5C16.064 7.46243 13.5895 5 10.5369 5ZM3 10.5C3 6.35786 6.37441 3 10.5369 3C14.6995 3 18.0739 6.35786 18.0739 10.5C18.0739 14.6421 14.6995 18 10.5369 18C6.37441 18 3 14.6421 3 10.5Z" fill="black"/>
<path fill-rule="evenodd" clip-rule="evenodd" d="M14.2894 14.7071C14.6819 14.3166 15.4097 14.4077 15.9151 14.9107L19.9088 18.8847C20.4142 19.3877 20.5058 20.112 20.1133 20.5025C19.7209 20.893 18.993 20.8019 18.4876 20.2989L14.494 16.3249C13.9885 15.8219 13.897 15.0976 14.2894 14.7071Z" fill="black"/>
</svg>
