<svg width="16" height="16" viewBox="0 0 16 16" fill="none" xmlns="http://www.w3.org/2000/svg">
<path fill-rule="evenodd" clip-rule="evenodd" d="M1.75826 8.04531C2.10142 7.91188 2.48778 8.08191 2.6212 8.42507C3.42859 10.5016 5.52296 12 7.99985 12C10.4767 12 12.5711 10.5016 13.3785 8.42507C13.5119 8.08191 13.8983 7.91188 14.2414 8.04531C14.5846 8.17874 14.7546 8.56509 14.6212 8.90826C13.6117 11.5046 11.0188 13.3333 7.99985 13.3333C4.98089 13.3333 2.388 11.5046 1.3785 8.90826C1.24507 8.56509 1.4151 8.17874 1.75826 8.04531Z" fill="black"/>
<path fill-rule="evenodd" clip-rule="evenodd" d="M14.2104 9.29909C13.8611 9.4155 13.4836 9.2267 13.3672 8.8774C12.5333 6.37534 10.4126 4.66662 7.99966 4.66662C5.5867 4.66662 3.46599 6.37534 2.63212 8.8774C2.51571 9.2267 2.13817 9.4155 1.78887 9.29908C1.43957 9.18267 1.25078 8.80514 1.36719 8.45583C2.3502 5.50627 4.91676 3.33328 7.99966 3.33329C11.0826 3.33329 13.6491 5.50627 14.6321 8.45583C14.7485 8.80514 14.5597 9.18267 14.2104 9.29909Z" fill="black"/>
<path fill-rule="evenodd" clip-rule="evenodd" d="M7.99984 7.3333C7.44755 7.3333 6.99984 7.78102 6.99984 8.3333C6.99984 8.88559 7.44755 9.3333 7.99984 9.3333C8.55212 9.3333 8.99984 8.88559 8.99984 8.3333C8.99984 7.78102 8.55212 7.3333 7.99984 7.3333ZM5.6665 8.3333C5.6665 7.04464 6.71117 5.99997 7.99984 5.99997C9.2885 5.99997 10.3332 7.04464 10.3332 8.3333C10.3332 9.62197 9.2885 10.6666 7.99984 10.6666C6.71117 10.6666 5.6665 9.62197 5.6665 8.3333Z" fill="black"/>
</svg>
