<svg width="16" height="16" viewBox="0 0 16 16" fill="none" xmlns="http://www.w3.org/2000/svg">
<path fill-rule="evenodd" clip-rule="evenodd" d="M3.25295 12.8485C2.98785 12.5807 2.98785 12.1466 3.25295 11.8788L11.893 3.15155C12.158 2.88378 12.5879 2.88378 12.853 3.15155C13.118 3.41933 13.118 3.85347 12.853 4.12125L4.21295 12.8485C3.94785 13.1163 3.51805 13.1163 3.25295 12.8485Z" fill="black"/>
<path fill-rule="evenodd" clip-rule="evenodd" d="M3.14646 3.15153C3.41156 2.88376 3.84137 2.88376 4.10646 3.15153L12.7465 11.8788C13.0116 12.1466 13.0116 12.5807 12.7465 12.8485C12.4814 13.1162 12.0516 13.1162 11.7865 12.8485L3.14646 4.12123C2.88137 3.85345 2.88137 3.41931 3.14646 3.15153Z" fill="black"/>
</svg>
