<svg width="48" height="48" viewBox="0 0 48 48" fill="none" xmlns="http://www.w3.org/2000/svg">
<circle cx="12" cy="18" r="6" fill="#F5F9FF"/>
<path fill-rule="evenodd" clip-rule="evenodd" d="M23.278 16.88L20.588 15.662C20.208 15.488 19.906 15.178 19.746 14.792C19.586 14.406 19.58 13.974 19.726 13.582L20.766 10.818C20.936 10.366 20.826 9.856 20.484 9.514C20.142 9.172 19.632 9.062 19.18 9.232L16.416 10.272C16.024 10.42 15.592 10.412 15.206 10.252C14.82 10.092 14.508 9.792 14.336 9.41L13.122 6.724C12.922 6.282 12.484 6 12 6C11.516 6 11.078 6.282 10.878 6.724L9.66 9.414C9.486 9.794 9.176 10.096 8.79 10.256C8.404 10.416 7.972 10.422 7.58 10.274L4.816 9.234C4.364 9.064 3.854 9.174 3.512 9.516C3.172 9.856 3.062 10.366 3.232 10.818L4.274 13.582C4.422 13.974 4.414 14.406 4.254 14.792C4.094 15.178 3.794 15.49 3.412 15.662L0.724 16.878C0.282 17.078 0 17.516 0 18C0 18.484 0.282 18.922 0.722 19.12L3.412 20.338C3.792 20.512 4.094 20.822 4.254 21.208C4.414 21.594 4.42 22.026 4.274 22.418L3.234 25.182C3.064 25.634 3.174 26.144 3.516 26.486C3.858 26.828 4.368 26.938 4.82 26.768L7.584 25.728C7.976 25.58 8.408 25.588 8.794 25.748C9.18 25.908 9.492 26.208 9.664 26.59L10.882 29.28C11.078 29.718 11.516 30 12 30C12.484 30 12.922 29.718 13.12 29.278L14.338 26.588C14.512 26.208 14.822 25.906 15.208 25.746C15.594 25.586 16.026 25.58 16.418 25.726L19.182 26.766C19.634 26.936 20.144 26.826 20.486 26.484C20.828 26.142 20.938 25.632 20.768 25.18L19.728 22.416C19.58 22.024 19.588 21.592 19.748 21.206C19.908 20.82 20.208 20.508 20.59 20.336L23.28 19.118C23.718 18.922 24 18.484 24 18C24 17.516 23.718 17.078 23.278 16.88ZM12.006 23.226C9.124 23.226 6.788 20.89 6.788 18.008C6.788 15.126 9.124 12.79 12.006 12.79C14.888 12.79 17.224 15.128 17.224 18.008C17.224 20.89 14.888 23.226 12.006 23.226Z" fill="#E2B00A"/>
<path d="M38.966 17.9392C36.69 11.8772 30.858 7.55518 24 7.55518C15.776 7.55518 9.008 13.7632 8.11 21.7452C3.492 22.6312 0 26.6792 0 31.5552C0 37.0772 4.478 41.5552 10 41.5552H36C42.628 41.5552 48 36.1832 48 29.5552C48 23.9532 44.156 19.2632 38.966 17.9392Z" fill="#F5F9FF"/>
</svg>
