<svg width="24" height="24" viewBox="0 0 24 24" fill="none" xmlns="http://www.w3.org/2000/svg">
<path fill-rule="evenodd" clip-rule="evenodd" d="M4.5 12.25C4.5 8.24594 7.74594 5 11.75 5C12.4404 5 13 4.44036 13 3.75C13 3.05964 12.4404 2.5 11.75 2.5C6.36522 2.5 2 6.86522 2 12.25C2 17.6348 6.36522 22 11.75 22C17.1348 22 21.5 17.6348 21.5 12.25C21.5 9.72108 20.5355 7.41452 18.9565 5.68268C18.9504 5.67594 18.9442 5.66929 18.9379 5.66272L19.9324 4.77964C20.4038 4.36112 20.1251 3.58166 19.4953 3.55676L15.8203 3.41145C15.434 3.39617 15.1085 3.69694 15.0932 4.08324L14.9535 7.61581C14.9291 8.23232 15.6564 8.57656 16.1177 8.1669L17.0697 7.32166C17.0824 7.33702 17.0955 7.35216 17.1091 7.36706C18.2847 8.65645 19 10.3683 19 12.25C19 16.2541 15.7541 19.5 11.75 19.5C7.74594 19.5 4.5 16.2541 4.5 12.25Z" fill="black"/>
<path fill-rule="evenodd" clip-rule="evenodd" d="M15.6049 9.83808C16.1086 10.3102 16.1341 11.1013 15.6619 11.6049L11.9119 15.6049C11.6756 15.857 11.3455 16 11 16C10.6545 16 10.3244 15.857 10.0881 15.6049L7.83808 13.2049C7.36592 12.7013 7.39144 11.9102 7.89508 11.4381C8.39872 10.9659 9.18976 10.9914 9.66193 11.4951L11 12.9224L13.8381 9.89508C14.3102 9.39144 15.1013 9.36592 15.6049 9.83808Z" fill="black"/>
</svg>
