<svg width="24" height="24" viewBox="0 0 24 24" fill="none" xmlns="http://www.w3.org/2000/svg">
<circle cx="6" cy="9" r="3" fill="#BDCFED"/>
<path fill-rule="evenodd" clip-rule="evenodd" d="M11.639 8.44L10.294 7.831C10.104 7.744 9.953 7.589 9.873 7.396C9.793 7.203 9.79 6.987 9.863 6.791L10.383 5.409C10.468 5.183 10.413 4.928 10.242 4.757C10.071 4.586 9.816 4.531 9.59 4.616L8.208 5.136C8.012 5.21 7.796 5.206 7.603 5.126C7.41 5.046 7.254 4.896 7.168 4.705L6.561 3.362C6.461 3.141 6.242 3 6 3C5.758 3 5.539 3.141 5.439 3.362L4.83 4.707C4.743 4.897 4.588 5.048 4.395 5.128C4.202 5.208 3.986 5.211 3.79 5.137L2.408 4.617C2.182 4.532 1.927 4.587 1.756 4.758C1.586 4.928 1.531 5.183 1.616 5.409L2.137 6.791C2.211 6.987 2.207 7.203 2.127 7.396C2.047 7.589 1.897 7.745 1.706 7.831L0.362 8.439C0.141 8.539 0 8.758 0 9C0 9.242 0.141 9.461 0.361 9.56L1.706 10.169C1.896 10.256 2.047 10.411 2.127 10.604C2.207 10.797 2.21 11.013 2.137 11.209L1.617 12.591C1.532 12.817 1.587 13.072 1.758 13.243C1.929 13.414 2.184 13.469 2.41 13.384L3.792 12.864C3.988 12.79 4.204 12.794 4.397 12.874C4.59 12.954 4.746 13.104 4.832 13.295L5.441 14.64C5.539 14.859 5.758 15 6 15C6.242 15 6.461 14.859 6.56 14.639L7.169 13.294C7.256 13.104 7.411 12.953 7.604 12.873C7.797 12.793 8.013 12.79 8.209 12.863L9.591 13.383C9.817 13.468 10.072 13.413 10.243 13.242C10.414 13.071 10.469 12.816 10.384 12.59L9.864 11.208C9.79 11.012 9.794 10.796 9.874 10.603C9.954 10.41 10.104 10.254 10.295 10.168L11.64 9.559C11.859 9.461 12 9.242 12 9C12 8.758 11.859 8.539 11.639 8.44ZM6.003 11.613C4.562 11.613 3.394 10.445 3.394 9.004C3.394 7.563 4.562 6.395 6.003 6.395C7.444 6.395 8.612 7.564 8.612 9.004C8.612 10.445 7.444 11.613 6.003 11.613Z" fill="#F0B902"/>
<path d="M19.483 9.192C18.345 6.161 15.429 4 12 4C7.888 4 4.504 7.104 4.055 11.095C1.746 11.538 0 13.562 0 16C0 18.761 2.239 21 5 21H18C21.314 21 24 18.314 24 15C24 12.199 22.078 9.854 19.483 9.192Z" fill="#BDCFED"/>
</svg>
