<svg width="24" height="24" viewBox="0 0 24 24" fill="none" xmlns="http://www.w3.org/2000/svg">
<path fill-rule="evenodd" clip-rule="evenodd" d="M13.6877 3.97157C12.9236 2.67614 11.0764 2.67614 10.3123 3.97157L2.28314 17.5822C1.49674 18.9152 2.44157 20.6106 3.97088 20.6106H20.0291C21.5584 20.6106 22.5033 18.9152 21.7169 17.5822L13.6877 3.97157ZM12.0001 8.6106C12.5435 8.6106 12.984 9.05831 12.984 9.6106L12.984 13.6106C12.984 14.1629 12.5435 14.6106 12.0001 14.6106C11.4567 14.6106 11.0161 14.1629 11.0161 13.6106V9.6106C11.0161 9.05831 11.4567 8.6106 12.0001 8.6106ZM12 17.6106C12.5434 17.6106 12.984 17.1629 12.984 16.6106C12.984 16.0583 12.5434 15.6106 12 15.6106C11.4566 15.6106 11.0161 16.0583 11.0161 16.6106C11.0161 17.1629 11.4566 17.6106 12 17.6106Z" fill="black"/>
</svg>
