<svg width="16" height="16" viewBox="0 0 16 16" fill="none" xmlns="http://www.w3.org/2000/svg">
<path fill-rule="evenodd" clip-rule="evenodd" d="M0.666504 4.66667C0.666504 3.5621 1.56193 2.66667 2.6665 2.66667H13.3332C14.4377 2.66667 15.3332 3.5621 15.3332 4.66667V11.3333C15.3332 12.4379 14.4377 13.3333 13.3332 13.3333H2.66651C1.56194 13.3333 0.666504 12.4379 0.666504 11.3333V4.66667ZM3.33309 5.33331C3.33309 4.96512 3.63157 4.66665 3.99976 4.66665C4.36795 4.66665 4.66642 4.96512 4.66642 5.33331C4.66642 5.7015 4.36795 5.99998 3.99976 5.99998C3.63157 5.99998 3.33309 5.7015 3.33309 5.33331ZM6.66642 4.66665C6.29823 4.66665 5.99976 4.96512 5.99976 5.33331C5.99976 5.7015 6.29823 5.99998 6.66642 5.99998C7.03461 5.99998 7.33309 5.7015 7.33309 5.33331C7.33309 4.96512 7.03461 4.66665 6.66642 4.66665ZM2.66642 10.6666C2.66642 10.2985 2.9649 9.99998 3.33309 9.99998H12.6664C13.0346 9.99998 13.3331 10.2985 13.3331 10.6666C13.3331 11.0348 13.0346 11.3333 12.6664 11.3333H3.33309C2.9649 11.3333 2.66642 11.0348 2.66642 10.6666ZM5.33309 7.33331C4.9649 7.33331 4.66642 7.63179 4.66642 7.99998C4.66642 8.36817 4.9649 8.66665 5.33309 8.66665C5.70128 8.66665 5.99976 8.36817 5.99976 7.99998C5.99976 7.63179 5.70128 7.33331 5.33309 7.33331ZM7.33309 7.99998C7.33309 7.63179 7.63157 7.33331 7.99976 7.33331C8.36795 7.33331 8.66642 7.63179 8.66642 7.99998C8.66642 8.36817 8.36795 8.66665 7.99976 8.66665C7.63157 8.66665 7.33309 8.36817 7.33309 7.99998ZM10.6664 7.33331C10.2982 7.33331 9.99976 7.63179 9.99976 7.99998C9.99976 8.36817 10.2982 8.66665 10.6664 8.66665C11.0346 8.66665 11.3331 8.36817 11.3331 7.99998C11.3331 7.63179 11.0346 7.33331 10.6664 7.33331ZM8.66642 5.33331C8.66642 4.96512 8.9649 4.66665 9.33309 4.66665C9.70128 4.66665 9.99976 4.96512 9.99976 5.33331C9.99976 5.7015 9.70128 5.99998 9.33309 5.99998C8.9649 5.99998 8.66642 5.7015 8.66642 5.33331ZM11.9998 4.66665C11.6316 4.66665 11.3331 4.96512 11.3331 5.33331C11.3331 5.7015 11.6316 5.99998 11.9998 5.99998C12.3679 5.99998 12.6664 5.7015 12.6664 5.33331C12.6664 4.96512 12.3679 4.66665 11.9998 4.66665Z" fill="black"/>
</svg>
