<svg width="24" height="24" viewBox="0 0 24 24" fill="none" xmlns="http://www.w3.org/2000/svg">
<path fill-rule="evenodd" clip-rule="evenodd" d="M9 21C11.7614 21 14 18.7614 14 16C14 13.2386 11.7614 11 9 11C6.23858 11 4 13.2386 4 16C4 18.7614 6.23858 21 9 21Z" fill="black"/>
<path fill-rule="evenodd" clip-rule="evenodd" d="M12 4C12 3.44772 12.4477 3 13 3C17.4183 3 21 6.58172 21 11C21 11.5523 20.5523 12 20 12C19.4477 12 19 11.5523 19 11C19 7.68629 16.3137 5 13 5C12.4477 5 12 4.55228 12 4Z" fill="black"/>
<path fill-rule="evenodd" clip-rule="evenodd" d="M13 3C13.5523 3 14 3.44772 14 4V16C14 16.5523 13.5523 17 13 17C12.4477 17 12 16.5523 12 16V4C12 3.44772 12.4477 3 13 3Z" fill="black"/>
</svg>
