<svg width="16" height="16" viewBox="0 0 16 16" fill="none" xmlns="http://www.w3.org/2000/svg">
<g clip-path="url(#clip0_81_4059)">
<path fill-rule="evenodd" clip-rule="evenodd" d="M9.14005 2.87778C9.14005 3.73333 8.45223 4.42222 7.59801 4.42222C6.74934 4.42222 6.06152 3.73333 6.06152 2.87778C6.06152 2.02222 6.74379 1.33333 7.59801 1.33333C8.45223 1.33333 9.14005 2.02222 9.14005 2.87778ZM8.72385 4.81665H12.4791C12.9506 4.81665 13.3389 5.16109 13.3389 5.58887C13.3389 6.01665 12.9561 6.36665 12.4846 6.36665H7.9251L6.7658 8.6222H9.0012C9.53925 8.6222 9.9719 9.05554 9.9719 9.59443C9.9719 9.71109 9.94971 9.81665 9.91643 9.91665L9.90534 9.94998C9.89979 9.96665 9.89425 9.98332 9.8887 9.99443L9.8776 10.0278L7.78643 14.1722C7.57565 14.5944 7.09307 14.7833 6.71033 14.5889C6.3276 14.3944 6.18892 13.8944 6.39971 13.4722L7.86408 10.5666H5.76736H5.31252H3.90361C2.97728 10.5666 2.37821 9.57776 2.81087 8.75554L4.52486 5.47776C4.719 5.10554 5.08509 4.8722 5.50111 4.83332V4.81665H5.6176H8.72385Z" fill="black"/>
</g>
<defs>
<clipPath id="clip0_81_4059">
<rect width="10.6667" height="13.3333" fill="white" transform="translate(2.6665 1.33333)"/>
</clipPath>
</defs>
</svg>
