<svg width="32" height="32" viewBox="0 0 32 32" fill="none" xmlns="http://www.w3.org/2000/svg">
<path d="M23.7092 6.076C22.0293 3.616 19.2039 2 15.9999 2C11.7373 2 8.15059 4.86 7.03325 8.764C3.81325 9.236 1.33325 11.9827 1.33325 15.3333C1.33325 19.0147 4.31859 22 7.99992 22H22.6666C27.0853 22 30.6666 18.4187 30.6666 14C30.6666 9.936 27.6346 6.588 23.7092 6.076Z" fill="#E8F1FF"/>
<path d="M14.3986 19.3333C14.0299 19.3333 13.7319 19.0353 13.7319 18.6667V14.6667C13.7319 14.298 14.0299 14 14.3986 14C14.7673 14 15.0653 14.298 15.0653 14.6667V18.6667C15.0653 19.0353 14.7673 19.3333 14.3986 19.3333Z" fill="#A9BBD9"/>
<path d="M12.6671 18.3333C12.4364 18.3333 12.2124 18.214 12.0891 18C11.9051 17.6807 12.0144 17.2733 12.3331 17.0893L15.7964 15.0893C16.1144 14.9053 16.5224 15.014 16.7071 15.3333C16.8911 15.6527 16.7818 16.06 16.4631 16.244L12.9998 18.244C12.8951 18.3047 12.7804 18.3333 12.6671 18.3333Z" fill="#A9BBD9"/>
<path d="M16.13 18.3333C16.0167 18.3333 15.902 18.3046 15.7973 18.244L12.334 16.244C12.0147 16.06 11.9053 15.6526 12.0893 15.3333C12.2733 15.014 12.682 14.9046 13 15.0893L16.4633 17.0893C16.7827 17.2733 16.892 17.6813 16.7073 18C16.584 18.214 16.36 18.3333 16.13 18.3333Z" fill="#A9BBD9"/>
<path d="M11.0651 30.6667C10.6964 30.6667 10.3984 30.3687 10.3984 30V26C10.3984 25.6313 10.6964 25.3333 11.0651 25.3333C11.4338 25.3333 11.7318 25.6313 11.7318 26V30C11.7318 30.3687 11.4338 30.6667 11.0651 30.6667Z" fill="#A9BBD9"/>
<path d="M9.33385 29.6666C9.10318 29.6666 8.87918 29.5473 8.75585 29.3333C8.57185 29.014 8.68118 28.6066 8.99985 28.4226L12.4632 26.4226C12.7812 26.238 13.1892 26.3473 13.3738 26.6666C13.5578 26.986 13.4485 27.3933 13.1298 27.5773L9.66652 29.5773C9.56185 29.638 9.44718 29.6666 9.33385 29.6666Z" fill="#A9BBD9"/>
<path d="M12.7965 29.6667C12.6832 29.6667 12.5685 29.638 12.4638 29.5773L9.00049 27.5773C8.68116 27.3933 8.57183 26.986 8.75583 26.6667C8.93983 26.3473 9.34783 26.2373 9.66649 26.4227L13.1298 28.4227C13.4492 28.6067 13.5585 29.0147 13.3738 29.3333C13.2505 29.5473 13.0265 29.6667 12.7965 29.6667Z" fill="#A9BBD9"/>
<path d="M21.0651 28C20.6964 28 20.3984 27.702 20.3984 27.3333V23.3333C20.3984 22.9647 20.6964 22.6667 21.0651 22.6667C21.4338 22.6667 21.7318 22.9647 21.7318 23.3333V27.3333C21.7318 27.702 21.4338 28 21.0651 28Z" fill="#A9BBD9"/>
<path d="M19.3339 27C19.1032 27 18.8792 26.8807 18.7559 26.6667C18.5719 26.3473 18.6812 25.94 18.9999 25.756L22.4632 23.756C22.7805 23.572 23.1892 23.6807 23.3739 24C23.5579 24.3193 23.4485 24.7267 23.1299 24.9107L19.6665 26.9107C19.5619 26.9713 19.4472 27 19.3339 27Z" fill="#A9BBD9"/>
<path d="M22.7965 27C22.6832 27 22.5685 26.9713 22.4638 26.9106L19.0005 24.9106C18.6812 24.7266 18.5718 24.3193 18.7558 24C18.9398 23.6806 19.3485 23.5713 19.6665 23.756L23.1298 25.756C23.4492 25.94 23.5585 26.348 23.3738 26.6666C23.2505 26.8806 23.0265 27 22.7965 27Z" fill="#A9BBD9"/>
</svg>
