<svg width="24" height="24" viewBox="0 0 24 24" fill="none" xmlns="http://www.w3.org/2000/svg">
<path fill-rule="evenodd" clip-rule="evenodd" d="M19.083 3.77797C19.6838 3.42411 20.4527 3.39509 21.0997 3.76862C21.578 4.04476 22.1896 3.88088 22.4657 3.40259C22.7419 2.9243 22.578 2.31271 22.0997 2.03657C20.4856 1.10466 18.492 1.42557 17.2448 2.6976L17.1355 2.63449C16.1789 2.08221 14.9557 2.40996 14.4034 3.36654L13.9034 4.23257C13.8187 4.37928 13.7547 4.53226 13.7105 4.68813C10.0467 3.9795 6.17792 5.6136 4.20727 9.02687C1.72199 13.3315 3.19687 18.8358 7.5015 21.3211C11.8061 23.8064 17.3104 22.3315 19.7957 18.0269C21.7664 14.6136 21.2471 10.446 18.8015 7.62741C18.9144 7.51119 19.0149 7.37927 19.0996 7.23257L19.5996 6.36655C20.1081 5.48577 19.8705 4.37897 19.083 3.77797ZM10.4629 10.0366C11.0152 10.0366 11.4629 10.5589 11.4629 11.2032V16.2032C11.4629 16.8476 11.0152 17.3699 10.4629 17.3699C9.91061 17.3699 9.46289 16.8476 9.46289 16.2032V11.2032C9.46289 10.5589 9.91061 10.0366 10.4629 10.0366ZM7.46289 12.0365C8.01517 12.0365 8.46289 12.5588 8.46289 13.2032V14.3698C8.46289 15.0142 8.01517 15.5365 7.46289 15.5365C6.91061 15.5365 6.46289 15.0142 6.46289 14.3698L6.46289 13.2032C6.46289 12.5588 6.91061 12.0365 7.46289 12.0365ZM16.4629 11.0366C17.0152 11.0366 17.4629 11.5589 17.4629 12.2032L17.4629 15.5366C17.4629 16.1809 17.0152 16.7032 16.4629 16.7032C15.9106 16.7032 15.4629 16.1809 15.4629 15.5366L15.4629 12.2032C15.4629 11.5589 15.9106 11.0366 16.4629 11.0366ZM13.4629 8.03658C14.0152 8.03658 14.4629 8.55892 14.4629 9.20325L14.4629 18.2035C14.4629 18.8478 14.0152 19.3702 13.4629 19.3702C12.9106 19.3702 12.4629 18.8478 12.4629 18.2035L12.4629 9.20325C12.4629 8.55891 12.9106 8.03658 13.4629 8.03658Z" fill="black"/>
</svg>
