<svg width="16" height="16" viewBox="0 0 16 16" fill="none" xmlns="http://www.w3.org/2000/svg">
<path fill-rule="evenodd" clip-rule="evenodd" d="M8.07389 14.6666C7.7057 14.6666 7.40723 14.3681 7.40723 14L7.40723 1.99996C7.40723 1.63177 7.7057 1.33329 8.07389 1.33329C8.44208 1.33329 8.74056 1.63177 8.74056 1.99996L8.74056 14C8.74056 14.3681 8.44208 14.6666 8.07389 14.6666Z" fill="black"/>
<path fill-rule="evenodd" clip-rule="evenodd" d="M1.33301 8.07402C1.33301 7.70583 1.63148 7.40735 1.99967 7.40735L13.9997 7.40735C14.3679 7.40735 14.6663 7.70583 14.6663 8.07402C14.6663 8.44221 14.3679 8.74068 13.9997 8.74068L1.99967 8.74068C1.63148 8.74068 1.33301 8.44221 1.33301 8.07402Z" fill="black"/>
</svg>
