<svg width="128" height="128" viewBox="0 0 128 128" fill="none" xmlns="http://www.w3.org/2000/svg">
<path d="M112.046 64.6291H15.954C15.0514 64.6291 14.3193 63.8992 14.3193 62.9994C14.3193 62.0995 15.0514 61.3696 15.954 61.3696H112.046C112.949 61.3696 113.681 62.0995 113.681 62.9994C113.681 63.8992 112.949 64.6291 112.046 64.6291Z" fill="black"/>
<path d="M14.9604 43.1968C13.878 43.1968 13 42.3214 13 41.2423V22.775C13 16.8334 17.8361 12 23.7791 12H42.2444C43.3268 12 44.2048 12.8754 44.2048 13.9545C44.2048 15.0337 43.3268 15.9091 42.2444 15.9091H23.7791C19.9973 15.9091 16.9219 18.9881 16.9219 22.7738V41.2423C16.9219 42.3214 16.0439 43.1968 14.9604 43.1968Z" fill="black"/>
<path d="M42.2444 114H23.7791C17.8361 114 13 109.167 13 103.225V84.7565C13 83.6762 13.878 82.802 14.9604 82.802C16.0439 82.802 16.9207 83.6774 16.9207 84.7565V103.225C16.9207 107.011 19.9973 110.09 23.778 110.09H42.2433C43.3256 110.09 44.2036 110.965 44.2036 112.044C44.206 113.125 43.328 114 42.2444 114Z" fill="black"/>
<path d="M113.04 43.1968C111.956 43.1968 111.079 42.3214 111.079 41.2423V22.775C111.079 18.9893 108.003 15.9102 104.222 15.9102H85.7543C84.6708 15.9102 83.7939 15.0348 83.7939 13.9557C83.7939 12.8766 84.6708 12 85.7543 12H104.221C110.165 12 115 16.8334 115 22.775V41.2423C115 42.3214 114.122 43.1968 113.04 43.1968Z" fill="black"/>
<path d="M104.221 114H85.7543C84.6708 114 83.7939 113.125 83.7939 112.045C83.7939 110.966 84.672 110.091 85.7543 110.091H104.221C108.003 110.091 111.078 107.012 111.078 103.226V84.7565C111.078 83.6762 111.956 82.802 113.038 82.802C114.121 82.802 114.999 83.6774 114.999 84.7565V103.225C115 109.167 110.165 114 104.221 114Z" fill="black"/>
<path fill-rule="evenodd" clip-rule="evenodd" d="M27.777 58.0613V34.3031C27.777 33.7967 27.3672 33.3881 26.8593 33.3881C26.606 33.3881 26.3759 33.4906 26.2101 33.657C26.0432 33.8212 25.9404 34.0505 25.9404 34.3031V58.0613H27.777ZM36.032 58.0613V34.3031C36.032 33.7967 35.6198 33.3881 35.1131 33.3881H33.3547C32.848 33.3881 32.437 33.7979 32.437 34.3031V58.0613H36.032ZM41.3408 34.3031V58.0613H39.5054V34.3031C39.5054 34.0505 39.6081 33.8212 39.7727 33.657C39.9397 33.4906 40.1686 33.3881 40.4219 33.3881C40.931 33.3881 41.3408 33.7967 41.3408 34.3031ZM44.2853 58.0613V34.3031C44.2853 33.7967 43.8732 33.3881 43.3665 33.3881C43.1131 33.3881 42.8831 33.4906 42.7184 33.657C42.5503 33.8212 42.4487 34.0505 42.4487 34.3031V58.0613H44.2853ZM54.2976 34.3031V58.0613H50.7026V34.3031C50.7026 33.7979 51.1136 33.3881 51.6204 33.3881H53.3787C53.8855 33.3881 54.2976 33.7967 54.2976 34.3031ZM58.4224 58.0613V34.3031C58.4224 33.7967 58.0125 33.3881 57.5046 33.3881C57.2513 33.3881 57.0213 33.4906 56.8566 33.657C56.6885 33.8212 56.5869 34.0505 56.5869 34.3031V58.0613H58.4224ZM66.6775 34.3031V58.0613H63.0825V34.3031C63.0825 33.7979 63.4947 33.3881 64.0014 33.3881H65.7598C66.2665 33.3881 66.6775 33.7967 66.6775 34.3031ZM73.1725 58.0613V34.3031C73.1725 33.7967 72.7604 33.3881 72.2537 33.3881C72.0003 33.3881 71.7703 33.4906 71.6056 33.657C71.4375 33.8212 71.3359 34.0505 71.3359 34.3031V58.0613H73.1725ZM77.3 34.3031V58.0613H75.4634V34.3031C75.4634 34.0505 75.5661 33.8212 75.7319 33.657C75.8989 33.4906 76.1277 33.3881 76.3811 33.3881C76.8878 33.3881 77.3 33.7967 77.3 34.3031ZM82.6089 58.0613V34.3031C82.6089 33.7967 82.1991 33.3881 81.6912 33.3881C81.4378 33.3881 81.2078 33.4906 81.0431 33.657C80.875 33.8212 80.7734 34.0505 80.7734 34.3031V58.0613H82.6089ZM85.5527 34.3031V58.0613H83.7173V34.3031C83.7173 34.0505 83.82 33.8212 83.9858 33.657C84.1528 33.4906 84.3816 33.3881 84.635 33.3881C85.1417 33.3881 85.5527 33.7967 85.5527 34.3031ZM93.8063 58.0613V34.3031C93.8063 33.7967 93.3953 33.3881 92.8886 33.3881H91.8401C91.3334 33.3881 90.9224 33.7979 90.9224 34.3031V58.0613H93.8063ZM97.9333 34.3031V58.0613H96.0967V34.3031C96.0967 34.0505 96.1994 33.8212 96.3664 33.657C96.5322 33.4906 96.7622 33.3881 97.0156 33.3881C97.5223 33.3881 97.9333 33.7967 97.9333 34.3031ZM102.06 58.0613V34.3031C102.06 33.7967 101.65 33.3881 101.142 33.3881C100.889 33.3881 100.659 33.4906 100.493 33.657C100.326 33.8212 100.223 34.0505 100.223 34.3031V58.0613H102.06Z" fill="black"/>
<path fill-rule="evenodd" clip-rule="evenodd" d="M27.777 67.9364H25.9404V91.6969C25.9404 92.201 26.3526 92.6119 26.8593 92.6119C27.366 92.6119 27.777 92.201 27.777 91.6969V67.9364ZM36.032 67.9364H32.437V91.6969C32.437 92.201 32.848 92.6119 33.3547 92.6119H35.1131C35.6198 92.6119 36.032 92.201 36.032 91.6969V67.9364ZM39.5054 67.9364H41.3408V91.6969C41.3408 92.201 40.9298 92.6119 40.4231 92.6119C39.9164 92.6119 39.5054 92.201 39.5054 91.6969V67.9364ZM44.2853 67.9364H42.4487V91.6969C42.4487 92.201 42.8597 92.6119 43.3665 92.6119C43.8732 92.6119 44.2853 92.201 44.2853 91.6969V67.9364ZM50.7026 67.9364H54.2976V91.6969C54.2976 92.201 53.8855 92.6119 53.3787 92.6119H51.6204C51.1136 92.6119 50.7026 92.201 50.7026 91.6969V67.9364ZM58.4224 67.9364H56.5869V91.6969C56.5869 92.201 56.9979 92.6119 57.5046 92.6119C58.0114 92.6119 58.4224 92.201 58.4224 91.6969V67.9364ZM63.0825 67.9364H66.6775V91.6969C66.6775 92.201 66.2665 92.6119 65.7598 92.6119H64.0014C63.4947 92.6119 63.0825 92.201 63.0825 91.6969V67.9364ZM73.1725 67.9364H71.3359V91.6969C71.3359 92.201 71.7469 92.6119 72.2537 92.6119C72.7604 92.6119 73.1725 92.201 73.1725 91.6969V67.9364ZM75.4624 67.9364H77.299V91.6969C77.299 92.201 76.8868 92.6119 76.3801 92.6119C75.8734 92.6119 75.4624 92.201 75.4624 91.6969V67.9364ZM82.6104 67.9364H80.7749V91.6969C80.7749 92.201 81.1859 92.6119 81.6926 92.6119C82.1994 92.6119 82.6104 92.201 82.6104 91.6969V67.9364ZM83.7173 67.9364H85.5527V91.6969C85.5527 92.201 85.1417 92.6119 84.635 92.6119C84.1283 92.6119 83.7173 92.201 83.7173 91.6969V67.9364ZM93.8063 67.9364H90.9224V91.6969C90.9224 92.201 91.3334 92.6119 91.8401 92.6119H92.8886C93.3953 92.6119 93.8063 92.201 93.8063 91.6969V67.9364ZM96.0967 67.9364H97.9333V91.6969C97.9333 92.201 97.5223 92.6119 97.0156 92.6119C96.5088 92.6119 96.0967 92.201 96.0967 91.6969V67.9364ZM102.06 67.9364H100.224V91.6969C100.224 92.201 100.636 92.6119 101.143 92.6119C101.397 92.6119 101.625 92.5083 101.792 92.343C101.957 92.1777 102.06 91.9484 102.06 91.6969V67.9364Z" fill="black"/>
</svg>
