<svg width="16" height="17" viewBox="0 0 16 17" fill="none" xmlns="http://www.w3.org/2000/svg">
<path d="M3.96919 6.32945H2.00016C1.63197 6.32945 1.3335 6.62825 1.3335 6.99684V10.3338C1.3335 10.7024 1.63197 11.0012 2.00016 11.0012H3.96926L7.72493 14.3297C8.15516 14.7109 8.8335 14.4052 8.8335 13.8299V3.50067C8.8335 2.92545 8.15516 2.61967 7.72493 3.00096L3.96919 6.32945Z" fill="black"/>
<path fill-rule="evenodd" clip-rule="evenodd" d="M14.2003 6.96983C14.4581 7.22785 14.4581 7.64617 14.2003 7.90419L11.4003 10.7073C11.1426 10.9653 10.7247 10.9653 10.467 10.7073C10.2093 10.4492 10.2093 10.0309 10.467 9.7729L13.267 6.96983C13.5247 6.71182 13.9426 6.71182 14.2003 6.96983Z" fill="black"/>
<path fill-rule="evenodd" clip-rule="evenodd" d="M14.2001 10.7073C13.9423 10.9653 13.5245 10.9653 13.2667 10.7073L10.4667 7.90426C10.209 7.64624 10.209 7.22792 10.4667 6.9699C10.7245 6.71189 11.1423 6.71189 11.4001 6.9699L14.2001 9.77297C14.4578 10.031 14.4578 10.4493 14.2001 10.7073Z" fill="black"/>
</svg>
