<svg width="24" height="24" viewBox="0 0 24 24" fill="none" xmlns="http://www.w3.org/2000/svg">
<path fill-rule="evenodd" clip-rule="evenodd" d="M6 12C6 8.68629 8.68629 6 12 6C14.0603 6 15.8797 7.03869 16.9604 8.62302L16.6203 8.51275C16.1019 8.34465 15.5505 8.64533 15.3888 9.18433C15.2271 9.72333 15.5164 10.2965 16.0348 10.4646L18.6899 11.3255C19.2083 11.4936 19.7597 11.1929 19.9214 10.6539L20.7494 7.89354C20.9111 7.35454 20.6219 6.78133 20.1034 6.61323C19.585 6.44514 19.0336 6.74581 18.872 7.28481L18.7473 7.70041C17.3272 5.47635 14.8368 4 12 4C7.58172 4 4 7.58172 4 12C4 16.4183 7.58172 20 12 20C14.9624 20 17.5474 18.3893 18.9291 16.0007C19.2057 15.5227 19.0423 14.9109 18.5643 14.6344C18.0862 14.3579 17.4745 14.5212 17.1979 14.9993C16.159 16.7953 14.2196 18 12 18C8.68629 18 6 15.3137 6 12Z" fill="black"/>
</svg>
