<svg width="16" height="16" viewBox="0 0 16 16" fill="none" xmlns="http://www.w3.org/2000/svg">
<path fill-rule="evenodd" clip-rule="evenodd" d="M9.52859 11.8047C9.26825 11.5444 9.26825 11.1223 9.5286 10.8619L12.3905 8L9.5286 5.13807C9.26825 4.87772 9.26825 4.45561 9.5286 4.19526C9.78894 3.93491 10.2111 3.93491 10.4714 4.19526L13.8047 7.52859C13.9298 7.65362 14 7.82319 14 8C14 8.17681 13.9298 8.34638 13.8047 8.4714L10.4714 11.8047C10.2111 12.0651 9.78894 12.0651 9.52859 11.8047Z" fill="black"/>
<path fill-rule="evenodd" clip-rule="evenodd" d="M2 8.00001C2 7.63182 2.29848 7.33334 2.66667 7.33334L12 7.33334C12.3682 7.33334 12.6667 7.63182 12.6667 8.00001C12.6667 8.3682 12.3682 8.66668 12 8.66668L2.66667 8.66668C2.29848 8.66668 2 8.3682 2 8.00001Z" fill="black"/>
</svg>
