<svg width="16" height="16" viewBox="0 0 16 16" fill="none" xmlns="http://www.w3.org/2000/svg">
<circle cx="13.0841" cy="10.2702" r="0.666667" fill="black"/>
<circle cx="13.7511" cy="12.2702" r="0.666667" fill="black"/>
<circle cx="11.7511" cy="12.2702" r="0.666667" fill="black"/>
<path fill-rule="evenodd" clip-rule="evenodd" d="M11.9984 2.29289C12.389 1.90237 13.0221 1.90237 13.4126 2.29289C13.8032 2.68342 13.8032 3.31658 13.4126 3.70711L10.8201 6.29968L11.7499 7.22948C12.175 7.65464 12.263 8.31176 11.9647 8.83381L11.4414 9.74959L5.95632 4.26449L5.35635 4.60733L11.0986 10.3496L9.56485 13.0336C9.12866 13.7969 8.08605 13.9365 7.46439 13.3149L7.04919 12.8997L8.69903 11.2498C8.82921 11.1197 8.82921 10.9086 8.69903 10.7784C8.56886 10.6483 8.3578 10.6483 8.22763 10.7784L6.57779 12.4283L5.16357 11.0141L6.81342 9.36423C6.94359 9.23405 6.94359 9.023 6.81342 8.89282C6.68324 8.76265 6.47219 8.76265 6.34201 8.89282L4.69217 10.5427L3.27795 9.12845L4.9278 7.47861C5.05797 7.34843 5.05797 7.13738 4.9278 7.0072C4.79762 6.87703 4.58657 6.87703 4.45639 7.0072L2.80655 8.65705L2.39066 8.24116C1.769 7.61949 1.90862 6.57688 2.67195 6.14069L6.87174 3.74081C7.39378 3.4425 8.0509 3.5305 8.47606 3.95566L9.40587 4.88546L11.9984 2.29289ZM2.80655 8.65705L2.80648 8.65712L3.27788 9.12852L3.27795 9.12845L2.80655 8.65705ZM4.69217 10.5427L4.6921 10.5427L5.1635 11.0141L5.16357 11.0141L4.69217 10.5427ZM6.57779 12.4283L6.57771 12.4284L7.04912 12.8998L7.04919 12.8997L6.57779 12.4283ZM11.0986 10.3496L11.0989 10.3499L11.4418 9.74992L11.4414 9.74959L11.0986 10.3496Z" fill="black"/>
</svg>
