<svg width="24" height="24" viewBox="0 0 24 24" fill="none" xmlns="http://www.w3.org/2000/svg">
<path fill-rule="evenodd" clip-rule="evenodd" d="M4.88016 19.2727C4.48251 18.871 4.48251 18.2198 4.88016 17.8181L17.8402 4.72727C18.2378 4.32561 18.8825 4.32561 19.2802 4.72727C19.6778 5.12893 19.6778 5.78015 19.2802 6.18181L6.32016 19.2727C5.92251 19.6743 5.2778 19.6743 4.88016 19.2727Z" fill="black"/>
<path fill-rule="evenodd" clip-rule="evenodd" d="M4.71994 4.72727C5.11759 4.32561 5.7623 4.32561 6.15994 4.72727L19.1199 17.8181C19.5176 18.2198 19.5176 18.871 19.1199 19.2727C18.7223 19.6743 18.0776 19.6743 17.6799 19.2727L4.71994 6.18181C4.3223 5.78015 4.3223 5.12893 4.71994 4.72727Z" fill="black"/>
</svg>
