<svg width="24" height="24" viewBox="0 0 24 24" fill="none" xmlns="http://www.w3.org/2000/svg">
<path fill-rule="evenodd" clip-rule="evenodd" d="M2 4C2 3.44772 2.44772 3 3 3H17C17.5523 3 18 3.44772 18 4V18C18 18.565 18.435 19 19 19C19.565 19 20 18.565 20 18V8C20 7.44772 20.4477 7 21 7C21.5523 7 22 7.44771 22 8V18C22 19.645 20.645 21 19 21H5C3.35503 21 2 19.645 2 18V4ZM6 12C6 11.4477 6.44772 11 7 11H13C13.5523 11 14 11.4477 14 12C14 12.5523 13.5523 13 13 13H7C6.44772 13 6 12.5523 6 12ZM7 7C6.44772 7 6 7.44772 6 8C6 8.55228 6.44772 9 7 9H13C13.5523 9 14 8.55228 14 8C14 7.44772 13.5523 7 13 7H7ZM6 16C6 15.4477 6.44772 15 7 15H13C13.5523 15 14 15.4477 14 16C14 16.5523 13.5523 17 13 17H7C6.44772 17 6 16.5523 6 16Z" fill="black"/>
</svg>
