<svg width="32" height="32" viewBox="0 0 32 32" fill="none" xmlns="http://www.w3.org/2000/svg">
<path fill-rule="evenodd" clip-rule="evenodd" d="M14.5667 1.59066C14.8214 1.02799 15.3827 0.666656 16.0001 0.666656C16.6174 0.666656 17.1787 1.02799 17.4334 1.59066L18.9894 5.02799C19.2094 5.51466 19.6067 5.89866 20.1001 6.10266C20.5934 6.30666 21.1454 6.31599 21.6454 6.12799L25.1761 4.79866C25.7547 4.58132 26.4067 4.72132 26.8427 5.15866C27.2801 5.59599 27.4201 6.24799 27.2027 6.82532L25.8734 10.356C25.6854 10.856 25.6947 11.408 25.8987 11.9013C26.1027 12.3947 26.4867 12.7907 26.9734 13.012L30.4107 14.568C30.9721 14.8213 31.3334 15.3827 31.3334 16C31.3334 16.6173 30.9721 17.1787 30.4094 17.4333L26.9721 18.9893C26.4854 19.2093 26.1014 19.6067 25.8974 20.1C25.6934 20.5933 25.6841 21.1453 25.8721 21.6453L27.2014 25.176C27.4187 25.7547 27.2787 26.4067 26.8414 26.8427C26.4041 27.28 25.7521 27.42 25.1747 27.2027L21.6441 25.8733C21.1441 25.6853 20.5921 25.6947 20.0987 25.8987C19.6054 26.1027 19.2094 26.4867 18.9881 26.9733L17.4321 30.4107C17.1787 30.972 16.6174 31.3333 16.0001 31.3333C15.3827 31.3333 14.8214 30.972 14.5667 30.4093L13.0107 26.972C12.7907 26.4853 12.3934 26.1013 11.9001 25.8973C11.4067 25.6933 10.8547 25.684 10.3547 25.872L6.82408 27.2013C6.24541 27.4187 5.59341 27.2787 5.15741 26.8413C4.72142 26.404 4.58008 25.752 4.79741 25.1747L6.12675 21.644C6.31475 21.144 6.30542 20.592 6.10142 20.0987C5.89742 19.6053 5.51341 19.2093 5.02675 18.988L1.58941 17.432C1.02808 17.1787 0.666748 16.6173 0.666748 16C0.666748 15.3827 1.02808 14.8213 1.59075 14.5667L5.02808 13.0107C5.51475 12.7907 5.89875 12.3933 6.10275 11.9C6.30675 11.4067 6.31608 10.8547 6.12808 10.3547L4.79741 6.82399C4.58008 6.24532 4.72008 5.59332 5.15741 5.15732C5.59475 4.71999 6.24675 4.57999 6.82408 4.79732L10.3547 6.12666C10.8547 6.31599 11.4067 6.30666 11.9001 6.10266C12.3934 5.89866 12.7894 5.51466 13.0107 5.02799L14.5667 1.59066Z" fill="#F0B902"/>
<path opacity="0.5" d="M24.6668 16C24.6668 20.7857 20.7859 24.6666 16.0002 24.6666C11.2144 24.6666 7.3335 20.7857 7.3335 16C7.3335 11.2142 11.2144 7.33331 16.0002 7.33331C20.7859 7.33331 24.6668 11.216 24.6668 16Z" fill="white"/>
</svg>
