<svg width="24" height="24" viewBox="0 0 24 24" fill="none" xmlns="http://www.w3.org/2000/svg">
<path d="M9.125 16.5C7.41667 16.5 6 15.0833 6 13.375C6 11.6667 7.41667 10.25 9.125 10.25C10.8333 10.25 12.25 11.6667 12.25 13.375C12.25 15.0833 10.8333 16.5 9.125 16.5ZM9.125 11.9167C8.33333 11.9167 7.66667 12.5833 7.66667 13.375C7.66667 14.1667 8.33333 14.8333 9.125 14.8333C9.91667 14.8333 10.5833 14.1667 10.5833 13.375C10.5833 12.5833 9.91667 11.9167 9.125 11.9167ZM16.0417 19C14.375 19 13.0833 17.6667 13.0833 15.9583H14.75C14.75 16.75 15.2917 17.3333 16.0417 17.3333C16.5 17.3333 17.125 16.9583 17.375 16.5L18.8333 17.3333C18.25 18.3333 17.125 19 16.0417 19Z" fill="#00A3C7"/>
<path d="M13.9167 16.7917C13.4583 16.7917 13.0833 16.4167 13.0833 15.9583C13.0833 14.5 14.0417 13.3333 14.9583 12.25C15.9167 11.0833 16.8333 10 16.8333 8.45833C16.8333 6.91667 15.5833 5.66667 14.0833 5.66667C12.5833 5.66667 11.4167 6.875 11.4167 8.45833C11.4167 9.70833 11.625 10.375 11.8333 11.0833C12.0417 11.7917 12.25 12.5 12.25 13.5833C12.25 14.0417 11.875 14.4167 11.4167 14.4167C10.9583 14.4167 10.5833 14.0417 10.5833 13.5833C10.5833 12.7083 10.4167 12.1667 10.25 11.5417C10.0417 10.7917 9.75 9.91667 9.75 8.41667C9.75 5.95833 11.6667 4 14.0833 4C16.5417 4 18.5 6 18.5 8.45833C18.5 10.625 17.2917 12.0417 16.2083 13.3333C15.4167 14.2917 14.75 15.0833 14.75 15.9583C14.75 16.4167 14.375 16.7917 13.9167 16.7917Z" fill="#00A3C7"/>
<path d="M12.25 13.2083C12.25 13.1666 12.25 13.1666 12.25 13.2083C12.25 13.125 12.25 13.0833 12.25 13.0416C12.25 13.0416 12.25 13.0416 12.25 13C12.25 13.1666 12.25 13.2916 12.2917 13.4583C12.25 13.375 12.25 13.25 12.25 13.2083ZM12.2083 13.7916C12.2083 13.7083 12.25 13.6666 12.25 13.5833C12.25 13.5416 12.25 13.5 12.25 13.4583C12.25 13.5833 12.25 13.6666 12.2083 13.7916ZM9.75 9.08331C9.79167 9.58331 9.83333 9.99998 9.91667 10.375C11.125 10.7083 12.0417 11.75 12.2083 13C12.0833 11.2083 11.3333 9.45831 9.75 9.08331ZM16.0417 17.3333C15.2917 17.3333 14.75 16.75 14.75 15.9583C14.75 15.5833 14.875 15.2083 15.0833 14.8333C14.625 15.3333 14.3333 16 14.3333 16.7083C14.3333 17.625 14.7917 18.4583 15.5417 18.9583C15.7083 19 15.875 19 16.0417 19C17.1667 19 18.2917 18.25 18.8333 17.3333L17.375 16.5C17.125 16.9166 16.5833 17.3333 16.0417 17.3333Z" fill="#005967"/>
</svg>
