<svg width="48" height="48" viewBox="0 0 48 48" fill="none" xmlns="http://www.w3.org/2000/svg">
<path fill-rule="evenodd" clip-rule="evenodd" d="M22.5369 17C19.4844 17 17.0099 19.4624 17.0099 22.5C17.0099 25.5376 19.4844 28 22.5369 28C25.5895 28 28.064 25.5376 28.064 22.5C28.064 19.4624 25.5895 17 22.5369 17ZM15 22.5C15 18.3579 18.3744 15 22.5369 15C26.6995 15 30.0739 18.3579 30.0739 22.5C30.0739 26.6421 26.6995 30 22.5369 30C18.3744 30 15 26.6421 15 22.5Z" fill="black"/>
<path fill-rule="evenodd" clip-rule="evenodd" d="M26.2894 26.7071C26.6819 26.3166 27.4097 26.4077 27.9151 26.9107L31.9088 30.8847C32.4142 31.3877 32.5058 32.112 32.1133 32.5025C31.7209 32.893 30.993 32.8019 30.4876 32.2989L26.494 28.3249C25.9885 27.8219 25.897 27.0976 26.2894 26.7071Z" fill="black"/>
</svg>
