<svg width="24" height="24" viewBox="0 0 24 24" fill="none" xmlns="http://www.w3.org/2000/svg">
<path d="M4.99996 7.28257C4.05396 8.22757 2.82596 8.70457 1.58796 8.72857C0.889959 8.74157 0.475959 9.49757 0.860959 10.0796C1.27296 10.7026 1.84496 11.2516 2.60196 11.6656C4.23696 12.5596 6.29996 12.4766 7.82796 11.4096C10.464 9.56857 10.699 5.91257 8.53396 3.74757C8.30696 3.52057 8.06396 3.32357 7.80796 3.15257C7.22096 2.76157 6.45796 3.16557 6.44496 3.87057C6.42296 5.10757 5.94596 6.33557 4.99996 7.28257Z" fill="#F0B902"/>
<path d="M19.483 9.46959C18.345 6.43859 15.429 4.27759 12 4.27759C7.888 4.27759 4.504 7.38159 4.055 11.3726C1.746 11.8156 0 13.8396 0 16.2776C0 19.0386 2.239 21.2776 5 21.2776H18C21.314 21.2776 24 18.5916 24 15.2776C24 12.4766 22.078 10.1316 19.483 9.46959Z" fill="#BDCFED"/>
</svg>
