<svg width="16" height="17" viewBox="0 0 16 17" fill="none" xmlns="http://www.w3.org/2000/svg">
<path fill-rule="evenodd" clip-rule="evenodd" d="M0.650858 4.09752C0.96443 3.90456 1.37506 4.00233 1.56803 4.3159L2.90136 6.48256C3.03322 6.69684 3.03322 6.96709 2.90136 7.18136L1.78304 8.99863L2.90136 10.8159C3.03322 11.0302 3.03322 11.3004 2.90136 11.5147L1.56803 13.6814C1.37506 13.9949 0.96443 14.0927 0.650858 13.8997C0.337286 13.7068 0.239517 13.2961 0.432484 12.9826L1.5508 11.1653L0.432484 9.34803C0.300625 9.13376 0.300625 8.8635 0.432484 8.64923L1.5508 6.83196L0.432484 5.01469C0.239517 4.70112 0.337286 4.29049 0.650858 4.09752Z" fill="black"/>
<path fill-rule="evenodd" clip-rule="evenodd" d="M15.3496 4.09752C15.0361 3.90456 14.6254 4.00233 14.4325 4.3159L13.0991 6.48256C12.9673 6.69684 12.9673 6.96709 13.0991 7.18136L14.2174 8.99863L13.0991 10.8159C12.9673 11.0302 12.9673 11.3004 13.0991 11.5147L14.4325 13.6814C14.6254 13.9949 15.0361 14.0927 15.3496 13.8997C15.6632 13.7068 15.761 13.2961 15.568 12.9826L14.4497 11.1653L15.568 9.34803C15.6999 9.13376 15.6999 8.8635 15.568 8.64923L14.4497 6.83196L15.568 5.01469C15.761 4.70112 15.6632 4.29049 15.3496 4.09752Z" fill="black"/>
<path fill-rule="evenodd" clip-rule="evenodd" d="M5.00033 1.99866C4.26395 1.99866 3.66699 2.59561 3.66699 3.33199V13.9987C3.66699 14.735 4.26395 15.332 5.00033 15.332H11.0003C11.7367 15.332 12.3337 14.735 12.3337 13.9987V3.33199C12.3337 2.59561 11.7367 1.99866 11.0003 1.99866H5.00033ZM7.00033 4.66541C7.00033 5.0336 6.70185 5.33207 6.33366 5.33207C5.96547 5.33207 5.66699 5.0336 5.66699 4.66541C5.66699 4.29722 5.96547 3.99874 6.33366 3.99874C6.70185 3.99874 7.00033 4.29722 7.00033 4.66541ZM8.33366 3.99874C7.96547 3.99874 7.66699 4.29722 7.66699 4.66541C7.66699 5.0336 7.96547 5.33207 8.33366 5.33207H9.66699C10.0352 5.33207 10.3337 5.0336 10.3337 4.66541C10.3337 4.29722 10.0352 3.99874 9.66699 3.99874H8.33366Z" fill="black"/>
</svg>
