<svg width="24" height="24" viewBox="0 0 24 24" fill="none" xmlns="http://www.w3.org/2000/svg">
<path fill-rule="evenodd" clip-rule="evenodd" d="M22 12C22 17.5228 17.5228 22 12 22C6.47715 22 2 17.5228 2 12C2 6.47715 6.47715 2 12 2C17.5228 2 22 6.47715 22 12ZM17.2132 10.201C17.6003 9.80714 17.5949 9.17399 17.201 8.78684C16.8071 8.39969 16.174 8.40513 15.7868 8.799L11.0932 13.574L8.71265 11.1556C8.32522 10.762 7.69207 10.7571 7.29848 11.1445C6.9049 11.5319 6.89991 12.1651 7.28735 12.5587L10.3811 15.7015C10.5692 15.8926 10.826 16.0001 11.0941 16C11.3622 15.9999 11.619 15.8922 11.8069 15.701L17.2132 10.201Z" fill="black"/>
</svg>
