<svg width="48" height="48" viewBox="0 0 48 48" fill="none" xmlns="http://www.w3.org/2000/svg">
<path fill-rule="evenodd" clip-rule="evenodd" d="M18 18C17.4477 18 17 18.4477 17 19V30C17 30.5523 17.4477 31 18 31H29C29.5523 31 30 30.5523 30 30V25C30 24.4477 30.4477 24 31 24C31.5523 24 32 24.4477 32 25V30C32 31.6569 30.6569 33 29 33H18C16.3431 33 15 31.6569 15 30V19C15 17.3432 16.3431 16 18 16H23C23.5523 16 24 16.4477 24 17C24 17.5523 23.5523 18 23 18H18Z" fill="black"/>
<path fill-rule="evenodd" clip-rule="evenodd" d="M24.293 23.8284C23.9025 23.4379 23.9025 22.8047 24.293 22.4142L28.8788 17.8284C29.2694 17.4379 29.9025 17.4379 30.293 17.8284C30.6836 18.2189 30.6836 18.8521 30.293 19.2426L25.7073 23.8284C25.3167 24.2189 24.6836 24.2189 24.293 23.8284Z" fill="black"/>
<path d="M30.9999 15.7071C31.3904 15.3166 32.0236 15.3166 32.4141 15.7071C32.8047 16.0976 32.8047 16.7308 32.4141 17.1213C32.0236 17.5118 31.3904 17.5118 30.9999 17.1213C30.6094 16.7308 30.6094 16.0976 30.9999 15.7071Z" fill="black"/>
</svg>
