<svg width="16" height="17" viewBox="0 0 16 17" fill="none" xmlns="http://www.w3.org/2000/svg">
<path fill-rule="evenodd" clip-rule="evenodd" d="M5.99984 14.6653C7.84079 14.6653 9.33317 13.1729 9.33317 11.3319C9.33317 9.49098 7.84079 7.9986 5.99984 7.9986C4.15889 7.9986 2.6665 9.49098 2.6665 11.3319C2.6665 13.1729 4.15889 14.6653 5.99984 14.6653Z" fill="black"/>
<path fill-rule="evenodd" clip-rule="evenodd" d="M8 3.33195C8 2.96376 8.29848 2.66528 8.66667 2.66528C11.6122 2.66528 14 5.0531 14 7.99862C14 8.36681 13.7015 8.66528 13.3333 8.66528C12.9651 8.66528 12.6667 8.36681 12.6667 7.99862C12.6667 5.78948 10.8758 3.99862 8.66667 3.99862C8.29848 3.99862 8 3.70014 8 3.33195Z" fill="black"/>
<path fill-rule="evenodd" clip-rule="evenodd" d="M8.66634 2.66528C9.03453 2.66528 9.33301 2.96376 9.33301 3.33195V11.3319C9.33301 11.7001 9.03453 11.9986 8.66634 11.9986C8.29815 11.9986 7.99967 11.7001 7.99967 11.3319V3.33195C7.99967 2.96376 8.29815 2.66528 8.66634 2.66528Z" fill="black"/>
</svg>
