<svg width="48" height="48" viewBox="0 0 48 48" fill="none" xmlns="http://www.w3.org/2000/svg">
<path d="M17.9535 20.2462H15C14.4477 20.2462 14 20.6944 14 21.2473V26.2528C14 26.8057 14.4477 27.2539 15 27.2539H17.9537L23.5872 32.2465C24.2325 32.8185 25.25 32.3598 25.25 31.4969V16.0031C25.25 15.1402 24.2325 14.6815 23.5872 15.2535L17.9535 20.2462Z" fill="black"/>
<path fill-rule="evenodd" clip-rule="evenodd" d="M33.3 21.2069C33.6866 21.5939 33.6866 22.2214 33.3 22.6084L29.1 26.813C28.7134 27.2 28.0866 27.2 27.7 26.813C27.3134 26.426 27.3134 25.7985 27.7 25.4115L31.9 21.2069C32.2866 20.8199 32.9134 20.8199 33.3 21.2069Z" fill="black"/>
<path fill-rule="evenodd" clip-rule="evenodd" d="M33.3001 26.813C32.9135 27.2 32.2867 27.2 31.9001 26.813L27.7001 22.6084C27.3135 22.2213 27.3135 21.5939 27.7001 21.2068C28.0867 20.8198 28.7135 20.8198 29.1001 21.2068L33.3001 25.4114C33.6867 25.7985 33.6867 26.4259 33.3001 26.813Z" fill="black"/>
</svg>
