<svg width="16" height="16" viewBox="0 0 16 16" fill="none" xmlns="http://www.w3.org/2000/svg">
<path fill-rule="evenodd" clip-rule="evenodd" d="M14.6668 8C14.6668 11.6819 11.6821 14.6667 8.00016 14.6667C6.8565 14.6667 5.78011 14.3787 4.83953 13.8713L4.82024 13.88C4.52024 14.02 4.20025 14.1134 3.88691 14.1734C3.01358 14.34 2.11358 14.2134 1.33358 13.8267C1.37358 13.82 1.41358 13.8 1.45358 13.78C2.14348 13.4681 2.62824 12.897 2.8447 12.2271C1.90034 11.0767 1.3335 9.60453 1.3335 8C1.3335 4.3181 4.31826 1.33333 8.00016 1.33333C11.6821 1.33333 14.6668 4.3181 14.6668 8ZM8.00024 13C10.7617 13 13.0002 10.7614 13.0002 8.00002C13.0002 5.2386 10.7617 3.00002 8.00024 3.00002C5.23882 3.00002 3.00024 5.2386 3.00024 8.00002C3.00024 10.7614 5.23882 13 8.00024 13Z" fill="black"/>
<path fill-rule="evenodd" clip-rule="evenodd" d="M8.00033 4.37046C7.63214 4.37046 7.33366 4.66894 7.33366 5.03713V7.62263L5.80548 8.53954C5.48976 8.72898 5.38738 9.13848 5.57681 9.4542C5.76624 9.76992 6.17575 9.8723 6.49147 9.68287L8.34332 8.57176C8.54413 8.45127 8.66699 8.23427 8.66699 8.00009V5.03713C8.66699 4.66894 8.36852 4.37046 8.00033 4.37046Z" fill="black"/>
</svg>
