<svg width="24" height="24" viewBox="0 0 24 24" fill="none" xmlns="http://www.w3.org/2000/svg">
<path fill-rule="evenodd" clip-rule="evenodd" d="M14.2258 7.49361C14.4207 7.86827 14.289 8.33765 13.9318 8.54201L7.01243 12.5L13.9318 16.458C14.289 16.6623 14.4207 17.1317 14.2258 17.5064C14.0309 17.881 13.5833 18.0191 13.2261 17.8147L5.12082 13.1784C4.8841 13.043 4.73682 12.7828 4.73682 12.5C4.73682 12.2172 4.8841 11.957 5.12082 11.8216L13.2261 7.18526C13.5833 6.9809 14.0309 7.11896 14.2258 7.49361Z" fill="black"/>
<path d="M18.0002 6.70455C18.0002 8.19822 16.8455 9.40909 15.4212 9.40909C13.9969 9.40909 12.8423 8.19822 12.8423 6.70455C12.8423 5.21087 13.9969 4 15.4212 4C16.8455 4 18.0002 5.21087 18.0002 6.70455Z" fill="black"/>
<path d="M18.0002 18.2955C18.0002 19.7891 16.8455 21 15.4212 21C13.9969 21 12.8423 19.7891 12.8423 18.2955C12.8423 16.8018 13.9969 15.5909 15.4212 15.5909C16.8455 15.5909 18.0002 16.8018 18.0002 18.2955Z" fill="black"/>
<path d="M9.15789 12.5C9.15789 13.9937 8.00326 15.2045 6.57895 15.2045C5.15463 15.2045 4 13.9937 4 12.5C4 11.0063 5.15463 9.79544 6.57895 9.79544C8.00326 9.79544 9.15789 11.0063 9.15789 12.5Z" fill="black"/>
</svg>
