<svg width="24" height="24" viewBox="0 0 24 24" fill="none" xmlns="http://www.w3.org/2000/svg">
<path fill-rule="evenodd" clip-rule="evenodd" d="M14 9.48937C17.7066 9.48937 20.8405 12.2801 21.8471 16.11C22.0202 16.7689 22.6323 17.144 23.2141 16.948C23.7959 16.7519 24.1272 16.0588 23.954 15.3999C22.6777 10.5435 18.7057 7 14 7C9.2943 7 5.32231 10.5435 4.04596 15.3999C3.8728 16.0588 4.20408 16.7519 4.78591 16.948C5.36773 17.144 5.97977 16.7689 6.15293 16.11C7.1595 12.2801 10.2934 9.48937 14 9.48937Z" fill="black"/>
<path fill-rule="evenodd" clip-rule="evenodd" d="M2.45781 11.25C1.8616 11.4407 1.529 12.0908 1.71494 12.702L2.8641 16.48C3.05004 17.0913 3.6841 17.4323 4.28031 17.2417L7.96511 16.0634C8.56132 15.8728 8.89392 15.2227 8.70798 14.6114C8.52204 14.0001 7.88798 13.6591 7.29177 13.8498L4.68651 14.6828L3.87403 12.0117C3.68809 11.4004 3.05403 11.0594 2.45781 11.25Z" fill="black"/>
</svg>
