<svg width="16" height="16" viewBox="0 0 16 16" fill="none" xmlns="http://www.w3.org/2000/svg">
<path fill-rule="evenodd" clip-rule="evenodd" d="M7.02463 3.33333C4.98961 3.33333 3.3399 4.97496 3.3399 7C3.3399 9.02504 4.98961 10.6667 7.02463 10.6667C9.05965 10.6667 10.7094 9.02504 10.7094 7C10.7094 4.97496 9.05965 3.33333 7.02463 3.33333ZM2 7C2 4.23858 4.2496 2 7.02463 2C9.79966 2 12.0493 4.23858 12.0493 7C12.0493 9.76142 9.79966 12 7.02463 12C4.2496 12 2 9.76142 2 7Z" fill="black"/>
<path fill-rule="evenodd" clip-rule="evenodd" d="M9.52627 9.80475C9.78791 9.5444 10.2731 9.60515 10.6101 9.94045L13.2725 12.5898C13.6095 12.9251 13.6705 13.408 13.4089 13.6683C13.1473 13.9287 12.662 13.8679 12.3251 13.5326L9.66264 10.8833C9.3257 10.548 9.26464 10.0651 9.52627 9.80475Z" fill="black"/>
</svg>
