<svg width="16" height="16" viewBox="0 0 16 16" fill="none" xmlns="http://www.w3.org/2000/svg">
<path fill-rule="evenodd" clip-rule="evenodd" d="M1.33301 3.33332C1.33301 2.96513 1.63148 2.66666 1.99967 2.66666L13.9997 2.66666C14.3679 2.66666 14.6663 2.96513 14.6663 3.33332C14.6663 3.70151 14.3679 3.99999 13.9997 3.99999L1.99967 3.99999C1.63148 3.99999 1.33301 3.70151 1.33301 3.33332Z" fill="black"/>
<path fill-rule="evenodd" clip-rule="evenodd" d="M1.33301 12.6667C1.33301 12.2985 1.63148 12 1.99967 12L13.9997 12C14.3679 12 14.6663 12.2985 14.6663 12.6667C14.6663 13.0349 14.3679 13.3333 13.9997 13.3333L1.99967 13.3333C1.63148 13.3333 1.33301 13.0349 1.33301 12.6667Z" fill="black"/>
<path fill-rule="evenodd" clip-rule="evenodd" d="M1.33301 7.99998C1.33301 7.63179 1.63148 7.33331 1.99967 7.33331L13.9997 7.33331C14.3679 7.33331 14.6663 7.63179 14.6663 7.99998C14.6663 8.36817 14.3679 8.66665 13.9997 8.66665L1.99967 8.66665C1.63148 8.66665 1.33301 8.36817 1.33301 7.99998Z" fill="black"/>
</svg>
