<svg width="16" height="17" viewBox="0 0 16 17" fill="none" xmlns="http://www.w3.org/2000/svg">
<path fill-rule="evenodd" clip-rule="evenodd" d="M14.6668 8.66526C14.6668 12.3472 11.6821 15.3319 8.00016 15.3319C4.31826 15.3319 1.3335 12.3472 1.3335 8.66526C1.3335 4.98336 4.31826 1.9986 8.00016 1.9986C11.6821 1.9986 14.6668 4.98336 14.6668 8.66526ZM11.4756 7.46593C11.7337 7.20335 11.7301 6.78126 11.4675 6.52316C11.2049 6.26505 10.7828 6.26868 10.5247 6.53126L7.39565 9.71459L5.8086 8.10235C5.55031 7.83996 5.12821 7.83663 4.86582 8.09492C4.60343 8.35321 4.6001 8.77531 4.85839 9.0377L6.92089 11.1329C7.04627 11.2603 7.21752 11.332 7.39624 11.3319C7.57495 11.3319 7.74616 11.26 7.87144 11.1326L11.4756 7.46593Z" fill="black"/>
</svg>
