<svg width="48" height="48" viewBox="0 0 48 48" fill="none" xmlns="http://www.w3.org/2000/svg">
<path fill-rule="evenodd" clip-rule="evenodd" d="M14.6379 23.068C15.1526 22.8678 15.7322 23.1229 15.9323 23.6376C17.1434 26.7524 20.2849 29 24.0003 29C27.7156 29 30.8572 26.7524 32.0682 23.6376C32.2684 23.1229 32.8479 22.8678 33.3627 23.068C33.8774 23.2681 34.1324 23.8476 33.9323 24.3624C32.4181 28.2569 28.5287 31 24.0003 31C19.4718 31 15.5825 28.2569 14.0682 24.3624C13.8681 23.8476 14.1231 23.2681 14.6379 23.068Z" fill="black"/>
<path fill-rule="evenodd" clip-rule="evenodd" d="M33.3164 24.9487C32.7924 25.1233 32.2261 24.8401 32.0515 24.3162C30.8007 20.5631 27.6197 18 24.0002 18C20.3808 18 17.1997 20.5631 15.9489 24.3162C15.7743 24.8401 15.208 25.1233 14.684 24.9487C14.1601 24.7741 13.8769 24.2078 14.0515 23.6838C15.526 19.2595 19.3759 16 24.0002 16C28.6246 16 32.4744 19.2595 33.9489 23.6838C34.1235 24.2078 33.8403 24.7741 33.3164 24.9487Z" fill="black"/>
<path fill-rule="evenodd" clip-rule="evenodd" d="M24.0005 22C23.1721 22 22.5005 22.6716 22.5005 23.5C22.5005 24.3284 23.1721 25 24.0005 25C24.8289 25 25.5005 24.3284 25.5005 23.5C25.5005 22.6716 24.8289 22 24.0005 22ZM20.5005 23.5C20.5005 21.567 22.0675 20 24.0005 20C25.9335 20 27.5005 21.567 27.5005 23.5C27.5005 25.433 25.9335 27 24.0005 27C22.0675 27 20.5005 25.433 20.5005 23.5Z" fill="black"/>
</svg>
