<svg width="24" height="24" viewBox="0 0 24 24" fill="none" xmlns="http://www.w3.org/2000/svg">
<path d="M12.4998 17.25H10.8332V8.12501C10.8332 7.79168 10.5832 6.00001 9.58317 6.00001C8.33317 6.00001 8.33317 8.08334 8.33317 8.08334H6.6665C6.6665 6.29168 7.58317 4.33334 9.58317 4.33334C11.7082 4.33334 12.4998 6.66668 12.4998 8.12501V17.25Z" fill="#00A3C7"/>
<path d="M17.9165 20.0834L17.3332 19.5C17.2915 19.4584 17.2498 19.4167 17.2082 19.375C16.5832 18.8334 14.9998 17.3334 14.9998 14.75V8.12505C14.9998 7.79172 14.7498 6.00005 13.7498 6.00005C12.4998 6.00005 12.4998 8.08338 12.4998 8.08338V8.91672H10.8332V8.08338C10.8332 6.29172 11.7498 4.33338 13.7498 4.33338C15.8748 4.33338 16.6665 6.66672 16.6665 8.12505V14.75C16.6665 16.625 17.7915 17.6667 18.3332 18.1667C18.4165 18.25 18.4582 18.2917 18.4998 18.3334L19.0832 18.9167L17.9165 20.0834ZM8.33317 17.25H6.6665V8.08338C6.6665 6.37505 5.0415 5.50005 5.0415 5.50005L5.83317 4.04172C5.9165 4.08338 8.33317 5.37505 8.33317 8.08338V17.25Z" fill="#00A3C7"/>
<path d="M13.5417 19.7084L13.125 18.0834C17.0417 17.125 17.9167 13.25 17.9167 11.8334C17.9167 11.125 17.9167 8.9167 17.5 8.9167C17.1667 8.9167 16.6667 10.25 16.6667 11.4167H15C15 10.25 15.4583 7.25003 17.5 7.25003C19.5833 7.25003 19.5833 9.9167 19.5833 11.8334C19.5833 13.5834 18.5 18.4584 13.5417 19.7084Z" fill="#00A3C7"/>
<path d="M10.7917 8.08333C10.7917 7.125 11.0417 6.125 11.5833 5.375C11.4167 5.125 11.1667 4.91667 10.9167 4.75C10.4583 5.08333 10.125 5.54167 9.875 6.08333C10.625 6.45833 10.7917 7.83333 10.7917 8.08333ZM5.79167 4L5 5.5C5.08333 5.54167 6.625 6.41667 6.625 8.08333C6.625 7.375 6.875 6.16667 7.41667 5.45833C6.70833 4.54167 5.83333 4.04167 5.79167 4ZM17.5 17.2917C17.1667 17.7083 16.75 18.0833 16.2917 18.4167C16.625 18.8333 16.9583 19.125 17.1667 19.3333C17.625 19 18.0417 18.5833 18.375 18.1667L18.3333 18.125C18.125 17.9583 17.7917 17.6667 17.5 17.2917ZM16.7083 15.1667C16.7083 15 16.6667 14.875 16.6667 14.75V13.875C16.2083 14.4583 15.625 15.0417 15.0833 15.625C15.125 15.875 15.1667 16.0833 15.25 16.2917V16.3333C15.2917 16.5417 15.375 16.75 15.4583 16.9583C16 16.5417 16.4167 16.0417 16.75 15.5417C16.7083 15.4167 16.7083 15.2917 16.7083 15.1667Z" fill="#005967"/>
</svg>
