<svg width="32" height="32" viewBox="0 0 32 32" fill="none" xmlns="http://www.w3.org/2000/svg">
<circle cx="8" cy="12" r="4" fill="#BDCFED"/>
<path fill-rule="evenodd" clip-rule="evenodd" d="M15.5187 11.2533L13.7253 10.4413C13.472 10.3253 13.2707 10.1187 13.164 9.86133C13.0573 9.604 13.0533 9.316 13.1507 9.05467L13.844 7.212C13.9573 6.91067 13.884 6.57067 13.656 6.34267C13.428 6.11467 13.088 6.04133 12.7867 6.15467L10.944 6.848C10.6827 6.94667 10.3947 6.94133 10.1373 6.83467C9.88 6.728 9.672 6.528 9.55733 6.27333L8.748 4.48267C8.61467 4.188 8.32267 4 8 4C7.67733 4 7.38533 4.188 7.252 4.48267L6.44 6.276C6.324 6.52933 6.11733 6.73067 5.86 6.83733C5.60267 6.944 5.31467 6.948 5.05333 6.84933L3.21067 6.156C2.90933 6.04267 2.56933 6.116 2.34133 6.344C2.11467 6.57067 2.04133 6.91067 2.15467 7.212L2.84933 9.05467C2.948 9.316 2.94267 9.604 2.836 9.86133C2.72933 10.1187 2.52933 10.3267 2.27467 10.4413L0.482667 11.252C0.188 11.3853 0 11.6773 0 12C0 12.3227 0.188 12.6147 0.481333 12.7467L2.27467 13.5587C2.528 13.6747 2.72933 13.8813 2.836 14.1387C2.94267 14.396 2.94667 14.684 2.84933 14.9453L2.156 16.788C2.04267 17.0893 2.116 17.4293 2.344 17.6573C2.572 17.8853 2.912 17.9587 3.21333 17.8453L5.056 17.152C5.31733 17.0533 5.60533 17.0587 5.86267 17.1653C6.12 17.272 6.328 17.472 6.44267 17.7267L7.25467 19.52C7.38533 19.812 7.67733 20 8 20C8.32267 20 8.61467 19.812 8.74667 19.5187L9.55867 17.7253C9.67467 17.472 9.88133 17.2707 10.1387 17.164C10.396 17.0573 10.684 17.0533 10.9453 17.1507L12.788 17.844C13.0893 17.9573 13.4293 17.884 13.6573 17.656C13.8853 17.428 13.9587 17.088 13.8453 16.7867L13.152 14.944C13.0533 14.6827 13.0587 14.3947 13.1653 14.1373C13.272 13.88 13.472 13.672 13.7267 13.5573L15.52 12.7453C15.812 12.6147 16 12.3227 16 12C16 11.6773 15.812 11.3853 15.5187 11.2533ZM8.004 15.484C6.08267 15.484 4.52533 13.9267 4.52533 12.0053C4.52533 10.084 6.08267 8.52667 8.004 8.52667C9.92533 8.52667 11.4827 10.0853 11.4827 12.0053C11.4827 13.9267 9.92533 15.484 8.004 15.484Z" fill="#F0B902"/>
<path d="M25.9773 11.9595C24.46 7.91812 20.572 5.03679 16 5.03679C10.5173 5.03679 6.00533 9.17546 5.40667 14.4968C2.328 15.0875 0 17.7861 0 21.0368C0 24.7181 2.98533 27.7035 6.66667 27.7035H24C28.4187 27.7035 32 24.1221 32 19.7035C32 15.9688 29.4373 12.8421 25.9773 11.9595Z" fill="#BDCFED"/>
</svg>
