<svg width="32" height="32" viewBox="0 0 32 32" fill="none" xmlns="http://www.w3.org/2000/svg">
<path fill-rule="evenodd" clip-rule="evenodd" d="M14.567 1.59075C14.8217 1.02808 15.383 0.666748 16.0003 0.666748C16.6177 0.666748 17.179 1.02808 17.4337 1.59075L18.9897 5.02808C19.2097 5.51475 19.607 5.89875 20.1003 6.10275C20.5937 6.30675 21.1457 6.31608 21.6457 6.12808L25.1763 4.79875C25.755 4.58141 26.407 4.72141 26.843 5.15875C27.2803 5.59608 27.4203 6.24808 27.203 6.82541L25.8737 10.3561C25.6857 10.8561 25.695 11.4081 25.899 11.9014C26.103 12.3947 26.487 12.7907 26.9737 13.0121L30.411 14.5681C30.9723 14.8214 31.3337 15.3827 31.3337 16.0001C31.3337 16.6174 30.9723 17.1787 30.4097 17.4334L26.9723 18.9894C26.4857 19.2094 26.1017 19.6067 25.8977 20.1001C25.6937 20.5934 25.6843 21.1454 25.8723 21.6454L27.2017 25.1761C27.419 25.7547 27.279 26.4067 26.8417 26.8427C26.4043 27.2801 25.7523 27.4201 25.175 27.2027L21.6443 25.8734C21.1443 25.6854 20.5923 25.6947 20.099 25.8987C19.6057 26.1027 19.2097 26.4867 18.9883 26.9734L17.4323 30.4107C17.179 30.9721 16.6177 31.3334 16.0003 31.3334C15.383 31.3334 14.8217 30.9721 14.567 30.4094L13.011 26.9721C12.791 26.4854 12.3937 26.1014 11.9003 25.8974C11.407 25.6934 10.855 25.6841 10.355 25.8721L6.82433 27.2014C6.24566 27.4187 5.59366 27.2787 5.15766 26.8414C4.72166 26.4041 4.58033 25.7521 4.79766 25.1747L6.12699 21.6441C6.31499 21.1441 6.30566 20.5921 6.10166 20.0987C5.89766 19.6054 5.51366 19.2094 5.02699 18.9881L1.58966 17.4321C1.02833 17.1787 0.666992 16.6174 0.666992 16.0001C0.666992 15.3827 1.02833 14.8214 1.59099 14.5667L5.02833 13.0107C5.51499 12.7907 5.89899 12.3934 6.10299 11.9001C6.30699 11.4067 6.31633 10.8547 6.12833 10.3547L4.79766 6.82408C4.58033 6.24541 4.72033 5.59341 5.15766 5.15741C5.59499 4.72008 6.24699 4.58008 6.82433 4.79741L10.355 6.12675C10.855 6.31608 11.407 6.30675 11.9003 6.10275C12.3937 5.89875 12.7897 5.51475 13.011 5.02808L14.567 1.59075Z" fill="#E2B00A"/>
<path opacity="0.7" d="M24.6668 16.0001C24.6668 20.7858 20.7859 24.6667 16.0002 24.6667C11.2144 24.6667 7.3335 20.7858 7.3335 16.0001C7.3335 11.2143 11.2144 7.3334 16.0002 7.3334C20.7859 7.3334 24.6668 11.2161 24.6668 16.0001Z" fill="#F5F9FF"/>
</svg>
