<svg width="48" height="48" viewBox="0 0 48 48" fill="none" xmlns="http://www.w3.org/2000/svg">
<path fill-rule="evenodd" clip-rule="evenodd" d="M14 16.5C14 15.9477 14.4477 15.5 15 15.5L33 15.5C33.5523 15.5 34 15.9477 34 16.5C34 17.0523 33.5523 17.5 33 17.5L15 17.5C14.4477 17.5 14 17.0523 14 16.5Z" fill="black"/>
<path fill-rule="evenodd" clip-rule="evenodd" d="M14 30.5C14 29.9477 14.4477 29.5 15 29.5L33 29.5C33.5523 29.5 34 29.9477 34 30.5C34 31.0523 33.5523 31.5 33 31.5L15 31.5C14.4477 31.5 14 31.0523 14 30.5Z" fill="black"/>
<path fill-rule="evenodd" clip-rule="evenodd" d="M14 23.5C14 22.9477 14.4477 22.5 15 22.5L33 22.5C33.5523 22.5 34 22.9477 34 23.5C34 24.0523 33.5523 24.5 33 24.5L15 24.5C14.4477 24.5 14 24.0523 14 23.5Z" fill="black"/>
<path d="M22 16.5C22 17.8807 20.8807 19 19.5 19C18.1193 19 17 17.8807 17 16.5C17 15.1193 18.1193 14 19.5 14C20.8807 14 22 15.1193 22 16.5Z" fill="black"/>
<path d="M22 30.5C22 31.8807 20.8807 33 19.5 33C18.1193 33 17 31.8807 17 30.5C17 29.1193 18.1193 28 19.5 28C20.8807 28 22 29.1193 22 30.5Z" fill="black"/>
<path d="M31 23.5C31 24.8807 29.8807 26 28.5 26C27.1193 26 26 24.8807 26 23.5C26 22.1193 27.1193 21 28.5 21C29.8807 21 31 22.1193 31 23.5Z" fill="black"/>
</svg>
