<svg width="16" height="17" viewBox="0 0 16 17" fill="none" xmlns="http://www.w3.org/2000/svg">
<path fill-rule="evenodd" clip-rule="evenodd" d="M6.08594 2.99866L1.99998 10.0757C1.63179 10.7135 1.85029 11.5289 2.48802 11.8971L7.06746 14.541C7.70518 14.9092 8.52064 14.6907 8.88883 14.053L12.9748 6.97593L6.08594 2.99866Z" fill="black"/>
<path fill-rule="evenodd" clip-rule="evenodd" d="M6.90755 4.2426C6.72346 4.56146 6.31573 4.67071 5.99687 4.48661L4.26482 3.48661C3.94596 3.30252 3.83671 2.89479 4.0208 2.57593C4.2049 2.25707 4.61262 2.14782 4.93148 2.33191L6.66354 3.33191C6.9824 3.51601 7.09165 3.92373 6.90755 4.2426Z" fill="black"/>
<path d="M14.1317 13.1559C14.1317 14.0681 13.3855 14.8075 12.465 14.8075C11.5445 14.8075 10.7983 14.0681 10.7983 13.1559C10.7983 12.2438 11.6317 11.0914 12.465 10.2656C13.2983 11.0914 14.1317 12.2438 14.1317 13.1559Z" fill="black"/>
</svg>
