<svg width="16" height="16" viewBox="0 0 16 16" fill="none" xmlns="http://www.w3.org/2000/svg">
<path fill-rule="evenodd" clip-rule="evenodd" d="M4.03922 4.8039C3.66381 4.8039 3.35948 5.10823 3.35948 5.48364V12.9608C3.35948 13.3362 3.66381 13.6405 4.03922 13.6405H11.5163C11.8917 13.6405 12.1961 13.3362 12.1961 12.9608V9.56207C12.1961 9.18667 12.5004 8.88234 12.8758 8.88234C13.2512 8.88234 13.5556 9.18667 13.5556 9.56207V12.9608C13.5556 14.087 12.6426 15 11.5163 15H4.03922C2.91299 15 2 14.087 2 12.9608V5.48364C2 4.35742 2.91299 3.44443 4.03922 3.44443H7.43791C7.81332 3.44443 8.11765 3.74876 8.11765 4.12417C8.11765 4.49958 7.81332 4.8039 7.43791 4.8039H4.03922Z" fill="black"/>
<path fill-rule="evenodd" clip-rule="evenodd" d="M8.71186 8.37611C8.42981 8.09406 8.42981 7.63677 8.71186 7.35473L12.0238 4.04277C12.3059 3.76073 12.7631 3.76073 13.0452 4.04277C13.3272 4.32482 13.3272 4.7821 13.0452 5.06415L9.73324 8.37611C9.45119 8.65815 8.99391 8.65815 8.71186 8.37611Z" fill="black"/>
<path d="M13.5557 2.51069C13.8378 2.22865 14.295 2.22865 14.5771 2.51069C14.8591 2.79274 14.8591 3.25002 14.5771 3.53207C14.295 3.81411 13.8378 3.81411 13.5557 3.53207C13.2737 3.25002 13.2737 2.79274 13.5557 2.51069Z" fill="black"/>
</svg>
