<svg width="24" height="24" viewBox="0 0 24 24" fill="none" xmlns="http://www.w3.org/2000/svg">
<path d="M5.95354 8.49622H3C2.44772 8.49622 2 8.94442 2 9.49731V14.5028C2 15.0557 2.44772 15.5039 3 15.5039H5.95365L11.5872 20.4965C12.2325 21.0685 13.25 20.6098 13.25 19.7469V4.25305C13.25 3.39022 12.2325 2.93155 11.5872 3.50348L5.95354 8.49622Z" fill="black"/>
<path fill-rule="evenodd" clip-rule="evenodd" d="M21.3 9.45689C21.6866 9.84391 21.6866 10.4714 21.3 10.8584L17.1 15.063C16.7134 15.45 16.0866 15.45 15.7 15.063C15.3134 14.676 15.3134 14.0485 15.7 13.6615L19.9 9.45689C20.2866 9.06986 20.9134 9.06986 21.3 9.45689Z" fill="black"/>
<path fill-rule="evenodd" clip-rule="evenodd" d="M21.3001 15.063C20.9135 15.45 20.2867 15.45 19.9001 15.063L15.7001 10.8584C15.3135 10.4713 15.3135 9.84386 15.7001 9.45683C16.0867 9.06981 16.7135 9.06981 17.1001 9.45683L21.3001 13.6614C21.6867 14.0485 21.6867 14.6759 21.3001 15.063Z" fill="black"/>
</svg>
