<svg width="24" height="24" viewBox="0 0 24 24" fill="none" xmlns="http://www.w3.org/2000/svg">
<path fill-rule="evenodd" clip-rule="evenodd" d="M15.1426 3.25888C15.2644 2.80421 15.0527 2.32614 14.6341 2.11082C14.2155 1.8955 13.7035 2.00124 13.4044 2.36474L9.6981 6.86982L16.4107 13.5824L17.9668 11.691C18.1828 11.4284 18.2506 11.0741 18.1468 10.7503C18.043 10.4265 17.7818 10.1777 17.4534 10.0897L13.5897 9.05443L15.1426 3.25888ZM14.4957 15.9101L15.96 17.3744C16.3505 17.7649 16.9837 17.7649 17.3742 17.3744C17.423 17.3256 17.4657 17.2729 17.5024 17.2175C17.7586 16.8293 17.7159 16.3019 17.3742 15.9602L15.7724 14.3583L9.05977 7.64571L7.12117 5.70711C7.07235 5.65829 7.01975 5.61558 6.9643 5.57897C6.57615 5.32268 6.04866 5.3654 5.70696 5.70711C5.49689 5.91718 5.39982 6.19746 5.41575 6.47241C5.41833 6.51692 5.42387 6.5613 5.43237 6.60521C5.46898 6.79431 5.56051 6.97487 5.70696 7.12132L7.78313 9.19749L14.4957 15.9101ZM7.14481 9.97338L13.8574 16.686L10.2902 21.022C9.99111 21.3855 9.47904 21.4913 9.06047 21.276C8.6419 21.0606 8.43016 20.5826 8.55198 20.1279L10.1049 14.3323L6.24119 13.2971C5.91278 13.2091 5.65158 12.9602 5.54777 12.6365C5.44395 12.3127 5.51176 11.9584 5.72777 11.6958L7.14481 9.97338Z" fill="black"/>
</svg>
