<svg width="48" height="48" viewBox="0 0 48 48" fill="none" xmlns="http://www.w3.org/2000/svg">
<path d="M35.564 9.114C33.044 5.424 28.806 3 24 3C17.606 3 12.226 7.29 10.55 13.146C5.72 13.854 2 17.974 2 23C2 28.522 6.478 33 12 33H34C40.628 33 46 27.628 46 21C46 14.904 41.452 9.882 35.564 9.114Z" fill="#E8F1FF"/>
<path d="M21.5981 29C21.0451 29 20.5981 28.553 20.5981 28V22C20.5981 21.447 21.0451 21 21.5981 21C22.1511 21 22.5981 21.447 22.5981 22V28C22.5981 28.553 22.1511 29 21.5981 29Z" fill="#A9BBD9"/>
<path d="M19.001 27.5C18.655 27.5 18.319 27.321 18.134 27C17.858 26.521 18.022 25.91 18.5 25.634L23.695 22.634C24.172 22.358 24.784 22.521 25.061 23C25.337 23.479 25.173 24.09 24.695 24.366L19.5 27.366C19.343 27.457 19.171 27.5 19.001 27.5Z" fill="#A9BBD9"/>
<path d="M24.195 27.5C24.025 27.5 23.853 27.4569 23.696 27.3659L18.501 24.3659C18.022 24.0899 17.858 23.479 18.134 23C18.41 22.521 19.023 22.357 19.5 22.634L24.695 25.634C25.174 25.91 25.338 26.522 25.061 27C24.876 27.321 24.54 27.5 24.195 27.5Z" fill="#A9BBD9"/>
<path d="M16.5981 46C16.0451 46 15.5981 45.553 15.5981 45V39C15.5981 38.447 16.0451 38 16.5981 38C17.1511 38 17.5981 38.447 17.5981 39V45C17.5981 45.553 17.1511 46 16.5981 46Z" fill="#A9BBD9"/>
<path d="M14.001 44.5C13.655 44.5 13.319 44.321 13.134 44C12.858 43.521 13.022 42.91 13.5 42.634L18.695 39.634C19.172 39.357 19.784 39.521 20.061 40C20.337 40.479 20.173 41.09 19.695 41.366L14.5 44.366C14.343 44.457 14.171 44.5 14.001 44.5Z" fill="#A9BBD9"/>
<path d="M19.195 44.5C19.025 44.5 18.853 44.457 18.696 44.366L13.501 41.366C13.022 41.09 12.858 40.479 13.134 40C13.41 39.521 14.022 39.356 14.5 39.634L19.695 42.634C20.174 42.91 20.338 43.522 20.061 44C19.876 44.321 19.54 44.5 19.195 44.5Z" fill="#A9BBD9"/>
<path d="M31.5981 42C31.0451 42 30.5981 41.553 30.5981 41V35C30.5981 34.447 31.0451 34 31.5981 34C32.1511 34 32.5981 34.447 32.5981 35V41C32.5981 41.553 32.1511 42 31.5981 42Z" fill="#A9BBD9"/>
<path d="M29.001 40.5C28.655 40.5 28.319 40.321 28.134 40C27.858 39.521 28.022 38.91 28.5 38.634L33.695 35.634C34.171 35.358 34.784 35.521 35.061 36C35.337 36.479 35.173 37.09 34.695 37.366L29.5 40.366C29.343 40.457 29.171 40.5 29.001 40.5Z" fill="#A9BBD9"/>
<path d="M34.195 40.5C34.025 40.5 33.853 40.457 33.696 40.366L28.501 37.366C28.022 37.09 27.858 36.479 28.134 36C28.41 35.521 29.023 35.357 29.5 35.634L34.695 38.634C35.174 38.91 35.338 39.522 35.061 40C34.876 40.321 34.54 40.5 34.195 40.5Z" fill="#A9BBD9"/>
</svg>
