<svg width="16" height="16" viewBox="0 0 16 16" fill="none" xmlns="http://www.w3.org/2000/svg">
<path fill-rule="evenodd" clip-rule="evenodd" d="M8.00016 14.6667C11.6821 14.6667 14.6668 11.6819 14.6668 8C14.6668 4.3181 11.6821 1.33333 8.00016 1.33333C4.31826 1.33333 1.3335 4.3181 1.3335 8C1.3335 9.34316 1.73071 10.5935 2.41407 11.6401C2.66221 12.0201 2.78115 12.5037 2.52669 12.8795C2.26862 13.2607 1.90499 13.5758 1.4535 13.78C1.41724 13.7981 1.41332 13.8654 1.45021 13.8822C2.20255 14.2252 3.05673 14.3317 3.88683 14.1733C4.20016 14.1133 4.52016 14.02 4.82016 13.88C4.83234 13.8745 4.84636 13.875 4.85814 13.8813C5.79429 14.3825 6.86404 14.6667 8.00016 14.6667ZM7.13196 11.0447L5.05735 8.97007C4.53665 8.44937 4.53665 7.60515 5.05735 7.08445L6.73744 5.40436C6.98533 5.15647 7.32087 5.01618 7.67142 5.01386L9.75986 5.00003C10.5031 4.99511 11.1069 5.59889 11.102 6.34216L11.0882 8.4306C11.0858 8.78116 10.9456 9.1167 10.6977 9.36458L9.01758 11.0447C8.49688 11.5654 7.65266 11.5654 7.13196 11.0447ZM8.73119 7.37084C8.97921 7.61885 9.38131 7.61885 9.62932 7.37084C9.87733 7.12283 9.87733 6.72073 9.62932 6.47272C9.38131 6.22471 8.97921 6.22471 8.73119 6.47272C8.48318 6.72073 8.48318 7.12283 8.73119 7.37084Z" fill="black"/>
</svg>
