<svg width="24" height="24" viewBox="0 0 24 24" fill="none" xmlns="http://www.w3.org/2000/svg">
<path fill-rule="evenodd" clip-rule="evenodd" d="M12.1113 22C11.559 22 11.1113 21.5523 11.1113 21L11.1113 3C11.1113 2.44772 11.559 2 12.1113 2C12.6636 2 13.1113 2.44772 13.1113 3L13.1113 21C13.1113 21.5523 12.6636 22 12.1113 22Z" fill="black"/>
<path fill-rule="evenodd" clip-rule="evenodd" d="M2 12.1111C2 11.5588 2.44772 11.1111 3 11.1111L21 11.1111C21.5523 11.1111 22 11.5588 22 12.1111C22 12.6634 21.5523 13.1111 21 13.1111L3 13.1111C2.44772 13.1111 2 12.6634 2 12.1111Z" fill="black"/>
</svg>
