<svg width="16" height="16" viewBox="0 0 16 16" fill="none" xmlns="http://www.w3.org/2000/svg">
<path d="M8 0C3.58962 0 0 3.58962 0 8C0 12.4104 3.58962 16 8 16C12.4104 16 16 12.4104 16 8C16 3.58962 12.4104 0 8 0ZM8 1.33333C11.6898 1.33333 14.6667 4.31021 14.6667 8C14.6667 11.6898 11.6898 14.6667 8 14.6667C4.31021 14.6667 1.33333 11.6898 1.33333 8C1.33333 4.31021 4.31021 1.33333 8 1.33333ZM4 6C3.26333 6 2.66667 6.59667 2.66667 7.33333C2.66667 8.66667 5 9.66667 5 9.66667C5 9.66667 7.33333 8.66667 7.33333 7.33333C7.33333 6.59667 6.73667 6 6 6C5.59933 6 5.24467 6.17964 5 6.45964C4.75533 6.17964 4.40067 6 4 6ZM10 6C9.26333 6 8.66667 6.59667 8.66667 7.33333C8.66667 8.66667 11 9.66667 11 9.66667C11 9.66667 13.3333 8.66667 13.3333 7.33333C13.3333 6.59667 12.7367 6 12 6C11.5993 6 11.2447 6.17964 11 6.45964C10.7553 6.17964 10.4007 6 10 6ZM10.4128 11.3281C10.2854 11.3264 10.1603 11.3612 10.0521 11.4284C9.44924 11.7903 8.75195 12 8 12C7.24805 12 6.55076 11.7903 5.94792 11.4284C5.87282 11.382 5.78925 11.351 5.70207 11.3371C5.61488 11.3233 5.52582 11.3269 5.44004 11.3477C5.35426 11.3686 5.27347 11.4062 5.20237 11.4586C5.13126 11.5109 5.07126 11.5768 5.02583 11.6525C4.9804 11.7282 4.95045 11.8121 4.93772 11.8995C4.92499 11.9868 4.92974 12.0758 4.95168 12.1613C4.97363 12.2468 5.01233 12.3271 5.06556 12.3976C5.11878 12.468 5.18545 12.5272 5.26172 12.5716C6.06021 13.051 6.99862 13.3333 8 13.3333C9.00138 13.3333 9.93979 13.051 10.7383 12.5716C10.8645 12.4984 10.9633 12.3859 11.0194 12.2512C11.0755 12.1165 11.0858 11.9671 11.0489 11.826C11.0119 11.6848 10.9297 11.5597 10.8148 11.4697C10.6999 11.3798 10.5587 11.3301 10.4128 11.3281V11.3281Z" fill="black"/>
</svg>
