<svg width="24" height="24" viewBox="0 0 24 24" fill="none" xmlns="http://www.w3.org/2000/svg">
<path d="M14.8916 8H9.10344C7.54107 8 6.52395 6.44 7.22649 5.11C7.58301 4.43 8.30653 4 9.10344 4H14.9021C15.699 4 16.4225 4.43 16.779 5.11C17.4711 6.44 16.454 8 14.8916 8Z" fill="black"/>
<path fill-rule="evenodd" clip-rule="evenodd" d="M20 6H4C2.9 6 2 6.9 2 8V18C2 19.1 2.9 20 4 20H20C21.1 20 22 19.1 22 18V8C22 6.9 21.1 6 20 6ZM12 16C13.6569 16 15 14.6569 15 13C15 11.3431 13.6569 10 12 10C10.3431 10 9 11.3431 9 13C9 14.6569 10.3431 16 12 16ZM6 9C6 9.55228 5.55228 10 5 10C4.44772 10 4 9.55228 4 9C4 8.44772 4.44772 8 5 8C5.55228 8 6 8.44772 6 9Z" fill="black"/>
</svg>
