<svg width="16" height="17" viewBox="0 0 16 17" fill="none" xmlns="http://www.w3.org/2000/svg">
<path fill-rule="evenodd" clip-rule="evenodd" d="M3.95882 6.32945H1.99754C1.6308 6.32945 1.3335 6.62825 1.3335 6.99684V10.3338C1.3335 10.7024 1.6308 11.0012 1.99754 11.0012H3.9589L7.6998 14.3297C8.12833 14.7109 8.804 14.4052 8.804 13.8299V3.50067C8.804 2.92545 8.12834 2.61967 7.6998 3.00096L3.95882 6.32945Z" fill="black"/>
<path fill-rule="evenodd" clip-rule="evenodd" d="M10.1414 5.54414C10.3895 5.27273 10.8096 5.25488 11.0797 5.50428C11.9281 6.28785 12.4613 7.41448 12.4613 8.6653C12.4613 9.91612 11.9281 11.0427 11.0797 11.8263C10.8096 12.0757 10.3895 12.0579 10.1414 11.7865C9.89325 11.515 9.91101 11.0929 10.1811 10.8435C10.7673 10.302 11.1332 9.52711 11.1332 8.6653C11.1332 7.80349 10.7673 7.02856 10.1811 6.48714C9.91101 6.23774 9.89325 5.81555 10.1414 5.54414Z" fill="black"/>
<path fill-rule="evenodd" clip-rule="evenodd" d="M11.8083 4.2016C12.0607 3.93419 12.481 3.92306 12.747 4.17674C13.9285 5.30317 14.6666 6.89815 14.6666 8.66531C14.6666 10.4325 13.9285 12.0275 12.747 13.1539C12.481 13.4076 12.0607 13.3964 11.8083 13.129C11.5559 12.8616 11.5669 12.4392 11.833 12.1855C12.7611 11.3006 13.3385 10.0513 13.3385 8.66531C13.3385 7.27934 12.7611 6.03001 11.833 5.14512C11.5669 4.89144 11.5559 4.46901 11.8083 4.2016Z" fill="black"/>
</svg>
