<svg width="24" height="24" viewBox="0 0 24 24" fill="none" xmlns="http://www.w3.org/2000/svg">
<path fill-rule="evenodd" clip-rule="evenodd" d="M10.364 21.3107L2.58579 13.5326C1.80474 12.7515 1.80474 11.4852 2.58579 10.7041L8.65228 4.63764C9.02411 4.26582 9.52742 4.05538 10.0533 4.0519L17.8833 4.00004C18.9982 3.99266 19.9039 4.89834 19.8965 6.01325L19.8446 13.8433C19.8411 14.3691 19.6307 14.8724 19.2589 15.2442L13.1924 21.3107C12.4113 22.0918 11.145 22.0918 10.364 21.3107ZM14.032 9.86434C14.4225 10.2549 15.0557 10.2549 15.4462 9.86434C15.8367 9.47382 15.8367 8.84065 15.4462 8.45013C15.0557 8.0596 14.4225 8.0596 14.032 8.45013C13.6415 8.84065 13.6415 9.47382 14.032 9.86434Z" fill="black"/>
</svg>
