<svg width="24" height="24" viewBox="0 0 24 24" fill="none" xmlns="http://www.w3.org/2000/svg">
<g clip-path="url(#clip0_81_4068)">
<path d="M11.397 6.63333C12.6783 6.63333 13.7101 5.6 13.7101 4.31667C13.7101 3.03333 12.6783 2 11.397 2C10.1157 2 9.09229 3.03333 9.09229 4.31667C9.09229 5.6 10.124 6.63333 11.397 6.63333Z" fill="url(#paint0_linear_81_4068)"/>
<path d="M18.7189 7.22499H13.086H8.42664H8.25191V7.24999C7.62789 7.30833 7.07874 7.65833 6.78753 8.21666L4.21655 13.1333C3.56756 14.3667 4.46616 15.85 5.85565 15.85H7.96902H8.65129H11.7964L9.5998 20.2083C9.28363 20.8417 9.49164 21.5917 10.0657 21.8833C10.6398 22.175 11.3637 21.8917 11.6799 21.2583L14.8167 15.0417L14.8333 14.9917C14.8416 14.975 14.8499 14.95 14.8583 14.925L14.8749 14.875C14.9248 14.725 14.9581 14.5667 14.9581 14.3917C14.9581 13.5833 14.3091 12.9333 13.502 12.9333H10.1489L11.8879 9.54999H18.7272C19.4344 9.54999 20.0085 9.02499 20.0085 8.38333C20.0085 7.74166 19.4261 7.22499 18.7189 7.22499Z" fill="url(#paint1_linear_81_4068)"/>
</g>
<defs>
<linearGradient id="paint0_linear_81_4068" x1="9.09229" y1="6.63333" x2="13.7101" y2="6.63333" gradientUnits="userSpaceOnUse">
<stop stop-color="#FA005C"/>
<stop offset="1" stop-color="#FF9800"/>
</linearGradient>
<linearGradient id="paint1_linear_81_4068" x1="4.00146" y1="21.9983" x2="20.0085" y2="21.9983" gradientUnits="userSpaceOnUse">
<stop stop-color="#FA005C"/>
<stop offset="1" stop-color="#FF9800"/>
</linearGradient>
<clipPath id="clip0_81_4068">
<rect width="16" height="20" fill="white" transform="translate(4 2)"/>
</clipPath>
</defs>
</svg>
