<svg width="24" height="24" viewBox="0 0 24 24" fill="none" xmlns="http://www.w3.org/2000/svg">
<path fill-rule="evenodd" clip-rule="evenodd" d="M11.425 1.693C11.616 1.271 12.037 1 12.5 1C12.963 1 13.384 1.271 13.575 1.693L14.742 4.271C14.907 4.636 15.205 4.924 15.575 5.077C15.945 5.23 16.359 5.237 16.734 5.096L19.382 4.099C19.816 3.936 20.305 4.041 20.632 4.369C20.96 4.697 21.065 5.186 20.902 5.619L19.905 8.267C19.764 8.642 19.771 9.056 19.924 9.426C20.077 9.796 20.365 10.093 20.73 10.259L23.308 11.426C23.729 11.616 24 12.037 24 12.5C24 12.963 23.729 13.384 23.307 13.575L20.729 14.742C20.364 14.907 20.076 15.205 19.923 15.575C19.77 15.945 19.763 16.359 19.904 16.734L20.901 19.382C21.064 19.816 20.959 20.305 20.631 20.632C20.303 20.96 19.814 21.065 19.381 20.902L16.733 19.905C16.358 19.764 15.944 19.771 15.574 19.924C15.204 20.077 14.907 20.365 14.741 20.73L13.574 23.308C13.384 23.729 12.963 24 12.5 24C12.037 24 11.616 23.729 11.425 23.307L10.258 20.729C10.093 20.364 9.795 20.076 9.425 19.923C9.055 19.77 8.641 19.763 8.266 19.904L5.618 20.901C5.184 21.064 4.695 20.959 4.368 20.631C4.041 20.303 3.935 19.814 4.098 19.381L5.095 16.733C5.236 16.358 5.229 15.944 5.076 15.574C4.923 15.204 4.635 14.907 4.27 14.741L1.692 13.574C1.271 13.384 1 12.963 1 12.5C1 12.037 1.271 11.616 1.693 11.425L4.271 10.258C4.636 10.093 4.924 9.795 5.077 9.425C5.23 9.055 5.237 8.641 5.096 8.266L4.098 5.618C3.935 5.184 4.04 4.695 4.368 4.368C4.696 4.04 5.185 3.935 5.618 4.098L8.266 5.095C8.641 5.237 9.055 5.23 9.425 5.077C9.795 4.924 10.092 4.636 10.258 4.271L11.425 1.693Z" fill="#F0B902"/>
<path opacity="0.7" d="M18 12.5C18 15.5371 15.5371 18 12.5 18C9.4629 18 7 15.5371 7 12.5C7 9.4629 9.4629 7 12.5 7C15.5371 7 18 9.464 18 12.5Z" fill="white"/>
</svg>
