<svg width="32" height="32" viewBox="0 0 32 32" fill="none" xmlns="http://www.w3.org/2000/svg">
<path d="M22.3027 20.1986C17.6 19.2733 13.8253 15.4986 12.9 10.796C12.6107 9.33062 12.6 7.90662 12.8147 6.55995C13.0413 5.14662 11.5613 4.03729 10.3027 4.72129C5.53867 7.31195 2.52934 12.7186 3.52267 18.712C4.43601 24.2213 8.87734 28.6626 14.3853 29.576C20.3787 30.5693 25.7867 27.56 28.3773 22.7946C29.0613 21.536 27.9533 20.0573 26.5387 20.2826C25.192 20.4986 23.768 20.488 22.3027 20.1986Z" fill="#F0B902"/>
<path opacity="0.7" fill-rule="evenodd" clip-rule="evenodd" d="M19.4227 2.58C19.5814 2.22667 19.9321 2 20.3187 2C20.7054 2 21.0561 2.22667 21.2147 2.58L21.952 4.22667C21.9654 4.25733 21.9854 4.28533 22.0094 4.30933C22.0334 4.33333 22.0614 4.352 22.0921 4.36667L23.7387 5.104C24.0921 5.26267 24.3187 5.61333 24.3187 6C24.3187 6.38667 24.0921 6.73733 23.7387 6.896L22.0921 7.63333C22.0614 7.64667 22.0334 7.66667 22.0094 7.69067C21.9854 7.71467 21.9667 7.74267 21.952 7.77333L21.2134 9.42C21.0547 9.77333 20.7041 10 20.3174 10C19.9307 10 19.58 9.77333 19.4214 9.42L18.684 7.77333C18.6707 7.74267 18.6507 7.71467 18.6267 7.69067C18.6027 7.66667 18.5747 7.648 18.544 7.63333L16.8974 6.896C16.5441 6.73733 16.3174 6.38667 16.3174 6C16.3174 5.61333 16.5441 5.26267 16.8974 5.104L18.544 4.36667C18.5747 4.35333 18.6027 4.33333 18.6267 4.30933C18.6507 4.28533 18.6694 4.25733 18.684 4.22667L19.4227 2.58Z" fill="#EDE1B2"/>
<path opacity="0.7" fill-rule="evenodd" clip-rule="evenodd" d="M25.4026 11.4853C25.5079 11.2506 25.7426 11.0986 25.9999 11.0986C26.2573 11.0986 26.4919 11.2506 26.5973 11.4853L27.0893 12.584C27.0986 12.604 27.1106 12.6226 27.1266 12.6386C27.1426 12.6546 27.1613 12.668 27.1813 12.676L28.2799 13.168C28.5146 13.2733 28.6666 13.508 28.6666 13.7653C28.6666 14.0226 28.5146 14.2573 28.2799 14.3626L27.1813 14.8546C27.1613 14.864 27.1426 14.876 27.1266 14.892C27.1106 14.908 27.0973 14.9266 27.0893 14.9466L26.5973 16.0453C26.4919 16.28 26.2573 16.432 25.9999 16.432C25.7426 16.432 25.5079 16.28 25.4026 16.0453L24.9106 14.9466C24.9013 14.9266 24.8893 14.908 24.8733 14.892C24.8573 14.876 24.8386 14.8626 24.8186 14.8546L23.7199 14.3626C23.4853 14.2573 23.3333 14.0226 23.3333 13.7653C23.3333 13.508 23.4853 13.2733 23.7199 13.168L24.8186 12.676C24.8386 12.6666 24.8573 12.6546 24.8733 12.6386C24.8893 12.6226 24.9026 12.604 24.9106 12.584L25.4026 11.4853Z" fill="#EDE1B2"/>
</svg>
