<svg width="24" height="24" viewBox="0 0 24 24" fill="none" xmlns="http://www.w3.org/2000/svg">
<path d="M8 17C8 18.6569 6.65685 20 5 20C3.34315 20 2 18.6569 2 17C2 15.3431 3.34315 14 5 14C6.65685 14 8 15.3431 8 17Z" fill="black"/>
<path fill-rule="evenodd" clip-rule="evenodd" d="M12 18C12.5523 18 13 17.5523 13 17C13 16.4477 12.5523 16 12 16C11.4477 16 11 16.4477 11 17C11 17.5523 11.4477 18 12 18ZM12 20C13.6569 20 15 18.6569 15 17C15 15.3431 13.6569 14 12 14C10.3431 14 9 15.3431 9 17C9 18.6569 10.3431 20 12 20Z" fill="black"/>
<path d="M22 17C22 18.6569 20.6569 20 19 20C17.3431 20 16 18.6569 16 17C16 15.3431 17.3431 14 19 14C20.6569 14 22 15.3431 22 17Z" fill="black"/>
<path fill-rule="evenodd" clip-rule="evenodd" d="M11.7099 6C8.99336 6 6.69605 7.80612 5.95823 10.2852C5.80069 10.8146 5.24386 11.116 4.71452 10.9585C4.18519 10.8009 3.88378 10.2441 4.04132 9.71475C5.02459 6.4109 8.08439 4 11.7099 4C15.3354 4 18.3952 6.4109 19.3785 9.71475C19.536 10.2441 19.2346 10.8009 18.7053 10.9585C18.1759 11.116 17.6191 10.8146 17.4616 10.2852C16.7237 7.80612 14.4264 6 11.7099 6Z" fill="black"/>
<path fill-rule="evenodd" clip-rule="evenodd" d="M20.0075 7.04533C20.5348 7.20976 20.8289 7.77047 20.6645 8.29771L19.8224 10.9979C19.658 11.5251 19.0972 11.8192 18.57 11.6548L15.8698 10.8127C15.3426 10.6483 15.0485 10.0876 15.2129 9.56034C15.3773 9.0331 15.938 8.73898 16.4653 8.90341L18.2108 9.44777L18.7552 7.70226C18.9196 7.17502 19.4803 6.8809 20.0075 7.04533Z" fill="black"/>
</svg>
