<svg width="24" height="24" viewBox="0 0 24 24" fill="none" xmlns="http://www.w3.org/2000/svg">
<path d="M15.1426 3.75888C15.2644 3.30421 15.0527 2.82614 14.6341 2.61082C14.2155 2.3955 13.7035 2.50124 13.4044 2.86474L5.72777 12.1958C5.51176 12.4584 5.44395 12.8127 5.54777 13.1365C5.65158 13.4602 5.91278 13.7091 6.24119 13.7971L10.1049 14.8323L8.55198 20.6279C8.43016 21.0826 8.6419 21.5606 9.06047 21.776C9.47904 21.9913 9.99111 21.8855 10.2902 21.522L17.9668 12.191C18.1828 11.9284 18.2506 11.5741 18.1468 11.2503C18.043 10.9265 17.7818 10.6777 17.4534 10.5897L13.5897 9.55443L15.1426 3.75888Z" fill="black"/>
</svg>
