<svg width="16" height="16" viewBox="0 0 16 16" fill="none" xmlns="http://www.w3.org/2000/svg">
<path fill-rule="evenodd" clip-rule="evenodd" d="M7.92848 3.69638C6.14768 3.69638 4.64171 4.92732 4.15804 6.61693C4.05477 6.97769 3.68975 7.1831 3.34274 7.07574C2.99574 6.96837 2.79816 6.58887 2.90143 6.22811C3.54601 3.97642 5.55182 2.33331 7.92848 2.33331C10.3051 2.33331 12.311 3.97642 12.9555 6.22811C13.0588 6.58887 12.8612 6.96837 12.5142 7.07574C12.1672 7.1831 11.8022 6.97769 11.6989 6.61693C11.2153 4.92732 9.70928 3.69638 7.92848 3.69638Z" fill="black"/>
<path fill-rule="evenodd" clip-rule="evenodd" d="M13.3679 4.40875C13.7135 4.52081 13.9063 4.90296 13.7985 5.26229L13.2465 7.10254C13.1387 7.46187 12.7712 7.66232 12.4255 7.55026L10.6555 6.97635C10.3098 6.86429 10.117 6.48215 10.2248 6.12281C10.3326 5.76348 10.7002 5.56303 11.0458 5.67509L12.1901 6.0461L12.5469 4.85647C12.6547 4.49714 13.0223 4.29669 13.3679 4.40875Z" fill="black"/>
<path fill-rule="evenodd" clip-rule="evenodd" d="M8.07201 12.3036C9.8528 12.3036 11.3588 11.0726 11.8425 9.38301C11.9457 9.02225 12.3107 8.81683 12.6577 8.9242C13.0047 9.03157 13.2023 9.41107 13.0991 9.77183C12.4545 12.0235 10.4487 13.6666 8.07201 13.6666C5.69535 13.6666 3.68953 12.0235 3.04495 9.77183C2.94168 9.41107 3.13926 9.03157 3.48626 8.9242C3.83327 8.81683 4.19829 9.02225 4.30156 9.38301C4.78523 11.0726 6.29121 12.3036 8.07201 12.3036Z" fill="black"/>
<path fill-rule="evenodd" clip-rule="evenodd" d="M2.6326 11.5912C2.28697 11.4791 2.09417 11.097 2.20196 10.7377L2.75398 8.8974C2.86177 8.53807 3.22933 8.33761 3.57496 8.44968L5.34502 9.02359C5.69065 9.13565 5.88345 9.51779 5.77567 9.87713C5.66788 10.2365 5.30031 10.4369 4.95468 10.3248L3.81043 9.95384L3.45358 11.1435C3.34579 11.5028 2.97823 11.7033 2.6326 11.5912Z" fill="black"/>
</svg>
