<svg width="24" height="24" viewBox="0 0 24 24" fill="none" xmlns="http://www.w3.org/2000/svg">
<path fill-rule="evenodd" clip-rule="evenodd" d="M19 9H9L9 19H19V9ZM9 7C7.89543 7 7 7.89543 7 9V19C7 20.1046 7.89543 21 9 21H19C20.1046 21 21 20.1046 21 19V9C21 7.89543 20.1046 7 19 7H9Z" fill="black"/>
<path fill-rule="evenodd" clip-rule="evenodd" d="M3 6C3 4.34315 4.34315 3 6 3H16C16.5523 3 17 3.44772 17 4C17 4.55228 16.5523 5 16 5H6C5.44772 5 5 5.44772 5 6V16C5 16.5523 4.55228 17 4 17C3.44772 17 3 16.5523 3 16V6Z" fill="black"/>
</svg>
