<svg width="16" height="17" viewBox="0 0 16 17" fill="none" xmlns="http://www.w3.org/2000/svg">
<path fill-rule="evenodd" clip-rule="evenodd" d="M2 4.99862C2 5.62552 2.24723 6.19469 2.64951 6.61392C2.23417 7.42991 2 8.35358 2 9.33195C2 12.6457 4.68629 15.332 8 15.332C11.3137 15.332 14 12.6457 14 9.33195C14 8.35358 13.7658 7.42991 13.3505 6.61392C13.7528 6.19468 14 5.62552 14 4.99862C14 3.70995 12.9553 2.66528 11.6667 2.66528C10.9004 2.66528 10.2204 3.03466 9.79501 3.60507C9.22823 3.4276 8.62529 3.33195 8 3.33195C7.37471 3.33195 6.77177 3.4276 6.205 3.60506C5.77961 3.03466 5.09961 2.66528 4.33333 2.66528C3.04467 2.66528 2 3.70995 2 4.99862ZM8 5.99862C8.36819 5.99862 8.66667 6.29709 8.66667 6.66528V8.66528H9.66667C10.0349 8.66528 10.3333 8.96376 10.3333 9.33195C10.3333 9.70014 10.0349 9.99862 9.66667 9.99862H8C7.63181 9.99862 7.33333 9.70014 7.33333 9.33195V6.66528C7.33333 6.29709 7.63181 5.99862 8 5.99862Z" fill="black"/>
</svg>
