<svg width="48" height="48" viewBox="0 0 48 48" fill="none" xmlns="http://www.w3.org/2000/svg">
<path d="M9.15873 36.9028L13.3881 31.0139C13.6581 30.638 14.1826 30.5541 14.5563 30.827L19.5149 34.4468C19.8846 34.7167 19.9674 35.2343 19.7004 35.606L15.4879 41.4714C15.0582 42.0697 14.1204 41.8571 13.9907 41.132L13.5272 38.5406C13.4487 38.1017 13.0386 37.8024 12.5967 37.8613L9.94577 38.2149C9.22173 38.3115 8.73263 37.4961 9.15873 36.9028Z" fill="url(#paint0_linear_81_4169)"/>
<path d="M38.8413 36.9028L34.6119 31.0139C34.3419 30.638 33.8174 30.5541 33.4437 30.827L28.4851 34.4468C28.1154 34.7167 28.0326 35.2343 28.2996 35.606L32.5121 41.4714C32.9418 42.0697 33.8796 41.8571 34.0093 41.132L34.4728 38.5406C34.5513 38.1017 34.9614 37.8024 35.4033 37.8613L38.0542 38.2149C38.7783 38.3115 39.2674 37.4961 38.8413 36.9028Z" fill="url(#paint1_linear_81_4169)"/>
<circle cx="24" cy="22.3334" r="15" fill="url(#paint2_linear_81_4169)"/>
<circle cx="23.9997" cy="22.3333" r="11.6667" fill="url(#paint3_radial_81_4169)"/>
<path d="M23.3343 14.3823C23.5438 13.7374 24.4562 13.7374 24.6657 14.3823L26.088 18.7595C26.1817 19.0479 26.4505 19.2432 26.7537 19.2432H31.3562C32.0343 19.2432 32.3162 20.1109 31.7676 20.5095L28.0442 23.2148C27.7988 23.393 27.6962 23.709 27.7899 23.9974L29.2121 28.3746C29.4217 29.0195 28.6835 29.5558 28.1349 29.1572L24.4114 26.452C24.1661 26.2737 23.8339 26.2737 23.5886 26.452L19.8651 29.1572C19.3165 29.5558 18.5783 29.0195 18.7879 28.3746L20.2101 23.9974C20.3038 23.709 20.2012 23.393 19.9558 23.2148L16.2324 20.5095C15.6838 20.1109 15.9657 19.2432 16.6438 19.2432H21.2463C21.5495 19.2432 21.8183 19.0479 21.912 18.7595L23.3343 14.3823Z" fill="url(#paint4_linear_81_4169)"/>
<defs>
<linearGradient id="paint0_linear_81_4169" x1="9" y1="30.6666" x2="9" y2="41.8192" gradientUnits="userSpaceOnUse">
<stop stop-color="#FA005C"/>
<stop offset="1" stop-color="#FF9800"/>
</linearGradient>
<linearGradient id="paint1_linear_81_4169" x1="39" y1="30.6666" x2="39" y2="41.8192" gradientUnits="userSpaceOnUse">
<stop stop-color="#FA005C"/>
<stop offset="1" stop-color="#FF9800"/>
</linearGradient>
<linearGradient id="paint2_linear_81_4169" x1="9" y1="7.33336" x2="9" y2="37.3334" gradientUnits="userSpaceOnUse">
<stop stop-color="#FA005C"/>
<stop offset="1" stop-color="#FF9800"/>
</linearGradient>
<radialGradient id="paint3_radial_81_4169" cx="0" cy="0" r="1" gradientUnits="userSpaceOnUse" gradientTransform="translate(9.89123 26.3281) rotate(-15.2093) scale(32.8954 20.2541)">
<stop stop-color="#FFBBBB"/>
<stop offset="1" stop-color="white"/>
</radialGradient>
<linearGradient id="paint4_linear_81_4169" x1="14" y1="12.3334" x2="14" y2="32.3334" gradientUnits="userSpaceOnUse">
<stop stop-color="#FA005C"/>
<stop offset="1" stop-color="#FF9800"/>
</linearGradient>
</defs>
</svg>
