<svg width="16" height="17" viewBox="0 0 16 17" fill="none" xmlns="http://www.w3.org/2000/svg">
<path fill-rule="evenodd" clip-rule="evenodd" d="M13.9998 4.66524V12.6652C13.9998 13.4016 13.4028 13.9986 12.6665 13.9986H6.55208C6.19846 13.9986 5.85932 13.8581 5.60927 13.6081L1.60927 9.60805C1.08857 9.08735 1.08858 8.24313 1.60927 7.72243L5.60928 3.72243C5.85932 3.47238 6.19846 3.33191 6.55208 3.33191H12.6665C13.4028 3.33191 13.9998 3.92886 13.9998 4.66524ZM10.8666 6.79841C11.1244 7.05614 11.1244 7.47401 10.8666 7.73174L9.93311 8.66527L10.8663 9.59846C11.124 9.85619 11.124 10.2741 10.8663 10.5318C10.6086 10.7895 10.1907 10.7895 9.93297 10.5318L8.99977 9.5986L8.06663 10.5317C7.8089 10.7895 7.39103 10.7895 7.1333 10.5317C6.87557 10.274 6.87557 9.85614 7.1333 9.59841L8.06644 8.66527L7.13297 7.73179C6.87524 7.47406 6.87524 7.05619 7.13297 6.79846C7.3907 6.54073 7.80857 6.54073 8.0663 6.79846L8.99977 7.73193L9.9333 6.79841C10.191 6.54068 10.6089 6.54068 10.8666 6.79841Z" fill="black"/>
</svg>
