<svg width="32" height="32" viewBox="0 0 32 32" fill="none" xmlns="http://www.w3.org/2000/svg">
<path d="M24.8974 17.456L24.9654 17.348L24.9614 17.3387C25.1921 16.944 25.3334 16.4907 25.3334 16C25.3334 14.7013 24.4041 13.6227 23.1747 13.384L18.6667 12V5.33332C18.6667 3.85999 17.4734 2.66666 16.0001 2.66666C15.0507 2.66666 14.2227 3.16666 13.7494 3.91466L13.7427 3.91332L7.15075 14.4747C6.84808 14.9067 6.66675 15.4307 6.66675 16C6.66675 17.2133 7.48141 18.2253 8.58941 18.548L8.59208 18.556L13.3334 20V26.6667C13.3334 28.14 14.5267 29.3333 16.0001 29.3333C17.0307 29.3333 17.9147 28.7413 18.3587 27.8853L24.8654 17.5053C24.8774 17.4893 24.8867 17.472 24.8974 17.456Z" fill="#E2B00A"/>
</svg>
