<svg width="128" height="128" viewBox="0 0 128 128" fill="none" xmlns="http://www.w3.org/2000/svg">
<path d="M14.9604 44.1972C13.8769 44.1972 13 43.3218 13 42.2426V23.7751C13 17.8334 17.8361 13 23.7791 13H42.2444C43.3268 13 44.2048 13.8754 44.2048 14.9546C44.2048 16.0349 43.3268 16.9091 42.2444 16.9091H23.7791C19.9973 16.9091 16.9219 19.9882 16.9219 23.7739V42.2415C16.9219 43.3218 16.0439 44.1972 14.9604 44.1972Z" fill="black"/>
<path d="M42.2444 115H23.7791C17.835 115 13 110.167 13 104.225V85.7562C13 84.6771 13.878 83.8016 14.9604 83.8016C16.0439 83.8016 16.9207 84.6771 16.9207 85.7562V104.225C16.9207 108.011 19.9973 111.09 23.778 111.09H42.2433C43.3256 111.09 44.2036 111.965 44.2036 113.044C44.206 114.125 43.328 115 42.2444 115Z" fill="black"/>
<path d="M113.04 44.1972C111.956 44.1972 111.079 43.3218 111.079 42.2427V23.7751C111.079 19.9894 108.003 16.9103 104.222 16.9103H85.7543C84.6708 16.9103 83.7939 16.0349 83.7939 14.9557C83.7939 13.8754 84.672 13.0012 85.7543 13.0012H104.221C110.165 13.0012 115 17.8346 115 23.7762V42.2438C115 43.3218 114.122 44.1972 113.04 44.1972Z" fill="black"/>
<path d="M104.221 115H85.7543C84.6708 115 83.7939 114.125 83.7939 113.045C83.7939 111.965 84.672 111.091 85.7543 111.091H104.221C108.003 111.091 111.078 108.012 111.078 104.226V85.7574C111.078 84.6783 111.956 83.8029 113.038 83.8029C114.121 83.8029 114.999 84.6783 114.999 85.7574V104.226C115 110.167 110.165 115 104.221 115Z" fill="black"/>
<path fill-rule="evenodd" clip-rule="evenodd" d="M98.6993 62.3026H66V29.7003H98.6993V62.3026ZM69.8677 34H94.8677V58H69.8677V34Z" fill="black"/>
<path d="M89.8677 39H74.8677V53H89.8677V39Z" fill="black"/>
<path fill-rule="evenodd" clip-rule="evenodd" d="M61.6993 62.3026H29V29.7003H61.6993V62.3026ZM32.8677 34H57.8677V58H32.8677V34Z" fill="black"/>
<path d="M52.8677 39H37.8677V53H52.8677V39Z" fill="black"/>
<path fill-rule="evenodd" clip-rule="evenodd" d="M61.6993 98.6023H29V66H61.6993V98.6023ZM32.8677 70.2997H57.8677V94.2997H32.8677V70.2997Z" fill="black"/>
<path d="M52.8677 75.2997H37.8677V89.2997H52.8677V75.2997Z" fill="black"/>
<path fill-rule="evenodd" clip-rule="evenodd" d="M68.7156 64.7845H65.2549V74.6202H68.7156V64.7845ZM99.7825 64.7845H96.3218V69.7018H99.7825V64.7845ZM75.5776 64.7845H79.0383V69.7018H75.5776V64.7845ZM75.637 69.703H72.1763V74.6202H68.7158V79.5386H72.1765V74.6214H75.5972V79.5386H79.0195H79.0579H82.4802V74.6214V74.6202V69.703H79.0195V74.6202H75.637V69.703ZM85.9399 74.6202H82.4805V79.5386H85.9399H85.9412H89.4007V74.6214H92.8611V69.703H89.4004V74.6202H85.9412H85.9399ZM82.4805 84.4571H85.9399V89.3754H89.4004V94.2915H92.8611V89.3743H89.4007V84.4571H92.8611V79.5387H89.4004V84.457H85.9412V79.5387H82.4805V84.4571ZM79.0195 79.5387H82.4802V84.4571H79.0579V89.3743H82.4802V94.2915H79.0195V89.3754H75.637V94.2915H72.1763V89.3743H75.5972V84.4571H72.1763V79.5387H75.637V84.457H79.0195V79.5387ZM82.4805 94.2927H85.9399H85.9412H89.4007V99.2111H85.9412H85.9399H82.4805V94.2927ZM96.322 94.2927H92.8613V99.2111H96.322V94.2927ZM72.1765 94.2927H75.637V99.2111H72.1765H72.1763H68.7158V94.2927H72.1763H72.1765ZM65.2549 84.457H68.7156V89.3754H65.2549V84.457ZM96.322 69.703H92.8613V74.6214H96.322V69.703ZM96.322 79.5387H92.8613V84.4571H96.3218V89.3754H99.7825V84.457H96.322V79.5387Z" fill="black"/>
</svg>
