<svg width="24" height="24" viewBox="0 0 24 24" fill="none" xmlns="http://www.w3.org/2000/svg">
<path fill-rule="evenodd" clip-rule="evenodd" d="M6.5 3C7.64941 3 8.66941 3.55406 9.3075 4.40967C10.1577 4.14347 11.0621 4 12 4C12.9379 4 13.8423 4.14347 14.6925 4.40967C15.3306 3.55406 16.3506 3 17.5 3C19.433 3 21 4.567 21 6.5C21 7.44036 20.6292 8.2941 20.0257 8.92296C20.6487 10.1469 21 11.5325 21 13C21 17.9706 16.9706 22 12 22C7.02944 22 3 17.9706 3 13C3 11.5325 3.35125 10.1469 3.97427 8.92296C3.37085 8.2941 3 7.44036 3 6.5C3 4.567 4.567 3 6.5 3ZM13.5041 8.86258C13.5597 8.63955 13.463 8.40504 13.272 8.29942C13.0809 8.19379 12.8472 8.24566 12.7107 8.42397L9.20651 13.0012C9.10791 13.13 9.07696 13.3038 9.12434 13.4626C9.17173 13.6214 9.29096 13.7435 9.44087 13.7866L11.2051 14.2946L10.4963 17.1374C10.4407 17.3604 10.5373 17.5949 10.7284 17.7006C10.9194 17.8062 11.1532 17.7543 11.2897 17.576L14.7938 12.9988C14.8924 12.87 14.9234 12.6962 14.876 12.5374C14.8286 12.3786 14.7094 12.2565 14.5595 12.2133L12.7953 11.7053L13.5041 8.86258Z" fill="black"/>
</svg>
