<svg width="24" height="24" viewBox="0 0 24 24" fill="none" xmlns="http://www.w3.org/2000/svg">
<path d="M14 15.5C13.17 15.5 12.5 14.83 12.5 14C12.5 13.17 13.17 12.5 14 12.5C14.83 12.5 15.5 13.17 15.5 14C15.5 14.83 14.83 15.5 14 15.5Z" fill="black"/>
<path d="M14 21C13.17 21 12.5 20.33 12.5 19.5C12.5 18.67 13.17 18 14 18C14.83 18 15.5 18.67 15.5 19.5C15.5 20.33 14.83 21 14 21Z" fill="black"/>
<path fill-rule="evenodd" clip-rule="evenodd" d="M11.5 9.5V5.5C11.5 4.12 10.38 3 9 3H5.5C4.12 3 3 4.12 3 5.5V9C3 10.38 4.12 11.5 5.5 11.5H9.5C10.05 11.5 10.55 11.28 10.92 10.91C11.24 10.58 11.45 10.14 11.49 9.66C11.5 9.6 11.5 9.55 11.5 9.5ZM6.13 9.38012H8.38C8.93001 9.38012 9.38 8.93012 9.38 8.37012V6.12012C9.38 5.57012 8.93001 5.12012 8.38 5.12012H6.13C5.58 5.12012 5.13 5.57012 5.13 6.12012V8.38012C5.13 8.93012 5.58 9.38012 6.13 9.38012Z" fill="black"/>
<path fill-rule="evenodd" clip-rule="evenodd" d="M5.5 21H9C10.38 21 11.5 19.88 11.5 18.5V15C11.5 13.62 10.38 12.5 9 12.5H5.5C4.12 12.5 3 13.62 3 15V18.5C3 19.88 4.12 21 5.5 21ZM6.13 18.8793H8.38C8.93001 18.8793 9.38 18.4293 9.38 17.8793V15.6293C9.38 15.0793 8.93001 14.6293 8.38 14.6293H6.13C5.58 14.6293 5.13 15.0793 5.13 15.6293V17.8793C5.13 18.4293 5.58 18.8793 6.13 18.8793Z" fill="black"/>
<path fill-rule="evenodd" clip-rule="evenodd" d="M21 9.5V5.5C21 4.12 19.88 3 18.5 3H15C13.62 3 12.5 4.12 12.5 5.5V9C12.5 10.38 13.62 11.5 15 11.5H19C19.55 11.5 20.05 11.28 20.42 10.91C20.74 10.58 20.95 10.14 20.99 9.66C21 9.6 21 9.55 21 9.5ZM15.63 9.38012H17.88C18.43 9.38012 18.88 8.93012 18.88 8.37012V6.12012C18.88 5.57012 18.43 5.12012 17.88 5.12012H15.63C15.08 5.12012 14.63 5.57012 14.63 6.12012V8.38012C14.63 8.93012 15.08 9.38012 15.63 9.38012Z" fill="black"/>
<path fill-rule="evenodd" clip-rule="evenodd" d="M17 18H18V19.5C18 20.33 18.67 21 19.5 21C20.33 21 21 20.33 21 19.5V17.5V17.25V16.5C21 15.67 20.33 15 19.5 15H17C16.17 15 15.5 15.67 15.5 16.5C15.5 17.33 16.17 18 17 18Z" fill="black"/>
</svg>
