<svg width="16" height="16" viewBox="0 0 16 16" fill="none" xmlns="http://www.w3.org/2000/svg">
<path d="M8 0C3.58962 0 0 3.58962 0 8C0 12.4104 3.58962 16 8 16C12.4104 16 16 12.4104 16 8C16 3.58962 12.4104 0 8 0ZM8 1.33333C11.6898 1.33333 14.6667 4.31021 14.6667 8C14.6667 11.6898 11.6898 14.6667 8 14.6667C4.31021 14.6667 1.33333 11.6898 1.33333 8C1.33333 4.31021 4.31021 1.33333 8 1.33333ZM5 6.66667C4.73478 6.66667 4.48043 6.77202 4.29289 6.95956C4.10536 7.1471 4 7.40145 4 7.66667C4 7.93188 4.10536 8.18624 4.29289 8.37377C4.48043 8.56131 4.73478 8.66667 5 8.66667C5.26522 8.66667 5.51957 8.56131 5.70711 8.37377C5.89464 8.18624 6 7.93188 6 7.66667C6 7.40145 5.89464 7.1471 5.70711 6.95956C5.51957 6.77202 5.26522 6.66667 5 6.66667ZM11 6.66667C10.7348 6.66667 10.4804 6.77202 10.2929 6.95956C10.1054 7.1471 10 7.40145 10 7.66667C10 7.93188 10.1054 8.18624 10.2929 8.37377C10.4804 8.56131 10.7348 8.66667 11 8.66667C11.2652 8.66667 11.5196 8.56131 11.7071 8.37377C11.8946 8.18624 12 7.93188 12 7.66667C12 7.40145 11.8946 7.1471 11.7071 6.95956C11.5196 6.77202 11.2652 6.66667 11 6.66667ZM8 10C6.98889 10 6.18564 10.4042 5.64974 10.7943C5.50683 10.8984 5.41114 11.055 5.3837 11.2297C5.35626 11.4044 5.39933 11.5829 5.50342 11.7258C5.60752 11.8687 5.76413 11.9645 5.9388 11.992C6.11348 12.0195 6.29192 11.9764 6.4349 11.8724C6.815 11.5958 7.34444 11.3333 8 11.3333C8.65556 11.3333 9.185 11.5958 9.5651 11.8724C9.63589 11.924 9.71615 11.9611 9.80129 11.9817C9.88644 12.0022 9.9748 12.0058 10.0613 11.9922C10.1479 11.9787 10.2309 11.9481 10.3056 11.9025C10.3803 11.8568 10.4453 11.7968 10.4969 11.726C10.5485 11.6552 10.5856 11.575 10.6061 11.4898C10.6267 11.4047 10.6302 11.3163 10.6166 11.2298C10.603 11.1432 10.5725 11.0603 10.5268 10.9855C10.4811 10.9108 10.4211 10.8458 10.3503 10.7943C9.81437 10.4042 9.01111 10 8 10Z" fill="black"/>
</svg>
