<svg width="24" height="24" viewBox="0 0 24 24" fill="none" xmlns="http://www.w3.org/2000/svg">
<path fill-rule="evenodd" clip-rule="evenodd" d="M21.0997 3.76862C20.4527 3.39509 19.6838 3.42411 19.083 3.77797C19.8705 4.37897 20.1081 5.48577 19.5996 6.36655L19.0996 7.23257C19.0149 7.37927 18.9144 7.51119 18.8015 7.62741C21.2471 10.446 21.7664 14.6136 19.7957 18.0269C17.3104 22.3315 11.8061 23.8064 7.5015 21.3211C3.19687 18.8358 1.72199 13.3315 4.20727 9.02687C6.17792 5.6136 10.0467 3.9795 13.7105 4.68813C13.7547 4.53226 13.8187 4.37928 13.9034 4.23257L14.4034 3.36654C14.9557 2.40996 16.1789 2.08221 17.1355 2.63449L17.2448 2.6976C18.492 1.42557 20.4856 1.10466 22.0997 2.03657C22.578 2.31271 22.7419 2.9243 22.4657 3.40259C22.1896 3.88088 21.578 4.04476 21.0997 3.76862ZM13.4629 8.0365C14.0152 8.0365 14.4629 8.55883 14.4629 9.20317L14.4629 18.2034C14.4629 18.8477 14.0152 19.3701 13.4629 19.3701C12.9106 19.3701 12.4629 18.8477 12.4629 18.2034V9.20317C12.4629 8.55883 12.9106 8.0365 13.4629 8.0365ZM10.4629 10.0365C11.0152 10.0365 11.4629 10.5588 11.4629 11.2032V16.2032C11.4629 16.8475 11.0152 17.3698 10.4629 17.3698C9.91061 17.3698 9.46289 16.8475 9.46289 16.2032V11.2032C9.46289 10.5588 9.91061 10.0365 10.4629 10.0365ZM7.46289 12.0364C8.01518 12.0364 8.46289 12.5588 8.46289 13.2031V14.3698C8.46289 15.0141 8.01518 15.5364 7.46289 15.5364C6.91061 15.5364 6.46289 15.0141 6.46289 14.3698V13.2031C6.46289 12.5588 6.91061 12.0364 7.46289 12.0364ZM17.4629 12.2032C17.4629 11.5588 17.0152 11.0365 16.4629 11.0365C15.9106 11.0365 15.4629 11.5588 15.4629 12.2032L15.4629 15.5365C15.4629 16.1808 15.9106 16.7032 16.4629 16.7032C17.0152 16.7032 17.4629 16.1808 17.4629 15.5365L17.4629 12.2032Z" fill="url(#paint0_linear_81_4088)"/>
<defs>
<linearGradient id="paint0_linear_81_4088" x1="3" y1="1.5" x2="3" y2="22.5284" gradientUnits="userSpaceOnUse">
<stop stop-color="#FA005C"/>
<stop offset="1" stop-color="#FF9800"/>
</linearGradient>
</defs>
</svg>
