<svg width="24" height="24" viewBox="0 0 24 24" fill="none" xmlns="http://www.w3.org/2000/svg">
<path fill-rule="evenodd" clip-rule="evenodd" d="M12 20C16.4183 20 20 16.4183 20 12C20 7.58172 16.4183 4 12 4C7.58172 4 4 7.58172 4 12C4 16.4183 7.58172 20 12 20ZM22 12C22 17.5228 17.5228 22 12 22C6.47715 22 2 17.5228 2 12C2 6.47715 6.47715 2 12 2C17.5228 2 22 6.47715 22 12Z" fill="black"/>
<path d="M13 15.5C13 16.0523 12.5523 16.5 12 16.5C11.4477 16.5 11 16.0523 11 15.5C11 14.9477 11.4477 14.5 12 14.5C12.5523 14.5 13 14.9477 13 15.5Z" fill="black"/>
<path fill-rule="evenodd" clip-rule="evenodd" d="M15.1431 9.61C15.1431 10.62 14.6831 11.33 13.8031 11.89C13.5031 12.08 13.1731 12.29 12.9631 12.59C12.9031 12.68 12.8531 12.78 12.8131 12.89C12.7631 13.05 12.7731 13.26 12.6531 13.4C12.5331 13.61 12.2931 13.75 12.0331 13.75H11.8231C11.5431 13.75 11.2931 13.59 11.1731 13.36C11.1231 13.27 11.0831 13.17 11.0731 13.07C11.0731 12.97 11.0931 12.87 11.0931 12.78C11.1131 12.61 11.1431 12.45 11.1931 12.29C11.3131 11.98 11.5031 11.72 11.7431 11.5C11.8831 11.37 12.0431 11.26 12.2031 11.15C13.0031 10.64 13.2531 10.31 13.2531 9.67C13.2531 9.03 12.7731 8.56 12.0631 8.56C11.5431 8.56 11.1631 8.81 10.9631 9.23C10.8131 9.56 10.5231 9.81 10.1631 9.81C9.58307 9.81 9.14307 9.23 9.35307 8.7C9.76307 7.66 10.7331 7 12.1731 7C13.9631 7 15.1431 8.07 15.1431 9.61Z" fill="black"/>
</svg>
