<svg width="24" height="24" viewBox="0 0 24 24" fill="none" xmlns="http://www.w3.org/2000/svg">
<path d="M17.782 5.057C16.522 3.212 14.403 2 12 2C8.803 2 6.113 4.145 5.275 7.073C2.86 7.427 1 9.487 1 12C1 14.761 3.239 17 6 17H17C20.314 17 23 14.314 23 11C23 7.952 20.726 5.441 17.782 5.057Z" fill="#E8F1FF"/>
<path d="M3.50002 21.866C3.02202 21.59 2.85802 20.978 3.13402 20.5L8.12502 12.5C8.40102 12.022 9.01302 11.858 9.49102 12.134C9.96902 12.41 10.133 13.022 9.85702 13.5L4.86602 21.5C4.59002 21.978 3.97802 22.142 3.50002 21.866Z" fill="#A9BBD9"/>
<path d="M13.5091 21.866C13.0311 21.59 12.8671 20.978 13.1431 20.5L18.1341 12.5C18.4101 12.022 19.0221 11.858 19.5001 12.134C19.9781 12.41 20.1421 13.022 19.8661 13.5L14.8751 21.5C14.5991 21.978 13.9871 22.142 13.5091 21.866Z" fill="#A9BBD9"/>
<path d="M8.50903 21.866C8.03003 21.59 7.86703 20.978 8.14303 20.5L13.134 12.5C13.41 12.022 14.022 11.858 14.5 12.134C14.978 12.41 15.142 13.022 14.866 13.5L9.87503 21.5C9.59903 21.978 8.98703 22.142 8.50903 21.866Z" fill="#A9BBD9"/>
</svg>
