<svg width="48" height="48" viewBox="0 0 48 48" fill="none" xmlns="http://www.w3.org/2000/svg">
<path d="M37.346 26.184L37.448 26.022L37.442 26.008C37.788 25.416 38 24.736 38 24C38 22.052 36.606 20.434 34.762 20.076L28 18V8C28 5.79 26.21 4 24 4C22.576 4 21.334 4.75 20.624 5.872L20.614 5.87L10.726 21.712C10.272 22.36 10 23.146 10 24C10 25.82 11.222 27.338 12.884 27.822L12.888 27.834L20 30V40C20 42.21 21.79 44 24 44C25.546 44 26.872 43.112 27.538 41.828L37.298 26.258C37.316 26.234 37.33 26.208 37.346 26.184Z" fill="#F0B902"/>
</svg>
