<svg width="24" height="24" viewBox="0 0 24 24" fill="none" xmlns="http://www.w3.org/2000/svg">
<path fill-rule="evenodd" clip-rule="evenodd" d="M11.8922 5.5446C9.22104 5.5446 6.96208 7.391 6.23657 9.92542C6.08166 10.4666 5.53413 10.7747 5.01363 10.6136C4.49312 10.4526 4.19675 9.88334 4.35166 9.3422C5.31852 5.96467 8.32725 3.5 11.8922 3.5C15.4572 3.5 18.466 5.96467 19.4328 9.3422C19.5877 9.88334 19.2914 10.4526 18.7708 10.6136C18.2503 10.7747 17.7028 10.4666 17.5479 9.92542C16.8224 7.391 14.5634 5.5446 11.8922 5.5446Z" fill="black"/>
<path fill-rule="evenodd" clip-rule="evenodd" d="M20.0516 6.61323C20.57 6.78133 20.8592 7.35454 20.6976 7.89354L19.8695 10.6539C19.7078 11.1929 19.1565 11.4936 18.6381 11.3255L15.983 10.4646C15.4645 10.2965 15.1753 9.72333 15.337 9.18433C15.4987 8.64533 16.05 8.34465 16.5685 8.51275L18.2848 9.06925L18.8201 7.28481C18.9818 6.74581 19.5331 6.44514 20.0516 6.61323Z" fill="black"/>
<path fill-rule="evenodd" clip-rule="evenodd" d="M12.1078 18.4554C14.779 18.4554 17.0379 16.609 17.7634 14.0746C17.9183 13.5334 18.4659 13.2253 18.9864 13.3864C19.5069 13.5474 19.8033 14.1167 19.6483 14.6578C18.6815 18.0353 15.6728 20.5 12.1078 20.5C8.54278 20.5 5.53405 18.0353 4.56719 14.6578C4.41228 14.1167 4.70865 13.5474 5.22915 13.3864C5.74966 13.2253 6.29719 13.5334 6.4521 14.0746C7.17761 16.609 9.43657 18.4554 12.1078 18.4554Z" fill="black"/>
<path fill-rule="evenodd" clip-rule="evenodd" d="M3.94841 17.3868C3.42997 17.2187 3.14076 16.6455 3.30245 16.1065L4.13048 13.3461C4.29216 12.8071 4.84351 12.5064 5.36195 12.6745L8.01705 13.5354C8.53549 13.7035 8.82469 14.2767 8.66301 14.8157C8.50133 15.3547 7.94998 15.6553 7.43154 15.4873L5.71516 14.9307L5.17988 16.7152C5.0182 17.2542 4.46685 17.5549 3.94841 17.3868Z" fill="black"/>
</svg>
