<svg width="24" height="24" viewBox="0 0 24 24" fill="none" xmlns="http://www.w3.org/2000/svg">
<path fill-rule="evenodd" clip-rule="evenodd" d="M19 21H5C3.9 21 3 20.1 3 19V5C3 3.9 3.9 3 5 3H19C20.1 3 21 3.9 21 5V19C21 20.1 20.1 21 19 21ZM18.3002 14.0999C18.6868 13.7133 18.6868 13.0865 18.3002 12.6999C17.9136 12.3133 17.2868 12.3133 16.9002 12.6999L15.5001 14.1L14.1001 12.7C13.7135 12.3134 13.0867 12.3134 12.7001 12.7C12.3135 13.0866 12.3135 13.7134 12.7001 14.1L14.1001 15.5L12.7003 16.8999C12.3137 17.2865 12.3137 17.9133 12.7003 18.2999C13.0869 18.6865 13.7137 18.6865 14.1003 18.2999L15.5001 16.9L16.9001 18.3C17.2867 18.6866 17.9135 18.6866 18.3001 18.3C18.6867 17.9134 18.6867 17.2866 18.3001 16.9L16.9001 15.5L18.3002 14.0999ZM8.95983 12.9196C8.4131 12.9196 7.96988 12.4764 7.96988 11.9296V9.94962L5.98995 9.94962C5.44322 9.94962 5 9.5064 5 8.95967C5 8.41293 5.44322 7.96972 5.98995 7.96972H7.96988V5.98995C7.96988 5.44321 8.4131 5 8.95983 5C9.50656 5 9.94978 5.44322 9.94978 5.98995L9.94978 7.96972H11.9296C12.4764 7.96972 12.9196 8.41294 12.9196 8.95967C12.9196 9.5064 12.4764 9.94962 11.9296 9.94962L9.94978 9.94962L9.94978 11.9296C9.94978 12.4764 9.50656 12.9196 8.95983 12.9196Z" fill="black"/>
</svg>
