<svg width="16" height="16" viewBox="0 0 16 16" fill="none" xmlns="http://www.w3.org/2000/svg">
<path d="M8 0C3.58962 0 0 3.58962 0 8C0 12.4104 3.58962 16 8 16C12.4104 16 16 12.4104 16 8C16 3.58962 12.4104 0 8 0ZM8 1.33333C11.6898 1.33333 14.6667 4.31021 14.6667 8C14.6667 11.6898 11.6898 14.6667 8 14.6667C4.31021 14.6667 1.33333 11.6898 1.33333 8C1.33333 4.31021 4.31021 1.33333 8 1.33333ZM4 6V7.33333C4 8.07 4.59667 8.66667 5.33333 8.66667C6.07 8.66667 6.66667 8.07 6.66667 7.33333L4 6ZM12 6L9.33333 7.33333C9.33333 8.07 9.93 8.66667 10.6667 8.66667C11.4033 8.66667 12 8.07 12 7.33333V6ZM7.33333 10.6667L6.66667 11.3333L6.04687 10.7135C5.63554 10.8375 5.33333 11.2147 5.33333 11.6667C5.33333 12.2187 5.78133 12.6667 6.33333 12.6667H9.66667C10.2187 12.6667 10.6667 12.2187 10.6667 11.6667C10.6667 11.2147 10.3645 10.8375 9.95313 10.7135L9.33333 11.3333L8.66667 10.6667L8 11.3333L7.33333 10.6667Z" fill="black"/>
</svg>
