<svg width="24" height="24" viewBox="0 0 24 24" fill="none" xmlns="http://www.w3.org/2000/svg">
<path d="M17.782 4.557C16.522 2.712 14.403 1.5 12 1.5C8.803 1.5 6.113 3.645 5.275 6.573C2.86 6.927 1 8.987 1 11.5C1 14.261 3.239 16.5 6 16.5H17C20.314 16.5 23 13.814 23 10.5C23 7.452 20.726 4.941 17.782 4.557Z" fill="#E8F1FF"/>
<path d="M10.7991 14.5C10.5226 14.5 10.2991 14.2765 10.2991 14V11C10.2991 10.7235 10.5226 10.5 10.7991 10.5C11.0756 10.5 11.2991 10.7235 11.2991 11V14C11.2991 14.2765 11.0756 14.5 10.7991 14.5Z" fill="#A9BBD9"/>
<path d="M9.50051 13.75C9.32751 13.75 9.15951 13.6605 9.06701 13.5C8.92901 13.2605 9.01101 12.955 9.25001 12.817L11.8475 11.317C12.086 11.179 12.392 11.2605 12.5305 11.5C12.6685 11.7395 12.5865 12.045 12.3475 12.183L9.75001 13.683C9.67151 13.7285 9.58551 13.75 9.50051 13.75Z" fill="#A9BBD9"/>
<path d="M12.0975 13.75C12.0125 13.75 11.9265 13.7285 11.848 13.683L9.25049 12.183C9.01099 12.045 8.92899 11.7395 9.06699 11.5C9.20499 11.2605 9.51149 11.1785 9.74999 11.317L12.3475 12.817C12.587 12.955 12.669 13.261 12.5305 13.5C12.438 13.6605 12.27 13.75 12.0975 13.75Z" fill="#A9BBD9"/>
<path d="M8.29907 23C8.02257 23 7.79907 22.7765 7.79907 22.5V19.5C7.79907 19.2235 8.02257 19 8.29907 19C8.57557 19 8.79907 19.2235 8.79907 19.5V22.5C8.79907 22.7765 8.57557 23 8.29907 23Z" fill="#A9BBD9"/>
<path d="M7.00051 22.25C6.82751 22.25 6.65951 22.1605 6.56701 22C6.42901 21.7605 6.51101 21.455 6.75001 21.317L9.34751 19.817C9.58601 19.6785 9.89201 19.7605 10.0305 20C10.1685 20.2395 10.0865 20.545 9.84751 20.683L7.25001 22.183C7.17151 22.2285 7.08551 22.25 7.00051 22.25Z" fill="#A9BBD9"/>
<path d="M9.59749 22.25C9.51249 22.25 9.42649 22.2285 9.34799 22.183L6.75049 20.683C6.51099 20.545 6.42899 20.2395 6.56699 20C6.70499 19.7605 7.01099 19.678 7.24999 19.817L9.84749 21.317C10.087 21.455 10.169 21.761 10.0305 22C9.93799 22.1605 9.76999 22.25 9.59749 22.25Z" fill="#A9BBD9"/>
<path d="M15.7991 21C15.5226 21 15.2991 20.7765 15.2991 20.5V17.5C15.2991 17.2235 15.5226 17 15.7991 17C16.0756 17 16.2991 17.2235 16.2991 17.5V20.5C16.2991 20.7765 16.0756 21 15.7991 21Z" fill="#A9BBD9"/>
<path d="M14.5005 20.25C14.3275 20.25 14.1595 20.1605 14.067 20C13.929 19.7605 14.011 19.455 14.25 19.317L16.8475 17.817C17.0855 17.679 17.392 17.7605 17.5305 18C17.6685 18.2395 17.5865 18.545 17.3475 18.683L14.75 20.183C14.6715 20.2285 14.5855 20.25 14.5005 20.25Z" fill="#A9BBD9"/>
<path d="M17.0975 20.25C17.0125 20.25 16.9265 20.2285 16.848 20.183L14.2505 18.683C14.011 18.545 13.929 18.2395 14.067 18C14.205 17.7605 14.5115 17.6785 14.75 17.817L17.3475 19.317C17.587 19.455 17.669 19.761 17.5305 20C17.438 20.1605 17.27 20.25 17.0975 20.25Z" fill="#A9BBD9"/>
</svg>
