<svg width="24" height="24" viewBox="0 0 24 24" fill="none" xmlns="http://www.w3.org/2000/svg">
<path fill-rule="evenodd" clip-rule="evenodd" d="M6 9C4.34315 9 3 10.3431 3 12V19C3 20.6569 4.34315 22 6 22H18C19.6569 22 21 20.6569 21 19V12C21 10.3431 19.6569 9 18 9H6ZM12 13C11.4477 13 11 13.4477 11 14V16C11 16.5523 11.4477 17 12 17C12.5523 17 13 16.5523 13 16V14C13 13.4477 12.5523 13 12 13Z" fill="black"/>
<path fill-rule="evenodd" clip-rule="evenodd" d="M15 10V8C15 6.34315 13.6569 5 12 5C10.3431 5 9 6.34315 9 8V10H15ZM12 2C8.68629 2 6 4.68629 6 8V12H18V8C18 4.68629 15.3137 2 12 2Z" fill="black"/>
</svg>
