<svg width="24" height="24" viewBox="0 0 24 24" fill="none" xmlns="http://www.w3.org/2000/svg">
<path d="M16.1667 19.3333C16.0417 19.25 13.4167 16.5417 13.4167 11.6667C13.4167 6.79167 16.0417 4.08333 16.1667 4L17.3333 5.16667L16.75 4.58333L17.3333 5.16667C17.3333 5.20833 15.0833 7.5 15.0833 11.6667C15.0833 15.875 17.3333 18.125 17.3333 18.1667L16.1667 19.3333ZM8.16667 19.3333L7 18.1667C7 18.1667 9.25 15.8333 9.25 11.6667C9.25 7.45833 7 5.20833 7 5.16667L8.16667 4C8.29167 4.08333 10.9167 6.79167 10.9167 11.6667C10.9167 16.5417 8.29167 19.25 8.16667 19.3333Z" fill="#00A3C7"/>
<path d="M7.5835 10.8334H16.7502V12.5001H7.5835V10.8334Z" fill="#00A3C7"/>
<path d="M13.4582 10.8334H15.1248C15.1665 10.3751 15.2082 9.9584 15.2915 9.5834H13.5832C13.5415 10.0001 13.4582 10.3751 13.4582 10.8334ZM9.20817 10.8334H10.8748C10.8332 10.3751 10.7915 10.0001 10.7498 9.5834H9.0415C9.12484 9.9584 9.1665 10.3751 9.20817 10.8334ZM15.1248 12.5001H13.4582C13.4998 12.9584 13.5415 13.3334 13.5832 13.7501H15.2915C15.2082 13.3751 15.1665 12.9584 15.1248 12.5001ZM10.8748 12.5001H9.20817C9.1665 12.9584 9.12484 13.3751 9.0415 13.7501H10.7498C10.7915 13.3334 10.8748 12.9584 10.8748 12.5001Z" fill="#005967"/>
</svg>
