<svg width="24" height="24" viewBox="0 0 24 24" fill="none" xmlns="http://www.w3.org/2000/svg">
<circle cx="19.6265" cy="15.4053" r="1" fill="black"/>
<circle cx="20.6265" cy="18.4053" r="1" fill="black"/>
<circle cx="17.6265" cy="18.4053" r="1" fill="black"/>
<path fill-rule="evenodd" clip-rule="evenodd" d="M17.9977 3.43934C18.5834 2.85355 19.5332 2.85355 20.119 3.43934C20.7048 4.02513 20.7048 4.97487 20.119 5.56066L16.2301 9.44951L17.6248 10.8442C18.2626 11.482 18.3946 12.4676 17.9471 13.2507L17.1621 14.6244L8.93448 6.39673L8.03452 6.91099L16.6479 15.5243L14.3473 19.5504C13.693 20.6954 12.1291 20.9048 11.1966 19.9723L10.5738 19.3495L13.0486 16.8748C13.2438 16.6795 13.2438 16.3629 13.0486 16.1677C12.8533 15.9724 12.5367 15.9724 12.3414 16.1677L9.86668 18.6424L7.74536 16.5211L10.2201 14.0463C10.4154 13.8511 10.4154 13.5345 10.2201 13.3392C10.0249 13.144 9.70828 13.144 9.51302 13.3392L7.03825 15.814L4.91693 13.6927L7.3917 11.2179C7.58696 11.0226 7.58696 10.7061 7.3917 10.5108C7.19643 10.3155 6.87985 10.3155 6.68459 10.5108L4.20983 12.9856L3.58599 12.3617C2.65349 11.4292 2.86293 9.86532 4.00793 9.21103L10.3076 5.61122C11.0907 5.16375 12.0764 5.29575 12.7141 5.93349L14.1088 7.32819L17.9977 3.43934ZM4.20983 12.9856L4.20972 12.9857L4.91682 13.6928L4.91693 13.6927L4.20983 12.9856ZM7.03825 15.814L7.03814 15.8141L7.74525 16.5212L7.74536 16.5211L7.03825 15.814ZM9.86668 18.6424L9.86657 18.6425L10.5737 19.3496L10.5738 19.3495L9.86668 18.6424ZM16.6479 15.5243L16.6484 15.5248L17.1626 14.6249L17.1621 14.6244L16.6479 15.5243Z" fill="black"/>
</svg>
