<svg width="24" height="24" viewBox="0 0 24 24" fill="none" xmlns="http://www.w3.org/2000/svg">
<path d="M16.375 12.9167C14.6667 12.9167 13.25 11.5 13.25 9.79166C13.25 8.08332 14.6667 6.66666 16.375 6.66666C18.0833 6.66666 19.5 8.08332 19.5 9.79166C19.5 11.5 18.0833 12.9167 16.375 12.9167ZM16.375 8.33332C15.5833 8.33332 14.9167 8.99999 14.9167 9.79166C14.9167 10.5833 15.5833 11.25 16.375 11.25C17.1667 11.25 17.8333 10.5833 17.8333 9.79166C17.8333 8.99999 17.1667 8.33332 16.375 8.33332Z" fill="#00A3C7"/>
<path d="M17.8333 9.70833C17.8333 9.58333 17.3333 6.66667 11.75 6.66667C8 6.66667 5.91667 8.5 5.875 8.54167L4.75 7.29167C4.875 7.20833 7.33333 5 11.75 5C18.9167 5 19.4583 9.29167 19.5 9.5L17.8333 9.70833ZM7.625 16.6667C5.91667 16.6667 4.5 15.25 4.5 13.5417C4.5 11.8333 5.91667 10.4167 7.625 10.4167C9.33333 10.4167 10.75 11.8333 10.75 13.5417C10.75 15.25 9.33333 16.6667 7.625 16.6667ZM7.625 12.0833C6.83333 12.0833 6.16667 12.75 6.16667 13.5417C6.16667 14.3333 6.83333 15 7.625 15C8.41667 15 9.08333 14.3333 9.08333 13.5417C9.08333 12.75 8.41667 12.0833 7.625 12.0833Z" fill="#00A3C7"/>
<path d="M12.25 18.3333C5.08333 18.3333 4.54167 14.0416 4.5 13.8333L6.16667 13.625C6.16667 13.75 6.66667 16.6666 12.25 16.6666C16 16.6666 18.0833 14.8333 18.125 14.7916L19.25 16.0416C19.125 16.125 16.6667 18.3333 12.25 18.3333Z" fill="#00A3C7"/>
<path d="M14.8752 7.04166C15.3335 6.79166 15.8335 6.66666 16.3752 6.66666C17.4168 6.66666 18.3752 7.20833 18.9168 7.99999C18.4585 7.29166 17.7085 6.45833 16.3335 5.83333C15.0002 5.58333 13.2918 5.91666 12.1252 6.66666C13.2502 6.70833 14.1252 6.83333 14.8752 7.04166ZM9.12516 16.2917C8.66683 16.5417 8.16683 16.6667 7.62516 16.6667C6.5835 16.6667 5.62516 16.125 5.0835 15.3333C5.54183 16.0417 6.29183 16.875 7.66683 17.5C9.00016 17.75 10.7085 17.4167 11.8752 16.6667C10.7502 16.625 9.87516 16.5 9.12516 16.2917Z" fill="#005967"/>
</svg>
