<svg width="24" height="24" viewBox="0 0 24 24" fill="none" xmlns="http://www.w3.org/2000/svg">
<path fill-rule="evenodd" clip-rule="evenodd" d="M21.9452 7.44874L19.936 6.76125C18.6716 6.32845 17.6795 5.30639 17.2594 4.00377L16.6288 1.97154C16.52 1.63051 16.2109 1.4 15.8625 1.4C15.514 1.4 15.205 1.63051 15.0962 1.97154L14.4289 4.04154C14.0088 5.34417 13.0167 6.36622 11.7523 6.79903L9.72104 7.44874C9.39002 7.56083 9.16628 7.87923 9.16628 8.23821C9.16628 8.59719 9.39002 8.91559 9.72104 9.02768L11.7303 9.71516C13.0097 10.1481 14.0121 11.1836 14.4289 12.5029L15.0962 14.5729C15.205 14.9139 15.514 15.1444 15.8625 15.1444C16.2109 15.1444 16.52 14.9139 16.6288 14.5729L17.2961 12.5029C17.7008 11.1972 18.679 10.1642 19.936 9.71516L21.9452 9.02768C22.2763 8.91559 22.5 8.59719 22.5 8.23821C22.5 7.87923 22.2763 7.56083 21.9452 7.44874ZM3.42929 8.14377L3.80327 9.29965C3.86721 9.48731 4.03921 9.6129 4.23225 9.6129C4.4253 9.6129 4.59729 9.48731 4.66124 9.29965L5.03522 8.14377C5.27173 7.43404 5.81293 6.87647 6.50183 6.63282L7.62379 6.24753C7.80594 6.18165 7.92784 6.00446 7.92784 5.80558C7.92784 5.6067 7.80594 5.4295 7.62379 5.36362L6.52383 4.94811C5.83553 4.70347 5.29468 4.14628 5.05722 3.43716L4.6539 2.25106C4.58996 2.06341 4.41797 1.93782 4.22492 1.93782C4.03188 1.93782 3.85988 2.06341 3.79594 2.25106L3.42929 3.40694C3.19278 4.11668 2.65158 4.67424 1.96268 4.91789L0.804054 5.33341C0.621907 5.39928 0.5 5.57648 0.5 5.77536C0.5 5.97424 0.621907 6.15144 0.804054 6.21731L1.96268 6.6026C2.6581 6.85256 3.20048 7.42251 3.42929 8.14377ZM12.6323 16.1669L10.9603 15.5928C9.92576 15.2293 9.11323 14.3922 8.76041 13.3263L8.2031 11.6039C8.10944 11.3232 7.85317 11.1348 7.56513 11.1348C7.27708 11.1348 7.02081 11.3232 6.92715 11.6039L6.3625 13.2961C6.00969 14.362 5.19716 15.1991 4.16259 15.5625L2.49065 16.1367C2.21827 16.2332 2.03539 16.4972 2.03539 16.794C2.03539 17.0907 2.21827 17.3547 2.49065 17.4512L4.09659 18.0254C5.13116 18.3889 5.94369 19.226 6.29651 20.2918L6.85382 22.0143C6.94748 22.2949 7.20375 22.4833 7.49179 22.4833C7.77984 22.4833 8.03611 22.2949 8.12977 22.0143L8.68708 20.2918C9.0399 19.226 9.85243 18.3889 10.887 18.0254L12.5589 17.4512C12.8313 17.3547 13.0142 17.0907 13.0142 16.794C13.0142 16.4972 12.8313 16.2332 12.5589 16.1367L12.6323 16.1669Z" fill="url(#paint0_linear_81_4080)"/>
<defs>
<linearGradient id="paint0_linear_81_4080" x1="0.5" y1="1.4" x2="0.5" y2="22.4833" gradientUnits="userSpaceOnUse">
<stop stop-color="#FA005C"/>
<stop offset="1" stop-color="#FF9800"/>
</linearGradient>
</defs>
</svg>
