<svg width="16" height="16" viewBox="0 0 16 16" fill="none" xmlns="http://www.w3.org/2000/svg">
<path d="M5.3335 11.3334C5.3335 12.4379 4.43807 13.3334 3.3335 13.3334C2.22893 13.3334 1.3335 12.4379 1.3335 11.3334C1.3335 10.2288 2.22893 9.33337 3.3335 9.33337C4.43807 9.33337 5.3335 10.2288 5.3335 11.3334Z" fill="black"/>
<path fill-rule="evenodd" clip-rule="evenodd" d="M8 12C8.36819 12 8.66667 11.7016 8.66667 11.3334C8.66667 10.9652 8.36819 10.6667 8 10.6667C7.63181 10.6667 7.33333 10.9652 7.33333 11.3334C7.33333 11.7016 7.63181 12 8 12ZM8 13.3334C9.10457 13.3334 10 12.4379 10 11.3334C10 10.2288 9.10457 9.33337 8 9.33337C6.89543 9.33337 6 10.2288 6 11.3334C6 12.4379 6.89543 13.3334 8 13.3334Z" fill="black"/>
<path d="M14.667 11.3334C14.667 12.4379 13.7716 13.3334 12.667 13.3334C11.5624 13.3334 10.667 12.4379 10.667 11.3334C10.667 10.2288 11.5624 9.33337 12.667 9.33337C13.7716 9.33337 14.667 10.2288 14.667 11.3334Z" fill="black"/>
<path fill-rule="evenodd" clip-rule="evenodd" d="M7.80676 4.00002C5.99573 4.00002 4.4642 5.2041 3.97231 6.85685C3.86729 7.20975 3.49607 7.41068 3.14318 7.30566C2.79029 7.20063 2.58935 6.82941 2.69438 6.47652C3.34989 4.27395 5.38976 2.66669 7.80676 2.66669C10.2238 2.66669 12.2636 4.27395 12.9191 6.47652C13.0242 6.82941 12.8232 7.20063 12.4703 7.30566C12.1174 7.41068 11.7462 7.20975 11.6412 6.85685C11.1493 5.2041 9.61779 4.00002 7.80676 4.00002Z" fill="black"/>
<path fill-rule="evenodd" clip-rule="evenodd" d="M13.3387 4.69694C13.6902 4.80656 13.8863 5.18036 13.7766 5.53186L13.2152 7.33197C13.1056 7.68346 12.7318 7.87954 12.3803 7.76992L10.5802 7.20853C10.2287 7.09891 10.0326 6.7251 10.1423 6.37361C10.2519 6.02212 10.6257 5.82604 10.9772 5.93566L12.1409 6.29857L12.5038 5.13489C12.6134 4.7834 12.9872 4.58732 13.3387 4.69694Z" fill="black"/>
</svg>
