<svg width="16" height="16" viewBox="0 0 16 16" fill="none" xmlns="http://www.w3.org/2000/svg">
<path d="M5.50413 3C6.05641 3 6.50413 2.55228 6.50413 2C6.50413 1.44772 6.05641 1 5.50413 1C4.95184 1 4.50413 1.44772 4.50413 2C4.50413 2.55228 4.95184 3 5.50413 3Z" fill="black"/>
<path d="M7.49703 5.81486C7.14834 4.24222 5.5908 3.25002 4.01816 3.59871C2.44552 3.9474 1.45331 5.50494 1.802 7.07758L2.88433 11.959C3.13339 13.0823 4.24592 13.7911 5.36924 13.542C6.49255 13.2929 7.20127 12.1804 6.95221 11.0571C6.83194 10.5147 6.51033 10.0689 6.08339 9.78099C7.25768 9.0567 7.90272 7.64458 7.58722 6.22165L7.49703 5.81486Z" fill="black"/>
<path d="M3.88986 2.45949C3.88986 2.89736 3.53489 3.25233 3.09701 3.25233C2.65913 3.25233 2.30416 2.89736 2.30416 2.45949C2.30416 2.02161 2.65913 1.66664 3.09701 1.66664C3.53489 1.66664 3.88986 2.02161 3.88986 2.45949Z" fill="black"/>
<path d="M1.50407 4.33331C1.87226 4.33331 2.17074 4.03483 2.17074 3.66664C2.17074 3.29845 1.87226 2.99997 1.50407 2.99997C1.13588 2.99997 0.837402 3.29845 0.837402 3.66664C0.837402 4.03483 1.13588 4.33331 1.50407 4.33331Z" fill="black"/>
<path d="M10.6668 4.66667C10.1145 4.66667 9.66677 4.21895 9.66677 3.66667C9.66677 3.11438 10.1145 2.66667 10.6668 2.66667C11.2191 2.66667 11.6668 3.11438 11.6668 3.66667C11.6668 4.21895 11.2191 4.66667 10.6668 4.66667Z" fill="black"/>
<path d="M8.67387 7.48153C9.02256 5.90889 10.5801 4.91668 12.1527 5.26537C13.7254 5.61406 14.7176 7.17161 14.3689 8.74424L13.2866 13.6257C13.0375 14.749 11.925 15.4577 10.8017 15.2087C9.67835 14.9596 8.96963 13.8471 9.21869 12.7238C9.33896 12.1813 9.66057 11.7356 10.0875 11.4477C8.91322 10.7234 8.26818 9.31125 8.58367 7.88832L8.67387 7.48153Z" fill="black"/>
<path d="M12.281 4.12615C12.281 4.56403 12.636 4.919 13.0739 4.919C13.5118 4.919 13.8667 4.56403 13.8667 4.12615C13.8667 3.68827 13.5118 3.3333 13.0739 3.3333C12.636 3.3333 12.281 3.68827 12.281 4.12615Z" fill="black"/>
<path d="M14.6668 5.99997C14.2986 5.99997 14.0002 5.7015 14.0002 5.33331C14.0002 4.96512 14.2986 4.66664 14.6668 4.66664C15.035 4.66664 15.3335 4.96512 15.3335 5.33331C15.3335 5.7015 15.035 5.99997 14.6668 5.99997Z" fill="black"/>
</svg>
