<svg width="24" height="24" viewBox="0 0 24 24" fill="none" xmlns="http://www.w3.org/2000/svg">
<path d="M8.25595 4.5C9.08437 4.5 9.75595 3.82843 9.75595 3C9.75594 2.17157 9.08437 1.5 8.25595 1.5C7.42752 1.5 6.75595 2.17157 6.75595 3C6.75595 3.82843 7.42752 4.5 8.25595 4.5Z" fill="url(#paint0_linear_81_4070)"/>
<path d="M11.2453 8.72229C10.7223 6.36334 8.38595 4.87503 6.02699 5.39806C3.66804 5.92109 2.17973 8.25741 2.70276 10.6164L4.32625 17.9385C4.69985 19.6235 6.36864 20.6866 8.05361 20.313C9.73858 19.9394 10.8017 18.2706 10.4281 16.5856C10.2477 15.772 9.76525 15.1034 9.12484 14.6715C10.8863 13.585 11.8538 11.4669 11.3806 9.33247L11.2453 8.72229Z" fill="url(#paint1_linear_81_4070)"/>
<path d="M5.83454 3.68923C5.83454 4.34604 5.30209 4.8785 4.64527 4.8785C3.98845 4.8785 3.456 4.34604 3.456 3.68923C3.456 3.03241 3.98845 2.49996 4.64527 2.49996C5.30209 2.49996 5.83454 3.03241 5.83454 3.68923Z" fill="url(#paint2_linear_81_4070)"/>
<path d="M2.25586 6.49996C2.80814 6.49996 3.25586 6.05225 3.25586 5.49996C3.25586 4.94768 2.80814 4.49996 2.25586 4.49996C1.70357 4.49996 1.25586 4.94768 1.25586 5.49996C1.25586 6.05225 1.70357 6.49996 2.25586 6.49996Z" fill="url(#paint3_linear_81_4070)"/>
<path d="M15.9999 7C15.1715 7 14.4999 6.32843 14.4999 5.5C14.4999 4.67157 15.1715 4 15.9999 4C16.8283 4 17.4999 4.67157 17.4999 5.5C17.4999 6.32843 16.8283 7 15.9999 7Z" fill="url(#paint4_linear_81_4070)"/>
<path d="M13.0106 11.2223C13.5336 8.86334 15.8699 7.37503 18.2289 7.89806C20.5878 8.42109 22.0761 10.7574 21.5531 13.1164L19.9296 20.4385C19.556 22.1235 17.8872 23.1866 16.2022 22.813C14.5173 22.4394 13.4542 20.7706 13.8278 19.0856C14.0082 18.272 14.4906 17.6034 15.131 17.1715C13.3696 16.085 12.402 13.9669 12.8753 11.8325L13.0106 11.2223Z" fill="url(#paint5_linear_81_4070)"/>
<path d="M18.4213 6.18923C18.4213 6.84604 18.9538 7.3785 19.6106 7.3785C20.2674 7.3785 20.7999 6.84604 20.7999 6.18923C20.7999 5.53241 20.2674 4.99996 19.6106 4.99996C18.9538 4.99996 18.4213 5.53241 18.4213 6.18923Z" fill="url(#paint6_linear_81_4070)"/>
<path d="M22 8.99996C21.4477 8.99996 21 8.55225 21 7.99996C21 7.44768 21.4477 6.99996 22 6.99996C22.5523 6.99996 23 7.44768 23 7.99996C23 8.55225 22.5523 8.99996 22 8.99996Z" fill="url(#paint7_linear_81_4070)"/>
<defs>
<linearGradient id="paint0_linear_81_4070" x1="1.25586" y1="1.5" x2="1.25586" y2="20.3878" gradientUnits="userSpaceOnUse">
<stop stop-color="#FA005C"/>
<stop offset="1" stop-color="#FF9800"/>
</linearGradient>
<linearGradient id="paint1_linear_81_4070" x1="1.25586" y1="1.5" x2="1.25586" y2="20.3878" gradientUnits="userSpaceOnUse">
<stop stop-color="#FA005C"/>
<stop offset="1" stop-color="#FF9800"/>
</linearGradient>
<linearGradient id="paint2_linear_81_4070" x1="1.25586" y1="1.5" x2="1.25586" y2="20.3878" gradientUnits="userSpaceOnUse">
<stop stop-color="#FA005C"/>
<stop offset="1" stop-color="#FF9800"/>
</linearGradient>
<linearGradient id="paint3_linear_81_4070" x1="1.25586" y1="1.5" x2="1.25586" y2="20.3878" gradientUnits="userSpaceOnUse">
<stop stop-color="#FA005C"/>
<stop offset="1" stop-color="#FF9800"/>
</linearGradient>
<linearGradient id="paint4_linear_81_4070" x1="23" y1="4" x2="23" y2="22.8878" gradientUnits="userSpaceOnUse">
<stop stop-color="#FA005C"/>
<stop offset="1" stop-color="#FF9800"/>
</linearGradient>
<linearGradient id="paint5_linear_81_4070" x1="23" y1="4" x2="23" y2="22.8878" gradientUnits="userSpaceOnUse">
<stop stop-color="#FA005C"/>
<stop offset="1" stop-color="#FF9800"/>
</linearGradient>
<linearGradient id="paint6_linear_81_4070" x1="23" y1="4" x2="23" y2="22.8878" gradientUnits="userSpaceOnUse">
<stop stop-color="#FA005C"/>
<stop offset="1" stop-color="#FF9800"/>
</linearGradient>
<linearGradient id="paint7_linear_81_4070" x1="23" y1="4" x2="23" y2="22.8878" gradientUnits="userSpaceOnUse">
<stop stop-color="#FA005C"/>
<stop offset="1" stop-color="#FF9800"/>
</linearGradient>
</defs>
</svg>
