<svg width="24" height="24" viewBox="0 0 24 24" fill="none" xmlns="http://www.w3.org/2000/svg">
<path fill-rule="evenodd" clip-rule="evenodd" d="M22 12C22 17.5228 17.5228 22 12 22C10.2958 22 8.6912 21.5737 7.28696 20.8219C7.2693 20.8125 7.24827 20.8118 7.23 20.82C6.78 21.03 6.3 21.17 5.83 21.26C4.58486 21.4976 3.30357 21.3377 2.17507 20.8233C2.11974 20.798 2.12561 20.6972 2.18 20.67C2.85723 20.3638 3.40268 19.8911 3.78979 19.3193C4.17148 18.7556 3.99308 18.0302 3.62086 17.4601C2.59581 15.8903 2 14.0147 2 12C2 6.47715 6.47715 2 12 2C17.5228 2 22 6.47715 22 12ZM10.6976 16.567L7.58569 13.4551C6.80464 12.674 6.80464 11.4077 7.58569 10.6267L10.1058 8.10653C10.4777 7.7347 10.981 7.52427 11.5068 7.52078L14.6395 7.50004C15.7544 7.49265 16.66 8.39833 16.6527 9.51324L16.6319 12.6459C16.6284 13.1717 16.418 13.675 16.0462 14.0469L13.526 16.567C12.745 17.3481 11.4787 17.3481 10.6976 16.567Z" fill="url(#paint0_linear_81_4083)"/>
<circle cx="13.77" cy="10.3827" r="0.952604" transform="rotate(45 13.77 10.3827)" fill="url(#paint1_linear_81_4083)"/>
<defs>
<linearGradient id="paint0_linear_81_4083" x1="2" y1="2" x2="2" y2="22" gradientUnits="userSpaceOnUse">
<stop stop-color="#FA005C"/>
<stop offset="1" stop-color="#FF9800"/>
</linearGradient>
<linearGradient id="paint1_linear_81_4083" x1="12.8174" y1="11.3353" x2="14.7226" y2="11.3353" gradientUnits="userSpaceOnUse">
<stop stop-color="#FA005C"/>
<stop offset="1" stop-color="#FF9800"/>
</linearGradient>
</defs>
</svg>
