<svg width="16" height="16" viewBox="0 0 16 16" fill="none" xmlns="http://www.w3.org/2000/svg">
<path fill-rule="evenodd" clip-rule="evenodd" d="M9.13906 14.8727L14.2057 6.09696C14.5541 5.49363 14.3566 4.72142 13.7668 4.38094L8.40573 1.28571C7.81601 0.94523 7.04851 1.16029 6.70018 1.76362L1.63351 10.5393C1.28517 11.1427 1.48267 11.9149 2.0724 12.2554L7.43351 15.3506C8.02323 15.6911 8.79073 15.476 9.13906 14.8727ZM7.73233 3.97606C8.05119 4.16016 8.45892 4.05091 8.64301 3.73205C8.82711 3.41318 8.71786 3.00546 8.399 2.82136C8.08013 2.63727 7.67241 2.74652 7.48831 3.06538C7.30422 3.38424 7.41347 3.79197 7.73233 3.97606ZM10.7084 4.1547C10.3895 3.9706 9.98182 4.07985 9.79772 4.39871C9.61363 4.71757 9.72288 5.1253 10.0417 5.3094L11.7738 6.3094C12.0927 6.49349 12.5004 6.38424 12.6845 6.06538C12.8686 5.74652 12.7593 5.33879 12.4405 5.1547L10.7084 4.1547Z" fill="black"/>
<rect x="5.75635" y="2.06543" width="4" height="1.33333" rx="0.666667" transform="rotate(120 5.75635 2.06543)" fill="black"/>
<rect x="13.2378" y="11.7735" width="4" height="1.33333" rx="0.666667" transform="rotate(120 13.2378 11.7735)" fill="black"/>
</svg>
