<svg width="24" height="24" viewBox="0 0 24 24" fill="none" xmlns="http://www.w3.org/2000/svg">
<path fill-rule="evenodd" clip-rule="evenodd" d="M9.12891 3.50006L2.99998 14.1157C2.44769 15.0723 2.77544 16.2954 3.73203 16.8477L10.6012 20.8136C11.5578 21.3659 12.781 21.0382 13.3332 20.0816L19.4622 9.46597L9.12891 3.50006Z" fill="black"/>
<path fill-rule="evenodd" clip-rule="evenodd" d="M10.3608 5.36603C10.0847 5.84432 9.47311 6.0082 8.99481 5.73206L6.39674 4.23206C5.91845 3.95591 5.75457 3.34432 6.03071 2.86603C6.30686 2.38774 6.91845 2.22386 7.39674 2.5L9.99481 4C10.4731 4.27615 10.637 4.88774 10.3608 5.36603Z" fill="black"/>
<path d="M21.1978 18.7357C21.1978 20.104 20.0785 21.2131 18.6978 21.2131C17.317 21.2131 16.1978 20.104 16.1978 18.7357C16.1978 17.3675 17.4478 15.639 18.6978 14.4003C19.9478 15.639 21.1978 17.3675 21.1978 18.7357Z" fill="black"/>
</svg>
