<svg width="16" height="16" viewBox="0 0 16 16" fill="none" xmlns="http://www.w3.org/2000/svg">
<path fill-rule="evenodd" clip-rule="evenodd" d="M8.00016 13.3333C10.9457 13.3333 13.3335 10.9455 13.3335 8.00001C13.3335 5.05449 10.9457 2.66668 8.00016 2.66668C5.05464 2.66668 2.66683 5.05449 2.66683 8.00001C2.66683 10.9455 5.05464 13.3333 8.00016 13.3333ZM14.6668 8.00001C14.6668 11.6819 11.6821 14.6667 8.00016 14.6667C4.31826 14.6667 1.3335 11.6819 1.3335 8.00001C1.3335 4.31811 4.31826 1.33334 8.00016 1.33334C11.6821 1.33334 14.6668 4.31811 14.6668 8.00001Z" fill="black"/>
<path d="M8.66683 10.3334C8.66683 10.7015 8.36835 11 8.00016 11C7.63197 11 7.3335 10.7015 7.3335 10.3334C7.3335 9.96516 7.63197 9.66669 8.00016 9.66669C8.36835 9.66669 8.66683 9.96516 8.66683 10.3334Z" fill="black"/>
<path fill-rule="evenodd" clip-rule="evenodd" d="M10.0957 6.40669C10.0957 7.08002 9.78904 7.55335 9.20237 7.92669C9.00237 8.05335 8.78237 8.19335 8.64237 8.39335C8.60237 8.45335 8.56904 8.52002 8.54237 8.59335C8.50904 8.70002 8.51571 8.84002 8.43571 8.93335C8.35571 9.07335 8.19571 9.16669 8.02237 9.16669H7.88237C7.69571 9.16669 7.52904 9.06002 7.44904 8.90669C7.41571 8.84669 7.38904 8.78002 7.38237 8.71335C7.38237 8.64669 7.39571 8.58002 7.39571 8.52002C7.40904 8.40669 7.42904 8.30002 7.46237 8.19335C7.54237 7.98669 7.66904 7.81335 7.82904 7.66669C7.92237 7.58002 8.02904 7.50669 8.13571 7.43335C8.66904 7.09335 8.83571 6.87335 8.83571 6.44669C8.83571 6.02002 8.51571 5.70669 8.04237 5.70669C7.69571 5.70669 7.44237 5.87335 7.30904 6.15335C7.20904 6.37335 7.01571 6.54002 6.77571 6.54002C6.38904 6.54002 6.09571 6.15335 6.23571 5.80002C6.50904 5.10669 7.15571 4.66669 8.11571 4.66669C9.30904 4.66669 10.0957 5.38002 10.0957 6.40669Z" fill="black"/>
</svg>
