<svg width="24" height="24" viewBox="0 0 24 24" fill="none" xmlns="http://www.w3.org/2000/svg">
<path d="M4 17.0833H19.8333V18.75H4V17.0833ZM14 13.75H19.8333V15.4167H14V13.75ZM4 13.75H9.83333V15.4167H4V13.75Z" fill="#00A3C7"/>
<path d="M11.9165 5C8.45817 5 5.6665 7.41667 5.6665 10.4167C5.6665 12.7083 8.0415 14.5833 9.45817 15.3333L9.83317 14.5833V13.625C8.5415 12.8333 7.33317 11.5417 7.33317 10.4167C7.33317 8.375 9.4165 6.66667 11.9165 6.66667C14.4165 6.66667 16.4998 8.375 16.4998 10.4167C16.4998 11.5417 15.2915 12.8333 13.9998 13.625V14.5833L14.3748 15.3333C15.7915 14.5833 18.1665 12.7083 18.1665 10.4167C18.1665 7.41667 15.3748 5 11.9165 5Z" fill="#00A3C7"/>
<path d="M6.5 11.25C6.5 12.2917 6.91667 13.2917 7.625 14.0417C8.25 14.5833 9.125 15.1667 9.83333 15.4167V13.625C8.54167 12.8333 7.33333 11.5417 7.33333 10.4167C7.33333 8.37499 9.41667 6.66666 11.9167 6.66666C8.91667 6.66666 6.5 8.70832 6.5 11.25ZM17.3333 11.25C17.3333 8.70832 14.9167 6.66666 11.9167 6.66666C14.4167 6.66666 16.5 8.37499 16.5 10.4167C16.5 11.5417 15.2917 12.8333 14 13.625V15.4167C14.6667 15.1667 15.5833 14.625 16.2083 14.0417C16.9167 13.2917 17.3333 12.2917 17.3333 11.25Z" fill="#005967"/>
</svg>
