<svg width="16" height="16" viewBox="0 0 16 16" fill="none" xmlns="http://www.w3.org/2000/svg">
<path fill-rule="evenodd" clip-rule="evenodd" d="M14 7.33333C14 8.82461 13.456 10.1888 12.5555 11.2383L13.9365 13.1611C14.1069 13.3985 13.9113 13.7246 13.6217 13.686L12.5613 13.5446C12.3845 13.521 12.2205 13.6407 12.1891 13.8163L12.0037 14.8528C11.9518 15.1429 11.5767 15.2279 11.4048 14.9886L9.97671 13.0001C9.35775 13.216 8.69258 13.3333 8 13.3333C7.30742 13.3333 6.64225 13.216 6.02329 13.0001L4.59515 14.9886C4.42327 15.2279 4.04817 15.1429 3.99628 14.8528L3.81087 13.8163C3.77947 13.6407 3.61545 13.521 3.43867 13.5446L2.37831 13.686C2.08869 13.7246 1.89305 13.3985 2.06349 13.1611L3.44449 11.2383C2.54405 10.1888 2 8.82461 2 7.33333C2 4.01963 4.68629 1.33333 8 1.33333C11.3137 1.33333 14 4.01963 14 7.33333ZM8 12C10.5773 12 12.6667 9.91068 12.6667 7.33335C12.6667 4.75603 10.5773 2.66669 8 2.66669C5.42267 2.66669 3.33333 4.75603 3.33333 7.33335C3.33333 9.91068 5.42267 12 8 12Z" fill="black"/>
<path d="M7.61958 4.50415C7.73932 4.13563 8.26068 4.13563 8.38042 4.50415L8.80825 5.82087C8.8618 5.98568 9.01538 6.09727 9.18867 6.09727H10.5732C10.9606 6.09727 11.1218 6.59311 10.8083 6.82087L9.6882 7.63465C9.548 7.73651 9.48934 7.91705 9.54289 8.08186L9.97072 9.39858C10.0905 9.7671 9.66867 10.0736 9.35518 9.84579L8.23511 9.03202C8.09492 8.93016 7.90508 8.93016 7.76489 9.03202L6.64482 9.8458C6.33133 10.0736 5.90954 9.76711 6.02928 9.39858L6.45711 8.08186C6.51066 7.91705 6.452 7.73651 6.3118 7.63465L5.19173 6.82087C4.87825 6.59311 5.03936 6.09727 5.42685 6.09727H6.81133C6.98462 6.09727 7.1382 5.98568 7.19175 5.82087L7.61958 4.50415Z" fill="black"/>
</svg>
