<svg width="24" height="24" viewBox="0 0 24 24" fill="none" xmlns="http://www.w3.org/2000/svg">
<path fill-rule="evenodd" clip-rule="evenodd" d="M11.9999 1C13.1044 1 13.9999 1.89543 13.9999 3V3.28988C16.8913 4.15043 18.9999 6.82898 18.9999 10V13.5846L8.03053 4.23341C8.62663 3.82231 9.28962 3.50125 9.99985 3.28988V3C9.99985 1.89543 10.8953 1 11.9999 1ZM8.99985 20.5C8.99985 19.6716 9.67142 19 10.4999 19H13.4999C14.3283 19 14.9999 19.6716 14.9999 20.5C14.9999 21.3284 14.3283 22 13.4999 22H10.4999C9.67142 22 8.99985 21.3284 8.99985 20.5ZM5.60252 4.79167C5.16666 4.42011 4.52287 4.45961 4.16458 4.8799C3.80629 5.30019 3.86917 5.94212 4.30503 6.31368L18.5105 18.4236C18.9463 18.7952 19.5901 18.7557 19.9484 18.3354C20.3067 17.9151 20.2438 17.2732 19.808 16.9016L5.60252 4.79167ZM4.99985 14.0854V10C4.99985 9.84763 5.00472 9.69639 5.01431 9.54644L10.2385 14L13.7576 17H6.99985H5.49985C4.67142 17 3.99985 16.3284 3.99985 15.5C3.99985 14.8469 4.41725 14.2913 4.99985 14.0854Z" fill="black"/>
</svg>
