<svg width="24" height="24" viewBox="0 0 24 24" fill="none" xmlns="http://www.w3.org/2000/svg">
<path fill-rule="evenodd" clip-rule="evenodd" d="M6 6C5.44772 6 5 6.44772 5 7V18C5 18.5523 5.44772 19 6 19H17C17.5523 19 18 18.5523 18 18V13C18 12.4477 18.4477 12 19 12C19.5523 12 20 12.4477 20 13V18C20 19.6569 18.6569 21 17 21H6C4.34315 21 3 19.6569 3 18V7C3 5.34315 4.34315 4 6 4H11C11.5523 4 12 4.44772 12 5C12 5.55228 11.5523 6 11 6H6Z" fill="black"/>
<path fill-rule="evenodd" clip-rule="evenodd" d="M12.293 11.8284C11.9025 11.4379 11.9025 10.8047 12.293 10.4142L16.8788 5.82841C17.2694 5.43789 17.9025 5.43789 18.293 5.82841C18.6836 6.21894 18.6836 6.8521 18.293 7.24263L13.7073 11.8284C13.3167 12.2189 12.6836 12.2189 12.293 11.8284Z" fill="black"/>
<path d="M18.9999 3.70711C19.3904 3.31659 20.0236 3.31659 20.4141 3.70711C20.8047 4.09763 20.8047 4.7308 20.4141 5.12132C20.0236 5.51185 19.3904 5.51185 18.9999 5.12132C18.6094 4.7308 18.6094 4.09763 18.9999 3.70711Z" fill="black"/>
</svg>
