<svg width="24" height="24" viewBox="0 0 24 24" fill="none" xmlns="http://www.w3.org/2000/svg">
<path fill-rule="evenodd" clip-rule="evenodd" d="M21 11C21 13.2369 20.1839 15.2832 18.8333 16.8574L20.9048 19.7417C21.1604 20.0977 20.867 20.5869 20.4325 20.529L18.842 20.3168C18.5768 20.2814 18.3308 20.461 18.2837 20.7244L18.0056 22.2792C17.9278 22.7143 17.3651 22.8418 17.1073 22.4828L14.9651 19.5001C14.0366 19.824 13.0389 20 12 20C10.9611 20 9.96337 19.824 9.03491 19.5001L6.89273 22.4828C6.6349 22.8418 6.07225 22.7143 5.99443 22.2792L5.71631 20.7244C5.66921 20.461 5.42318 20.2814 5.15801 20.3168L3.56746 20.529C3.13304 20.5869 2.83958 20.0977 3.09524 19.7417L5.16673 16.8574C3.81607 15.2832 3 13.2369 3 11C3 6.02944 7.02944 2 12 2C16.9706 2 21 6.02944 21 11ZM12 18C15.866 18 19 14.866 19 11C19 7.13401 15.866 4 12 4C8.13401 4 5 7.13401 5 11C5 14.866 8.13401 18 12 18Z" fill="black"/>
<path d="M11.3343 7.04894C11.5438 6.40402 12.4562 6.40402 12.6657 7.04894L13.1899 8.66221C13.2836 8.95063 13.5524 9.1459 13.8557 9.1459H15.552C16.2301 9.1459 16.512 10.0136 15.9634 10.4122L14.5911 11.4093C14.3457 11.5875 14.2431 11.9035 14.3368 12.1919L14.861 13.8052C15.0705 14.4501 14.3324 14.9864 13.7838 14.5878L12.4114 13.5907C12.1661 13.4125 11.8339 13.4125 11.5886 13.5907L10.2162 14.5878C9.66762 14.9864 8.92948 14.4501 9.13903 13.8052L9.66321 12.1919C9.75692 11.9035 9.65426 11.5875 9.40892 11.4093L8.03659 10.4122C7.48799 10.0136 7.76993 9.1459 8.44804 9.1459H10.1443C10.4476 9.1459 10.7164 8.95063 10.8101 8.66221L11.3343 7.04894Z" fill="black"/>
</svg>
