<svg width="24" height="24" viewBox="0 0 24 24" fill="none" xmlns="http://www.w3.org/2000/svg">
<path fill-rule="evenodd" clip-rule="evenodd" d="M6.35112 1.86118C5.99307 1.3978 5.31526 1.33986 4.88377 1.73575L1.67706 4.67786C1.29423 5.02911 1.24414 5.61502 1.56182 6.02615L1.64888 6.13882C2.00693 6.6022 2.68474 6.66013 3.11623 6.26425L6.32294 3.32214C6.70577 2.97089 6.75586 2.38498 6.43818 1.97385L6.35112 1.86118Z" fill="black"/>
<path fill-rule="evenodd" clip-rule="evenodd" d="M19.1151 1.73592C18.6834 1.34 18.0054 1.3982 17.6475 1.86191L17.5612 1.97383C17.2438 2.38501 17.2941 2.97069 17.6769 3.32177L20.8849 6.26408C21.3166 6.66 21.9946 6.6018 22.3525 6.13809L22.4388 6.02617C22.7562 5.61499 22.7059 5.02931 22.3231 4.67823L19.1151 1.73592Z" fill="black"/>
<path fill-rule="evenodd" clip-rule="evenodd" d="M3 13C3 8.029 7.029 4 12 4C16.971 4 21 8.029 21 13C21 15.6346 19.8606 17.9967 18.0566 19.6426L19.293 20.8789C19.6835 21.2694 19.6835 21.9025 19.293 22.293C18.9025 22.6835 18.2694 22.6835 17.8789 22.293L16.4199 20.834C15.1136 21.5725 13.6078 22 12 22C10.3922 22 8.88636 21.5725 7.58008 20.834L6.12109 22.293C5.73061 22.6835 5.09751 22.6835 4.70703 22.293C4.31655 21.9025 4.31655 21.2694 4.70703 20.8789L5.94336 19.6426C4.13945 17.9967 3 15.6346 3 13ZM19 13C19 9.134 15.866 6 12 6C8.134 6 5 9.134 5 13C5 16.866 8.134 20 12 20C15.866 20 19 16.866 19 13Z" fill="black"/>
<path fill-rule="evenodd" clip-rule="evenodd" d="M12 9C11.4477 9 11 9.44772 11 10V13C11 13.5523 11.4477 14 12 14H14C14.5523 14 15 13.5523 15 13C15 12.4477 14.5523 12 14 12H13V10C13 9.44772 12.5523 9 12 9Z" fill="black"/>
</svg>
