<svg width="60" height="50" viewBox="0 0 60 50" fill="none" xmlns="http://www.w3.org/2000/svg">
<g opacity="0.8">
<path fill-rule="evenodd" clip-rule="evenodd" d="M24.8568 18.6883H32.1602V15.0928C32.1602 12.9406 30.5253 11.1959 28.5085 11.1959C26.4918 11.1959 24.8568 12.9406 24.8568 15.0928V18.6883ZM19.9879 18.6883H19.1359C16.9183 18.6883 15.1191 20.5865 15.1191 22.9261V37.0523C15.1191 39.3919 16.9183 41.2901 19.1359 41.2901H37.8813C40.099 41.2901 41.8982 39.3919 41.8982 37.0523V22.9261C41.8982 20.5865 40.099 18.6883 37.8813 18.6883H37.0292V15.0928C37.0292 10.071 33.2144 6 28.5085 6C23.8027 6 19.9879 10.071 19.9879 15.0928V18.6883ZM28.5094 25.7514C27.0292 25.7514 25.8315 27.015 25.8315 28.5766C25.8315 29.6195 26.3702 30.5134 27.1704 31.0045V34.2271C27.1704 35.0051 27.7719 35.6397 28.5094 35.6397C29.2468 35.6397 29.8483 35.0051 29.8483 34.2271V31.0045C30.6486 30.5134 31.1873 29.6195 31.1873 28.5766C31.1873 27.015 29.9895 25.7514 28.5094 25.7514Z" fill="url(#paint0_linear_81_4246)"/>
<ellipse cx="41.5552" cy="38" rx="7.4966" ry="8" fill="#8DA4BB"/>
<g filter="url(#filter0_d_81_4246)">
<path fill-rule="evenodd" clip-rule="evenodd" d="M43.0706 38.2567C43.9548 37.6547 44.417 36.8915 44.417 35.8057C44.417 34.1502 43.2314 33 41.4329 33C39.986 33 39.0114 33.7095 38.5994 34.8275C38.3884 35.3972 38.8305 36.0207 39.4133 36.0207C39.775 36.0207 40.0664 35.752 40.2171 35.3972C40.418 34.9457 40.7999 34.677 41.3223 34.677C42.0357 34.677 42.518 35.1823 42.518 35.8702C42.518 36.5582 42.2668 36.913 41.463 37.4612C41.3022 37.5795 41.1415 37.6977 41.0008 37.8375C40.7597 38.074 40.5688 38.3535 40.4482 38.6867C40.398 38.8587 40.3678 39.0307 40.3477 39.2135C40.3477 39.2606 40.343 39.3102 40.3381 39.3612C40.3329 39.4149 40.3276 39.4701 40.3276 39.5252C40.3377 39.6327 40.3779 39.7402 40.4281 39.837C40.5487 40.0842 40.7999 40.2562 41.0812 40.2562H41.2922C41.5534 40.2562 41.7946 40.1057 41.9151 39.88C41.9964 39.7785 42.0184 39.6428 42.0394 39.5125C42.0496 39.4495 42.0595 39.3878 42.0759 39.3317C42.1161 39.2135 42.1663 39.106 42.2266 39.0092C42.4376 38.6867 42.7692 38.461 43.0706 38.2567ZM41.2585 43.2125C41.8134 43.2125 42.2633 42.7312 42.2633 42.1375C42.2633 41.5438 41.8134 41.0625 41.2585 41.0625C40.7036 41.0625 40.2537 41.5438 40.2537 42.1375C40.2537 42.7312 40.7036 43.2125 41.2585 43.2125Z" fill="white"/>
</g>
</g>
<defs>
<filter id="filter0_d_81_4246" x="37.5459" y="33" width="7.87109" height="12.2125" filterUnits="userSpaceOnUse" color-interpolation-filters="sRGB">
<feFlood flood-opacity="0" result="BackgroundImageFix"/>
<feColorMatrix in="SourceAlpha" type="matrix" values="0 0 0 0 0 0 0 0 0 0 0 0 0 0 0 0 0 0 127 0" result="hardAlpha"/>
<feOffset dy="1"/>
<feGaussianBlur stdDeviation="0.5"/>
<feColorMatrix type="matrix" values="0 0 0 0 0.696007 0 0 0 0 0.758281 0 0 0 0 0.879167 0 0 0 0.25 0"/>
<feBlend mode="normal" in2="BackgroundImageFix" result="effect1_dropShadow_81_4246"/>
<feBlend mode="normal" in="SourceGraphic" in2="effect1_dropShadow_81_4246" result="shape"/>
</filter>
<linearGradient id="paint0_linear_81_4246" x1="-3.89277" y1="-19.5" x2="34.9018" y2="24.029" gradientUnits="userSpaceOnUse">
<stop stop-color="#F2F6FA"/>
<stop offset="1" stop-color="#A6C0DA"/>
</linearGradient>
</defs>
</svg>
