<svg width="24" height="24" viewBox="0 0 24 24" fill="none" xmlns="http://www.w3.org/2000/svg">
<path fill-rule="evenodd" clip-rule="evenodd" d="M20.252 10.9671C20.5751 10.8331 20.9567 11.0226 20.9799 11.3716C20.9932 11.5725 21 11.7752 21 11.9795C21 16.9614 16.9706 21 12 21C7.02943 21 3 16.9614 3 11.9795C3 7.29792 6.5583 3.44931 11.1121 3.00234C11.4592 2.96827 11.7091 3.31204 11.6313 3.65201C11.5261 4.11152 11.4706 4.58999 11.4706 5.08147C11.4706 8.5981 14.3149 11.4489 17.8235 11.4489C18.6837 11.4489 19.5039 11.2776 20.252 10.9671ZM5.11719 12.007C5.11719 9.12266 6.87271 6.65054 9.36817 5.61164C9.63672 10.071 13.3194 13.6042 17.8231 13.6042C18.122 13.6042 18.4173 13.5886 18.7083 13.5582C18.0078 16.6327 15.2701 18.9261 11.9995 18.9261C8.19852 18.9261 5.11719 15.8283 5.11719 12.007Z" fill="black"/>
<path fill-rule="evenodd" clip-rule="evenodd" d="M20 1L19.1875 3.1875L17 4L19.1875 4.8125L20 7L20.8125 4.8125L23 4L20.8125 3.1875L20 1Z" fill="black"/>
</svg>
