<svg width="16" height="17" viewBox="0 0 16 17" fill="none" xmlns="http://www.w3.org/2000/svg">
<path fill-rule="evenodd" clip-rule="evenodd" d="M1.62376 3.4484C1.80541 3.32414 2.03668 3.29754 2.24179 3.3773L14.2418 8.04397C14.498 8.14362 14.6668 8.39036 14.6668 8.66531C14.6668 8.94025 14.498 9.18699 14.2418 9.28664L2.24179 13.9533C2.03668 14.0331 1.80541 14.0065 1.62376 13.8822C1.44211 13.758 1.3335 13.5521 1.3335 13.332V9.33197H5.3335C5.70169 9.33197 6.00016 9.03349 6.00016 8.6653C6.00016 8.29711 5.70169 7.99864 5.3335 7.99864H1.3335V3.99864C1.3335 3.77856 1.44211 3.57266 1.62376 3.4484Z" fill="black"/>
</svg>
