<svg width="48" height="48" viewBox="0 0 48 48" fill="none" xmlns="http://www.w3.org/2000/svg">
<path d="M35.564 9.114C33.044 5.424 28.806 3 24 3C17.606 3 12.226 7.29 10.55 13.146C5.72 13.854 2 17.974 2 23C2 28.522 6.478 33 12 33H34C40.628 33 46 27.628 46 21C46 14.904 41.452 9.882 35.564 9.114Z" fill="#E8F1FF"/>
<path d="M7.00004 42.732C6.04404 42.18 5.71604 40.956 6.26804 40L16.25 24C16.802 23.044 18.026 22.716 18.982 23.268C19.938 23.82 20.266 25.044 19.714 26L9.73204 42C9.18004 42.956 7.95604 43.284 7.00004 42.732Z" fill="#A9BBD9"/>
<path d="M27.0181 42.732C26.0621 42.18 25.7341 40.956 26.2861 40L36.2681 24C36.8201 23.044 38.0441 22.716 39.0001 23.268C39.9561 23.82 40.2841 25.044 39.7321 26L29.7501 42C29.1981 42.956 27.9741 43.284 27.0181 42.732Z" fill="#A9BBD9"/>
<path d="M17.0181 42.732C16.0601 42.18 15.7341 40.956 16.2861 40L26.2681 24C26.8201 23.044 28.0441 22.716 29.0001 23.268C29.9561 23.82 30.2841 25.044 29.7321 26L19.7501 42C19.1981 42.956 17.9741 43.284 17.0181 42.732Z" fill="#A9BBD9"/>
</svg>
