<svg width="24" height="24" viewBox="0 0 24 24" fill="none" xmlns="http://www.w3.org/2000/svg">
<path fill-rule="evenodd" clip-rule="evenodd" d="M2 5C2 4.44772 2.44772 4 3 4L21 4C21.5523 4 22 4.44772 22 5C22 5.55228 21.5523 6 21 6L3 6C2.44772 6 2 5.55228 2 5Z" fill="black"/>
<path fill-rule="evenodd" clip-rule="evenodd" d="M2 19C2 18.4477 2.44772 18 3 18L21 18C21.5523 18 22 18.4477 22 19C22 19.5523 21.5523 20 21 20L3 20C2.44772 20 2 19.5523 2 19Z" fill="black"/>
<path fill-rule="evenodd" clip-rule="evenodd" d="M2 12C2 11.4477 2.44772 11 3 11L21 11C21.5523 11 22 11.4477 22 12C22 12.5523 21.5523 13 21 13L3 13C2.44772 13 2 12.5523 2 12Z" fill="black"/>
<path d="M10 5C10 6.38071 8.88071 7.5 7.5 7.5C6.11929 7.5 5 6.38071 5 5C5 3.61929 6.11929 2.5 7.5 2.5C8.88071 2.5 10 3.61929 10 5Z" fill="black"/>
<path d="M10 19C10 20.3807 8.88071 21.5 7.5 21.5C6.11929 21.5 5 20.3807 5 19C5 17.6193 6.11929 16.5 7.5 16.5C8.88071 16.5 10 17.6193 10 19Z" fill="black"/>
<path d="M19 12C19 13.3807 17.8807 14.5 16.5 14.5C15.1193 14.5 14 13.3807 14 12C14 10.6193 15.1193 9.5 16.5 9.5C17.8807 9.5 19 10.6193 19 12Z" fill="black"/>
</svg>
