<svg width="24" height="24" viewBox="0 0 24 24" fill="none" xmlns="http://www.w3.org/2000/svg">
<path fill-rule="evenodd" clip-rule="evenodd" d="M0.976043 5.14836C1.4464 4.85891 2.06235 5.00556 2.3518 5.47592L4.3518 8.72592C4.54959 9.04733 4.54959 9.45271 4.3518 9.77412L2.67432 12.5L4.3518 15.2259C4.54959 15.5473 4.54959 15.9527 4.3518 16.2741L2.3518 19.5241C2.06235 19.9945 1.4464 20.1411 0.976043 19.8517C0.505685 19.5622 0.359031 18.9463 0.648482 18.4759L2.32596 15.75L0.648482 13.0241C0.450693 12.7027 0.450693 12.2973 0.648482 11.9759L2.32596 9.25002L0.648482 6.52412C0.359031 6.05376 0.505685 5.43781 0.976043 5.14836Z" fill="black"/>
<path fill-rule="evenodd" clip-rule="evenodd" d="M23.0244 5.14836C22.5541 4.85891 21.9381 5.00556 21.6487 5.47592L19.6487 8.72592C19.4509 9.04733 19.4509 9.45271 19.6487 9.77412L21.3262 12.5L19.6487 15.2259C19.4509 15.5473 19.4509 15.9527 19.6487 16.2741L21.6487 19.5241C21.9381 19.9945 22.5541 20.1411 23.0244 19.8517C23.4948 19.5622 23.6415 18.9463 23.352 18.4759L21.6745 15.75L23.352 13.0241C23.5498 12.7027 23.5498 12.2973 23.352 11.9759L21.6745 9.25002L23.352 6.52412C23.6415 6.05376 23.4948 5.43781 23.0244 5.14836Z" fill="black"/>
<path fill-rule="evenodd" clip-rule="evenodd" d="M7.5 2C6.39543 2 5.5 2.89543 5.5 4V20C5.5 21.1046 6.39543 22 7.5 22H16.5C17.6046 22 18.5 21.1046 18.5 20V4C18.5 2.89543 17.6046 2 16.5 2H7.5ZM10.5 6C10.5 6.55228 10.0523 7 9.5 7C8.94772 7 8.5 6.55228 8.5 6C8.5 5.44772 8.94772 5 9.5 5C10.0523 5 10.5 5.44772 10.5 6ZM12.5 5C11.9477 5 11.5 5.44772 11.5 6C11.5 6.55228 11.9477 7 12.5 7H14.5C15.0523 7 15.5 6.55228 15.5 6C15.5 5.44772 15.0523 5 14.5 5H12.5Z" fill="black"/>
</svg>
