<svg width="24" height="24" viewBox="0 0 24 24" fill="none" xmlns="http://www.w3.org/2000/svg">
<path fill-rule="evenodd" clip-rule="evenodd" d="M9.30992 2.63115C9.4385 1.97407 10.0143 1.5 10.6839 1.5H13.3156C13.9851 1.5 14.5609 1.97407 14.6895 2.63115L14.9866 4.14961C15.8585 4.47615 16.6607 4.93107 17.3621 5.50312L18.838 4.99855C19.4693 4.78275 20.1651 5.04232 20.5008 5.61884L21.8094 7.86634C22.1484 8.44858 22.0246 9.1897 21.5148 9.63016L20.3408 10.6444V10.6465C20.4195 11.1268 20.4606 11.5721 20.4606 12C20.4606 12.4286 20.4197 12.8744 20.3408 13.3556L21.5139 14.3701C22.0231 14.8105 22.1468 15.551 21.8082 16.133L20.5009 18.3801C20.1652 18.9571 19.4688 19.2169 18.8373 19.0006L17.3601 18.4948C16.6584 19.0671 15.8589 19.5238 14.9866 19.8504L14.6895 21.3689C14.5609 22.0259 13.9851 22.5 13.3156 22.5H10.6839C10.0143 22.5 9.4385 22.0259 9.30992 21.3689L9.01279 19.8504C8.14095 19.5238 7.33871 19.0689 6.63729 18.4969L5.16141 19.0014C4.53016 19.2173 3.83433 18.9577 3.49865 18.3812L2.19039 16.1342C1.85123 15.5517 1.9753 14.8103 2.4856 14.3699L3.65863 13.3576V13.3556C3.58092 12.8743 3.53882 12.4292 3.53882 12C3.53882 11.5714 3.5797 11.1256 3.65863 10.6444L2.48541 9.63199C1.97519 9.19169 1.85108 8.45037 2.19005 7.8679L3.49846 5.61965C3.83419 5.04275 4.5305 4.7831 5.16198 4.99932L6.63936 5.50518C7.34071 4.93343 8.14114 4.47597 9.01279 4.14961L9.30992 2.63115ZM11.7683 3.59998C11.4814 3.59998 11.2346 3.80313 11.1795 4.08472L10.8633 5.69998L9.76029 6.11423C9.0954 6.36302 8.49804 6.70457 7.9797 7.12732L7.06668 7.87175L5.49962 7.33577C5.22895 7.24319 4.93056 7.35457 4.78676 7.60187L4.55939 7.99289C4.41423 8.24251 4.46748 8.56012 4.6861 8.74876L5.93471 9.82615L5.74673 10.9807C5.68206 11.3745 5.65378 11.7047 5.65378 12C5.65378 12.2947 5.68299 12.6259 5.74673 13.0213V13.0233L5.93471 14.1738L4.68586 15.253C4.46738 15.4418 4.41436 15.7594 4.55969 16.0089L4.78686 16.399C4.93066 16.6458 5.22858 16.7571 5.49899 16.6649L7.06668 16.1302L7.9797 16.8726C8.49804 17.2954 9.0954 17.6369 9.76029 17.8857L10.8633 18.3L11.1795 19.9152C11.2346 20.1968 11.4814 20.4 11.7683 20.4H12.2285C12.5154 20.4 12.7622 20.1968 12.8173 19.9152L13.1335 18.3L14.2365 17.8857H14.2386C14.9035 17.6369 15.4988 17.2954 16.0171 16.8726L16.9322 16.1282L18.4971 16.664C18.7678 16.7567 19.0663 16.6453 19.2101 16.3979L19.4376 16.0068C19.5827 15.7573 19.5296 15.4398 19.3112 15.2512L18.0642 14.1738L18.2522 13.0192C18.3168 12.6255 18.3451 12.2953 18.3451 12C18.3451 11.7047 18.3168 11.3744 18.2522 10.9807V10.9787L18.0663 9.8241L19.313 8.74698C19.5315 8.55819 19.5845 8.24052 19.4392 7.99098L19.212 7.60099C19.0682 7.35411 18.7703 7.24287 18.4999 7.33508L16.9322 7.8697L16.0192 7.12732C15.5009 6.70457 14.9035 6.36302 14.2386 6.11423L13.1356 5.69998L12.8194 4.08472C12.7643 3.80313 12.5175 3.59998 12.2305 3.59998H11.7683Z" fill="black"/>
<path fill-rule="evenodd" clip-rule="evenodd" d="M8 12C8 9.80348 9.80348 8 12 8C14.1965 8 16 9.80348 16 12C16 14.1965 14.1965 16 12 16C9.80348 16 8 14.1965 8 12ZM14 12C14 10.8885 13.1115 10 12 10C10.8885 10 10 10.8885 10 12C10 13.1115 10.8885 14 12 14C13.1115 14 14 13.1115 14 12Z" fill="black"/>
</svg>
