<svg width="24" height="24" viewBox="0 0 24 24" fill="none" xmlns="http://www.w3.org/2000/svg">
<path fill-rule="evenodd" clip-rule="evenodd" d="M11.8318 1.61919C12.1275 1.46027 12.4831 1.46027 12.7787 1.61919L21.3637 6.23387C22.2791 6.72594 21.9295 8.11468 20.8902 8.11468H19.8053V15.3647C19.8053 19.2307 16.6713 22.3647 12.8053 22.3647H9.79014H6.80515H4.80527H4.80515C3.48694 22.1624 2.90883 21.8848 2 20.9471C2.05989 20.9577 2.12647 20.9495 2.19304 20.9413C3.24915 20.8525 4.16585 20.3552 4.80527 19.6077V8.11468H3.72034C2.68106 8.11468 2.33146 6.72594 3.24688 6.23387L11.8318 1.61919ZM13.8052 7.3645C14.3575 7.3645 14.8052 7.88684 14.8052 8.53117L14.8052 17.5314C14.8052 18.1757 14.3575 18.6981 13.8052 18.6981C13.2529 18.6981 12.8052 18.1757 12.8052 17.5314V8.53117C12.8052 7.88684 13.2529 7.3645 13.8052 7.3645ZM10.8052 9.3645C11.3575 9.3645 11.8052 9.88684 11.8052 10.5312V15.5312C11.8052 16.1755 11.3575 16.6978 10.8052 16.6978C10.2529 16.6978 9.80518 16.1755 9.80518 15.5312V10.5312C9.80518 9.88684 10.2529 9.3645 10.8052 9.3645ZM7.80518 11.3644C8.35746 11.3644 8.80518 11.8868 8.80518 12.5311V13.6978C8.80518 14.3421 8.35746 14.8644 7.80518 14.8644C7.25289 14.8644 6.80518 14.3421 6.80518 13.6978V12.5311C6.80518 11.8868 7.25289 11.3644 7.80518 11.3644ZM17.8052 11.5312C17.8052 10.8868 17.3575 10.3645 16.8052 10.3645C16.2529 10.3645 15.8052 10.8868 15.8052 11.5312L15.8052 14.8645C15.8052 15.5088 16.2529 16.0312 16.8052 16.0312C17.3575 16.0312 17.8052 15.5088 17.8052 14.8645L17.8052 11.5312Z" fill="url(#paint0_linear_81_4085)"/>
<defs>
<linearGradient id="paint0_linear_81_4085" x1="2" y1="1.5" x2="2" y2="22.3647" gradientUnits="userSpaceOnUse">
<stop stop-color="#FA005C"/>
<stop offset="1" stop-color="#FF9800"/>
</linearGradient>
</defs>
</svg>
