<svg width="24" height="24" viewBox="0 0 24 24" fill="none" xmlns="http://www.w3.org/2000/svg">
<path fill-rule="evenodd" clip-rule="evenodd" d="M20.9997 6V18C20.9997 19.1046 20.1043 20 18.9997 20L9.82813 20C9.29769 20 8.78899 19.7893 8.41391 19.4142L2.41391 13.4142C1.63286 12.6332 1.63286 11.3668 2.41391 10.5858L8.41391 4.58579C8.78899 4.21071 9.29769 4 9.82813 4H18.9997C20.1043 4 20.9997 4.89543 20.9997 6ZM16.2998 9.19997C16.6864 9.58657 16.6864 10.2134 16.2998 10.6L14.8997 12L16.2997 13.4C16.6863 13.7866 16.6863 14.4134 16.2997 14.8C15.9131 15.1866 15.2863 15.1866 14.8997 14.8L13.4997 13.4L12.0998 14.8C11.7132 15.1866 11.0864 15.1866 10.6998 14.8C10.3132 14.4134 10.3132 13.7866 10.6998 13.4L12.0997 12L10.6997 10.6C10.3131 10.2134 10.3131 9.58658 10.6997 9.19998C11.0863 8.81338 11.7131 8.81338 12.0997 9.19998L13.4997 10.6L14.8998 9.19997C15.2864 8.81337 15.9132 8.81337 16.2998 9.19997Z" fill="black"/>
</svg>
