<svg width="24" height="24" viewBox="0 0 24 24" fill="none" xmlns="http://www.w3.org/2000/svg">
<path fill-rule="evenodd" clip-rule="evenodd" d="M2.4354 4.17464C2.70787 3.98825 3.05477 3.94835 3.36245 4.068L21.3624 11.068C21.7468 11.2175 22 11.5876 22 12C22 12.4124 21.7468 12.7825 21.3624 12.932L3.36245 19.932C3.05477 20.0517 2.70787 20.0118 2.4354 19.8254C2.16293 19.639 2 19.3301 2 19V13H8C8.55228 13 9 12.5523 9 12C9 11.4477 8.55228 11 8 11H2V5.00001C2 4.66988 2.16293 4.36103 2.4354 4.17464Z" fill="black"/>
</svg>
