<svg width="24" height="24" viewBox="0 0 24 24" fill="none" xmlns="http://www.w3.org/2000/svg">
<path d="M18.673 13.092L18.724 13.011L18.721 13.004C18.894 12.708 19 12.368 19 12C19 11.026 18.303 10.217 17.381 10.038L14 9V4C14 2.895 13.105 2 12 2C11.288 2 10.667 2.375 10.312 2.936L10.307 2.935L5.363 10.856C5.136 11.18 5 11.573 5 12C5 12.91 5.611 13.669 6.442 13.911L6.444 13.917L10 15V20C10 21.105 10.895 22 12 22C12.773 22 13.436 21.556 13.769 20.914L18.649 13.129C18.658 13.117 18.665 13.104 18.673 13.092Z" fill="#E2B00A"/>
</svg>
