<svg width="24" height="24" viewBox="0 0 24 24" fill="none" xmlns="http://www.w3.org/2000/svg">
<path fill-rule="evenodd" clip-rule="evenodd" d="M12 22C17.5228 22 22 17.5228 22 12C22 6.47715 17.5228 2 12 2C6.47715 2 2 6.47715 2 12C2 14.0147 2.59581 15.8903 3.62086 17.4601C3.99308 18.0302 4.17148 18.7556 3.78979 19.3193C3.40268 19.8911 2.85723 20.3638 2.18 20.67C2.12561 20.6972 2.11974 20.798 2.17507 20.8233C3.30357 21.3377 4.58486 21.4976 5.83 21.26C6.3 21.17 6.78 21.03 7.23 20.82C7.24827 20.8118 7.2693 20.8125 7.28696 20.8219C8.6912 21.5737 10.2958 22 12 22ZM10.6977 16.567L7.58579 13.4551C6.80474 12.674 6.80474 11.4077 7.58579 10.6267L10.1059 8.10653C10.4778 7.73471 10.9811 7.52427 11.5069 7.52079L14.6395 7.50004C15.7545 7.49266 16.6601 8.39834 16.6528 9.51325L16.632 12.6459C16.6285 13.1717 16.4181 13.675 16.0463 14.0469L13.5261 16.567C12.7451 17.3481 11.4787 17.3481 10.6977 16.567ZM13.0965 11.0563C13.4686 11.4283 14.0717 11.4283 14.4437 11.0563C14.8157 10.6843 14.8157 10.0811 14.4437 9.70908C14.0717 9.33707 13.4686 9.33707 13.0965 9.70908C12.7245 10.0811 12.7245 10.6843 13.0965 11.0563Z" fill="black"/>
</svg>
