<svg width="16" height="17" viewBox="0 0 16 17" fill="none" xmlns="http://www.w3.org/2000/svg">
<path fill-rule="evenodd" clip-rule="evenodd" d="M4.33333 2.66528C5.09961 2.66528 5.77961 3.03466 6.205 3.60507C6.77177 3.4276 7.37471 3.33195 8 3.33195C8.62534 3.33195 9.22832 3.42761 9.79513 3.60511C10.2205 3.03468 10.9005 2.66528 11.6668 2.66528C12.9555 2.66528 14.0002 3.70995 14.0002 4.99862C14.0002 5.62558 13.7529 6.19479 13.3505 6.61403C13.7659 7.43 14 8.35363 14 9.33195C14 12.6457 11.3137 15.332 8 15.332C4.68629 15.332 2 12.6457 2 9.33195C2 8.35358 2.23417 7.42991 2.64951 6.61392C2.24723 6.19468 2 5.62552 2 4.99862C2 3.70995 3.04467 2.66528 4.33333 2.66528ZM9.00272 6.57367C9.03979 6.42498 8.97536 6.26864 8.84798 6.19823C8.7206 6.12781 8.56477 6.16239 8.47377 6.28126L6.13767 9.33274C6.07194 9.4186 6.0513 9.53447 6.0829 9.64035C6.11449 9.74623 6.19397 9.82761 6.29392 9.85638L7.46974 10.195L6.99718 12.0902C6.96011 12.2389 7.02455 12.3952 7.15192 12.4656C7.2793 12.536 7.43513 12.5015 7.52613 12.3826L9.86223 9.33113C9.92797 9.24526 9.9486 9.12939 9.91701 9.02351C9.88542 8.91763 9.80593 8.83626 9.70599 8.80748L8.53016 8.4689L9.00272 6.57367Z" fill="black"/>
</svg>
