<svg width="24" height="24" viewBox="0 0 24 24" fill="none" xmlns="http://www.w3.org/2000/svg">
<path fill-rule="evenodd" clip-rule="evenodd" d="M10.6839 1.5C10.0143 1.5 9.4385 1.97407 9.30992 2.63115L9.01279 4.14961C8.14114 4.47597 7.34071 4.93343 6.63936 5.50518L5.16198 4.99932C4.5305 4.7831 3.83419 5.04275 3.49846 5.61965L2.19005 7.8679C1.85108 8.45037 1.97519 9.19169 2.48541 9.63199L3.65863 10.6444C3.5797 11.1256 3.53882 11.5714 3.53882 12C3.53882 12.4292 3.58092 12.8743 3.65863 13.3556V13.3576L2.4856 14.3699C1.9753 14.8103 1.85123 15.5517 2.19039 16.1342L3.49865 18.3812C3.83433 18.9577 4.53016 19.2173 5.16141 19.0014L6.63729 18.4969C7.33871 19.0689 8.14095 19.5238 9.01279 19.8504L9.30992 21.3689C9.4385 22.0259 10.0143 22.5 10.6839 22.5H13.3156C13.9851 22.5 14.5609 22.0259 14.6895 21.3689L14.9866 19.8504C15.8589 19.5238 16.6584 19.0671 17.3601 18.4948L18.8373 19.0006C19.4688 19.2169 20.1652 18.9571 20.5009 18.3801L21.8082 16.133C22.1468 15.551 22.0231 14.8105 21.5139 14.3701L20.3408 13.3556C20.4197 12.8744 20.4606 12.4286 20.4606 12C20.4606 11.5721 20.4195 11.1268 20.3408 10.6465V10.6444L21.5148 9.63016C22.0246 9.1897 22.1484 8.44858 21.8094 7.86634L20.5008 5.61884C20.1651 5.04232 19.4693 4.78275 18.838 4.99855L17.3621 5.50312C16.6607 4.93107 15.8585 4.47615 14.9866 4.14961L14.6895 2.63115C14.5609 1.97407 13.9851 1.5 13.3156 1.5H10.6839ZM12 8C9.80348 8 8 9.80348 8 12C8 14.1965 9.80348 16 12 16C14.1965 16 16 14.1965 16 12C16 9.80348 14.1965 8 12 8Z" fill="black"/>
</svg>
