<svg width="32" height="32" viewBox="0 0 32 32" fill="none" xmlns="http://www.w3.org/2000/svg">
<path d="M16.0065 20.384H15.9932C14.5052 20.384 13.3559 19.0387 13.6105 17.572C14.3879 13.0987 17.8692 12.9427 17.8692 10.1653C17.8692 9.39334 17.7359 7.66667 15.8772 7.66667C14.8719 7.66667 14.2812 8.30934 13.9385 8.99334C13.4745 9.91867 12.4039 10.3747 11.3839 10.1947C9.83719 9.92267 8.88785 8.26267 9.54385 6.83601C10.4825 4.8 12.4025 2.66667 16.2039 2.66667C22.3732 2.66667 23.1999 7.49734 23.1999 9.76801C23.1999 15.1373 19.2012 15.3373 18.3732 18.4307C18.0745 19.5467 17.1612 20.384 16.0065 20.384Z" fill="#BDCFED"/>
<path d="M19.2119 26.0747C19.2119 26.9907 18.9292 27.7627 18.3625 28.392C17.7919 29.0187 17.0492 29.3333 16.1332 29.3333C15.2132 29.3333 14.4705 29.0187 13.9039 28.392C13.3372 27.7627 13.0505 26.9907 13.0505 26.0747C13.0505 25.18 13.3372 24.408 13.9039 23.7533C14.4705 23.1027 15.2132 22.7773 16.1332 22.7773C17.0492 22.7773 17.7932 23.1027 18.3625 23.7533C18.9279 24.408 19.2119 25.1787 19.2119 26.0747Z" fill="#BDCFED"/>
</svg>
