<svg width="24" height="24" viewBox="0 0 24 24" fill="none" xmlns="http://www.w3.org/2000/svg">
<path d="M12.0832 19.4167C9.08317 19.4167 6.6665 17 6.6665 14C6.6665 11 9.08317 8.58334 12.0832 8.58334C15.0832 8.58334 17.4998 11 17.4998 14C17.4998 17 15.0832 19.4167 12.0832 19.4167ZM12.0832 10.25C9.99984 10.25 8.33317 11.9167 8.33317 14C8.33317 16.0833 9.99984 17.75 12.0832 17.75C14.1665 17.75 15.8332 16.0833 15.8332 14C15.8332 11.9167 14.1665 10.25 12.0832 10.25Z" fill="#00A3C7"/>
<path d="M12.0833 10.25V8.58333C13.7917 8.58333 14.2083 7.83333 14.8333 6.75C15.5 5.54167 16.375 4 19.1667 4V5.66667C17.3333 5.66667 16.875 6.45833 16.2917 7.58333C15.5833 8.75 14.75 10.25 12.0833 10.25ZM12.0833 10.25C9.41667 10.25 8.58333 8.75 7.875 7.58333C7.29167 6.45833 6.83333 5.66667 5 5.66667V4C7.79167 4 8.66667 5.54167 9.33333 6.75C9.95833 7.875 10.375 8.58333 12.0833 8.58333V10.25Z" fill="#00A3C7"/>
<path d="M6.6665 14C6.6665 14.2916 6.70817 14.5416 6.74984 14.8333C7.1665 12.25 9.37484 10.25 12.0832 10.25C10.7498 10.25 9.87484 9.87497 9.24984 9.37497C7.70817 10.3333 6.6665 12.0416 6.6665 14ZM14.9165 9.37497C14.2915 9.87497 13.4165 10.25 12.0832 10.25C14.7915 10.25 17.0415 12.25 17.4165 14.8333C17.4582 14.5416 17.4998 14.2916 17.4998 14C17.4998 12.0416 16.4582 10.3333 14.9165 9.37497Z" fill="#005967"/>
</svg>
