<svg width="24" height="24" viewBox="0 0 24 24" fill="none" xmlns="http://www.w3.org/2000/svg">
<path d="M19.483 9.192C18.345 6.161 15.429 4 12 4C7.888 4 4.504 7.104 4.055 11.095C1.746 11.538 0 13.562 0 16C0 18.761 2.239 21 5 21H18C21.314 21 24 18.314 24 15C24 12.199 22.078 9.854 19.483 9.192Z" fill="#7689A5"/>
<path fill-rule="evenodd" clip-rule="evenodd" d="M14.55 11.7174C14.3055 11.7174 6.69447 11.7174 6.45 11.7174C5.9256 11.7174 5.5 12.18 5.5 12.75C5.5 13.32 5.9256 13.7826 6.45 13.7826C6.69447 13.7826 14.3055 13.7826 14.55 13.7826C15.0744 13.7826 15.5 13.32 15.5 12.75C15.5 12.18 15.0744 11.7174 14.55 11.7174Z" fill="#4E617D"/>
<path fill-rule="evenodd" clip-rule="evenodd" d="M19.6022 8C19.3152 8 9.4022 8 9.11522 8C8.49962 8 8 8.46261 8 9.03261C8 9.60261 8.49962 10.0652 9.11522 10.0652C9.4022 10.0652 19.3152 10.0652 19.6022 10.0652C20.2178 10.0652 20.7174 9.60261 20.7174 9.03261C20.7174 8.46261 20.2178 8 19.6022 8Z" fill="#4E617D"/>
<path fill-rule="evenodd" clip-rule="evenodd" d="M11.037 15.4348C10.75 15.4348 2.4022 15.4348 2.11522 15.4348C1.49962 15.4348 1 15.8974 1 16.4674C1 17.0374 1.49962 17.5 2.11522 17.5C2.4022 17.5 10.75 17.5 11.037 17.5C11.6526 17.5 12.1522 17.0374 12.1522 16.4674C12.1522 15.8974 11.6526 15.4348 11.037 15.4348Z" fill="#4E617D"/>
</svg>
