<svg width="48" height="48" viewBox="0 0 48 48" fill="none" xmlns="http://www.w3.org/2000/svg">
<path fill-rule="evenodd" clip-rule="evenodd" d="M17.938 20.2462H14.9961C14.446 20.2462 14 20.6944 14 21.2473V26.2528C14 26.8057 14.446 27.2539 14.9961 27.2539H17.9381L23.5495 32.2465C24.1923 32.8185 25.2058 32.3598 25.2058 31.4969V16.0031C25.2058 15.1402 24.1923 14.6815 23.5495 15.2535L17.938 20.2462Z" fill="black"/>
<path fill-rule="evenodd" clip-rule="evenodd" d="M27.2114 19.0683C27.5836 18.6612 28.2137 18.6344 28.6188 19.0085C29.8914 20.1839 30.6913 21.8738 30.6913 23.7501C30.6913 25.6263 29.8914 27.3162 28.6188 28.4916C28.2137 28.8657 27.5836 28.8389 27.2114 28.4318C26.8391 28.0247 26.8658 27.3914 27.2708 27.0173C28.1502 26.2052 28.6991 25.0428 28.6991 23.7501C28.6991 22.4573 28.1502 21.2949 27.2708 20.4828C26.8658 20.1087 26.8391 19.4754 27.2114 19.0683Z" fill="black"/>
<path fill-rule="evenodd" clip-rule="evenodd" d="M29.7124 17.0545C30.091 16.6534 30.7215 16.6367 31.1206 17.0172C32.8927 18.7068 33.9999 21.0993 33.9999 23.75C33.9999 26.4008 32.8927 28.7933 31.1206 30.4829C30.7215 30.8634 30.091 30.8467 29.7124 30.4456C29.3338 30.0445 29.3504 29.4109 29.7495 29.0303C31.1417 27.703 32.0078 25.829 32.0078 23.75C32.0078 21.6711 31.1417 19.7971 29.7495 18.4698C29.3504 18.0892 29.3338 17.4556 29.7124 17.0545Z" fill="black"/>
</svg>
