<svg width="24" height="24" viewBox="0 0 24 24" fill="none" xmlns="http://www.w3.org/2000/svg">
<path d="M13.3333 19H11.6667V18.1667C11.6667 18.0833 11.6667 18 11.6667 17.9167C11.625 16.9167 11.4583 13.9167 10.875 11.0417C10.2083 7.66667 9.16667 5.66667 8.08333 5.66667C6.70833 5.66667 6.66667 7.16667 6.66667 7.33333H5C5 6 5.83333 4 8.08333 4C10.1667 4 11.5833 6.16667 12.5 10.625C13.4167 6.16667 14.875 4 16.9583 4C19.1667 4 20 6 20 7.33333H18.3333C18.3333 7.04167 18.25 5.66667 16.9583 5.66667C15.875 5.66667 14.8333 7.66667 14.125 11.0417C13.5417 13.9167 13.375 16.9167 13.3333 17.9167C13.3333 18 13.3333 18.0833 13.3333 18.1667V19Z" fill="#00A3C7"/>
<path d="M12.5 10.6251C12.5 10.6667 12.5 10.7084 12.5417 10.7501C13.1667 13.7917 13.3333 16.9167 13.3333 17.9584C13.3333 17.8334 13.3333 17.6251 13.375 17.4167C13.375 17.4167 13.375 17.4167 13.375 17.3751C13.375 17.2501 13.375 17.1667 13.375 17.0417C13.375 17.0417 13.375 17.0417 13.375 17.0001C13.4167 16.3334 13.5 15.4167 13.5833 14.4167C13.5833 12.9167 13.6667 9.54172 13.5 7.16672C13.125 8.08338 12.7917 9.25005 12.5 10.6251Z" fill="#005967"/>
</svg>
