<svg width="16" height="16" viewBox="0 0 16 16" fill="none" xmlns="http://www.w3.org/2000/svg">
<path fill-rule="evenodd" clip-rule="evenodd" d="M3.00016 8.16667C3.00016 5.49729 5.16412 3.33333 7.8335 3.33333C8.29373 3.33333 8.66683 2.96024 8.66683 2.5C8.66683 2.03976 8.29373 1.66667 7.8335 1.66667C4.24365 1.66667 1.3335 4.57682 1.3335 8.16667C1.3335 11.7565 4.24365 14.6667 7.8335 14.6667C11.4233 14.6667 14.3335 11.7565 14.3335 8.16667C14.3335 6.48072 13.6905 4.94302 12.6378 3.78845C12.6338 3.78397 12.6296 3.77954 12.6255 3.77517L12.8553 3.57114C13.3266 3.15262 13.048 2.37316 12.4181 2.34826L10.7803 2.28349C10.394 2.26822 10.0684 2.56899 10.0532 2.95529L9.9909 4.52967C9.96653 5.14618 10.6938 5.49042 11.1551 5.08076L11.38 4.88113C11.3884 4.89136 11.3972 4.90145 11.4062 4.91137C12.19 5.77097 12.6668 6.91217 12.6668 8.16667C12.6668 10.836 10.5029 13 7.8335 13C5.16412 13 3.00016 10.836 3.00016 8.16667Z" fill="black"/>
<path fill-rule="evenodd" clip-rule="evenodd" d="M10.4033 6.55872C10.739 6.8735 10.7561 7.40086 10.4413 7.73662L7.94128 10.4033C7.78374 10.5713 7.56368 10.6667 7.33334 10.6667C7.103 10.6667 6.88293 10.5713 6.72539 10.4033L5.22539 8.80329C4.91061 8.46753 4.92762 7.94016 5.26339 7.62539C5.59915 7.31061 6.12651 7.32762 6.44128 7.66338L7.33334 8.61491L9.22539 6.59672C9.54016 6.26096 10.0675 6.24395 10.4033 6.55872Z" fill="black"/>
</svg>
