<svg width="24" height="24" viewBox="0 0 24 24" fill="none" xmlns="http://www.w3.org/2000/svg">
<path fill-rule="evenodd" clip-rule="evenodd" d="M12.7786 1.61919C12.483 1.46027 12.1273 1.46027 11.8317 1.61919L3.24675 6.23387C2.33134 6.72594 2.68093 8.11468 3.72022 8.11468H4.80515V19.6079C4.16573 20.3553 3.24908 20.8525 2.19304 20.9413C2.12647 20.9495 2.05989 20.9577 2 20.9471C2.90883 21.8848 3.48694 22.1624 4.80515 22.3647H6.80515H9.79014H12.8052C16.6711 22.3647 19.8052 19.2307 19.8052 15.3647V8.11468H20.8901C21.9294 8.11468 22.279 6.72594 21.3636 6.23387L12.7786 1.61919ZM10.8052 9.36458C11.3575 9.36458 11.8052 9.88692 11.8052 10.5312V15.5312C11.8052 16.1756 11.3575 16.6979 10.8052 16.6979C10.2529 16.6979 9.80518 16.1756 9.80518 15.5312V10.5312C9.80518 9.88692 10.2529 9.36458 10.8052 9.36458ZM7.80518 11.3645C8.35746 11.3645 8.80518 11.8868 8.80518 12.5312V13.6978C8.80518 14.3422 8.35746 14.8645 7.80518 14.8645C7.25289 14.8645 6.80518 14.3422 6.80518 13.6978L6.80518 12.5312C6.80518 11.8868 7.25289 11.3645 7.80518 11.3645ZM16.8052 10.3646C17.3575 10.3646 17.8052 10.8869 17.8052 11.5312L17.8052 14.8646C17.8052 15.5089 17.3575 16.0312 16.8052 16.0312C16.2529 16.0312 15.8052 15.5089 15.8052 14.8646L15.8052 11.5312C15.8052 10.8869 16.2529 10.3646 16.8052 10.3646ZM13.8052 7.36458C14.3575 7.36458 14.8052 7.88692 14.8052 8.53125L14.8052 17.5315C14.8052 18.1758 14.3575 18.6982 13.8052 18.6982C13.2529 18.6982 12.8052 18.1758 12.8052 17.5315L12.8052 8.53125C12.8052 7.88692 13.2529 7.36458 13.8052 7.36458Z" fill="black"/>
</svg>
