<svg width="24" height="24" viewBox="0 0 24 24" fill="none" xmlns="http://www.w3.org/2000/svg">
<path fill-rule="evenodd" clip-rule="evenodd" d="M10.6906 8.16255C11.1212 5.80564 13.1608 4 15.6332 4C16.5336 4 17.4246 4.2476 18.1991 4.71799C18.713 5.03008 19.1719 5.43491 19.5475 5.90447L21.3847 5L21.1787 7.14286L22.5386 7.88462L20.6464 9.11864C20.6491 9.19179 20.6511 9.26365 20.6527 9.33393L20.6529 9.34296C20.675 10.9402 20.3432 12.5442 19.7278 13.9956C19.1475 15.3614 18.3106 16.5991 17.2762 17.6426C16.2387 18.6893 15.0035 19.5259 13.6574 20.1013L13.6552 20.1023C12.2637 20.6932 10.7618 21 9.25126 21C6.85283 21 4.71273 20.1235 2.93389 18.9015C2.53615 18.6283 2.39025 18.11 2.58703 17.6695C2.78382 17.2289 3.26715 16.9917 3.73606 17.1055C4.48223 17.2867 5.54047 17.0537 6.51047 16.6528C6.58287 16.6229 6.65338 16.5926 6.72176 16.5622C5.38613 15.5419 4.47477 14.4577 3.89353 13.3536C3.13932 11.921 2.97469 10.5185 3.09278 9.29802C3.20981 8.08841 3.60297 7.06418 3.95849 6.35006C4.13741 5.9907 4.3102 5.70303 4.44092 5.50166C4.50641 5.40079 4.5617 5.32102 4.6024 5.26416C4.62277 5.23571 4.63952 5.21295 4.65212 5.1961L4.66784 5.17526L4.67325 5.1682L4.67532 5.16552L4.67619 5.16439C4.67619 5.16439 4.67695 5.16341 5.46609 5.77706L4.67695 5.16341C4.92384 4.84592 5.3369 4.70723 5.72535 4.81139C6.11381 4.91555 6.40207 5.24229 6.457 5.64071C6.56769 6.44365 6.90102 6.94941 7.31292 7.29583C7.74684 7.66075 8.32323 7.89283 8.95715 8.02504C9.58352 8.15568 10.2097 8.17703 10.6906 8.16255ZM11.5632 9.18392L11.5632 9.1839L11.5486 9.09091C11.5537 9.12294 11.5585 9.15393 11.5632 9.18392Z" fill="black"/>
</svg>
