<svg width="24" height="24" viewBox="0 0 24 24" fill="none" xmlns="http://www.w3.org/2000/svg">
<path fill-rule="evenodd" clip-rule="evenodd" d="M22 12C22 17.5228 17.5228 22 12 22C10.2845 22 8.66985 21.568 7.25896 20.8069L7.23 20.82C6.78 21.03 6.3 21.17 5.83 21.26C4.52 21.51 3.17 21.32 2 20.74C2.06 20.73 2.12 20.7 2.18 20.67C3.21488 20.2021 3.94203 19.3454 4.26671 18.3405C2.85023 16.6149 2 14.4067 2 12C2 6.47715 6.47715 2 12 2C17.5228 2 22 6.47715 22 12ZM12 19.5C16.1421 19.5 19.5 16.1421 19.5 12C19.5 7.85786 16.1421 4.5 12 4.5C7.85786 4.5 4.5 7.85786 4.5 12C4.5 16.1421 7.85786 19.5 12 19.5Z" fill="black"/>
<path fill-rule="evenodd" clip-rule="evenodd" d="M12 6.55566C11.4477 6.55566 11 7.00338 11 7.55566V11.4339L8.70773 12.8093C8.23415 13.0934 8.08058 13.7077 8.36473 14.1813C8.64888 14.6549 9.26314 14.8084 9.73672 14.5243L12.5145 12.8576C12.8157 12.6769 13 12.3514 13 12.0001V7.55566C13 7.00338 12.5523 6.55566 12 6.55566Z" fill="black"/>
</svg>
