<svg width="17" height="17" viewBox="0 0 17 17" fill="none" xmlns="http://www.w3.org/2000/svg">
<path fill-rule="evenodd" clip-rule="evenodd" d="M10.726 2.30833C10.8123 1.98628 10.6623 1.64764 10.3658 1.49512C10.0693 1.3426 9.70661 1.4175 9.49479 1.67498L6.86946 4.86612L11.6242 9.62088L12.7265 8.28105C12.8795 8.09507 12.9275 7.84409 12.854 7.61476C12.7804 7.38543 12.5954 7.20917 12.3628 7.14684L9.62601 6.41352L10.726 2.30833ZM12.5141 11.7932C12.5174 11.9787 12.4483 12.1653 12.3067 12.3068C12.0301 12.5834 11.5816 12.5834 11.305 12.3068L10.2678 11.2696L10.2678 11.2696L5.51302 6.51489L5.51305 6.51485L4.04243 5.04423C3.90466 4.90647 3.83551 4.72608 3.83496 4.54552C3.83443 4.36354 3.90358 4.1814 4.04243 4.04256C4.31905 3.76594 4.76754 3.76594 5.04416 4.04256L12.3067 11.3051C12.4418 11.4402 12.5109 11.6162 12.5141 11.7932ZM5.06088 7.06448L9.81564 11.8192L7.28886 14.8906C7.07703 15.1481 6.71432 15.2229 6.41783 15.0704C6.12135 14.9179 5.97136 14.5793 6.05765 14.2572L7.15764 10.152L4.42085 9.41872C4.18822 9.35639 4.0032 9.18013 3.92967 8.9508C3.85613 8.72147 3.90416 8.47048 4.05717 8.2845L5.06088 7.06448Z" fill="black"/>
</svg>
