<svg width="48" height="48" viewBox="0 0 48 48" fill="none" xmlns="http://www.w3.org/2000/svg">
<path d="M24.0099 30.576H23.9899C21.7579 30.576 20.0339 28.558 20.4159 26.358C21.5819 19.648 26.8039 19.414 26.8039 15.248C26.8039 14.09 26.6039 11.5 23.8159 11.5C22.3079 11.5 21.4219 12.464 20.9079 13.49C20.2119 14.878 18.6059 15.562 17.0759 15.292C14.7559 14.884 13.3319 12.394 14.3159 10.254C15.7239 7.2 18.6039 4 24.3059 4C33.5599 4 34.7999 11.246 34.7999 14.652C34.7999 22.706 28.8019 23.006 27.5599 27.646C27.1119 29.32 25.7419 30.576 24.0099 30.576Z" fill="#BDCFED"/>
<path d="M28.8179 39.112C28.8179 40.486 28.3939 41.644 27.5439 42.588C26.6879 43.528 25.5739 44 24.1999 44C22.8199 44 21.7059 43.528 20.8559 42.588C20.0059 41.644 19.5759 40.486 19.5759 39.112C19.5759 37.77 20.0059 36.612 20.8559 35.63C21.7059 34.654 22.8199 34.166 24.1999 34.166C25.5739 34.166 26.6899 34.654 27.5439 35.63C28.3919 36.612 28.8179 37.768 28.8179 39.112Z" fill="#BDCFED"/>
</svg>
