<svg width="24" height="24" viewBox="0 0 24 24" fill="none" xmlns="http://www.w3.org/2000/svg">
<path fill-rule="evenodd" clip-rule="evenodd" d="M2.63788 11.068C3.15262 10.8678 3.73215 11.1229 3.9323 11.6376C5.14337 14.7524 8.28493 17 12.0003 17C15.7156 17 18.8572 14.7524 20.0682 11.6376C20.2684 11.1229 20.8479 10.8678 21.3627 11.068C21.8774 11.2681 22.1324 11.8476 21.9323 12.3624C20.4181 16.2569 16.5287 19 12.0003 19C7.47183 19 3.58248 16.2569 2.06824 12.3624C1.8681 11.8476 2.12314 11.2681 2.63788 11.068Z" fill="black"/>
<path fill-rule="evenodd" clip-rule="evenodd" d="M21.3164 12.9487C20.7924 13.1233 20.2261 12.8401 20.0515 12.3162C18.8007 8.56309 15.6197 6 12.0002 6C8.38078 6 5.19972 8.56309 3.94892 12.3162C3.7743 12.8401 3.20799 13.1233 2.68404 12.9487C2.16009 12.7741 1.8769 12.2078 2.05152 11.6838C3.52603 7.25948 7.37587 4 12.0002 4C16.6246 4 20.4744 7.25948 21.9489 11.6838C22.1235 12.2078 21.8403 12.7741 21.3164 12.9487Z" fill="black"/>
<path fill-rule="evenodd" clip-rule="evenodd" d="M12.0005 10C11.1721 10 10.5005 10.6716 10.5005 11.5C10.5005 12.3284 11.1721 13 12.0005 13C12.8289 13 13.5005 12.3284 13.5005 11.5C13.5005 10.6716 12.8289 10 12.0005 10ZM8.50049 11.5C8.50049 9.567 10.0675 8 12.0005 8C13.9335 8 15.5005 9.567 15.5005 11.5C15.5005 13.433 13.9335 15 12.0005 15C10.0675 15 8.50049 13.433 8.50049 11.5Z" fill="black"/>
</svg>
