<svg width="16" height="16" viewBox="0 0 16 16" fill="none" xmlns="http://www.w3.org/2000/svg">
<path fill-rule="evenodd" clip-rule="evenodd" d="M14.6303 4.96584L13.2908 4.50752C12.4479 4.21898 11.7865 3.53761 11.5064 2.66919L11.086 1.31437C11.0135 1.08702 10.8074 0.93335 10.5751 0.93335C10.3428 0.93335 10.1368 1.08702 10.0643 1.31437L9.61939 2.69438C9.33932 3.56279 8.67795 4.24416 7.83501 4.5327L6.48084 4.96584C6.26016 5.04057 6.111 5.25283 6.111 5.49216C6.111 5.73147 6.26016 5.94374 6.48084 6.01847L7.82035 6.47679C8.67331 6.7654 9.34157 7.45573 9.61939 8.33526L10.0643 9.71526C10.1368 9.94262 10.3428 10.0963 10.5751 10.0963C10.8074 10.0963 11.0135 9.94262 11.086 9.71526L11.5309 8.33526C11.8007 7.46479 12.4528 6.77615 13.2908 6.47679L14.6303 6.01847C14.851 5.94374 15.0002 5.73147 15.0002 5.49216C15.0002 5.25283 14.851 5.04057 14.6303 4.96584ZM2.28635 5.42921L2.53568 6.1998C2.57831 6.3249 2.69297 6.40863 2.82167 6.40863C2.95036 6.40863 3.06503 6.3249 3.10765 6.1998L3.35698 5.42921C3.51465 4.95606 3.87545 4.58435 4.33472 4.42191L5.08269 4.16505C5.20412 4.12114 5.28539 4.003 5.28539 3.87042C5.28539 3.73783 5.20412 3.6197 5.08269 3.57578L4.34938 3.29877C3.89051 3.13568 3.52995 2.76422 3.37164 2.29147L3.10277 1.50074C3.06014 1.37564 2.94547 1.29191 2.81678 1.29191C2.68808 1.29191 2.57342 1.37564 2.53079 1.50074L2.28635 2.27133C2.12869 2.74448 1.76788 3.11619 1.30861 3.27863L0.536198 3.55564C0.414768 3.59955 0.333496 3.71768 0.333496 3.85027C0.333496 3.98286 0.414768 4.10099 0.536198 4.14491L1.30861 4.40177C1.77223 4.5684 2.13382 4.94838 2.28635 5.42921ZM8.42168 10.778L7.30705 10.3952C6.61734 10.1529 6.07565 9.59483 5.84044 8.88426L5.4689 7.73594C5.40646 7.54886 5.23561 7.42326 5.04358 7.42326C4.85156 7.42326 4.68071 7.54886 4.61827 7.73594L4.24184 8.86412C4.00663 9.57468 3.46494 10.1327 2.77523 10.3751L1.6606 10.7578C1.47901 10.8222 1.3571 10.9982 1.3571 11.196C1.3571 11.3939 1.47901 11.5699 1.6606 11.6342L2.73123 12.017C3.42094 12.2593 3.96263 12.8174 4.19784 13.5279L4.56938 14.6762C4.63182 14.8633 4.80267 14.9889 4.9947 14.9889C5.18672 14.9889 5.35757 14.8633 5.42001 14.6762L5.79156 13.5279C6.02677 12.8174 6.56845 12.2593 7.25817 12.017L8.37279 11.6342C8.55438 11.5699 8.6763 11.3939 8.6763 11.196C8.6763 10.9982 8.55438 10.8222 8.37279 10.7578L8.42168 10.778Z" fill="black"/>
</svg>
