<svg width="16" height="16" viewBox="0 0 16 16" fill="none" xmlns="http://www.w3.org/2000/svg">
<path d="M8 0C3.65524 0 0 2.91234 0 6.66667C0 7.94813 0.477637 9.12484 1.21745 10.1302C0.982372 11.4164 1.95164 12.6667 3.28906 12.6667H3.9987V13.7344C3.9987 14.636 4.61029 15.4269 5.47396 15.6654C5.47439 15.6654 5.47483 15.6654 5.47526 15.6654C6.09903 15.8374 6.96066 16 8 16C9.03934 16 9.90139 15.8375 10.5247 15.6654C11.3884 15.4269 12 14.636 12 13.7344V12.6667H12.7109C14.0482 12.6667 15.0175 11.4173 14.7826 10.1315C15.5228 9.12596 16 7.94852 16 6.66667C16 2.91234 12.3448 0 8 0ZM8 1.33333C11.7552 1.33333 14.6667 3.793 14.6667 6.66667C14.6667 7.73441 14.277 8.72555 13.5833 9.57422C13.5158 9.65686 13.469 9.75451 13.4471 9.85896C13.4251 9.96342 13.4285 10.0716 13.457 10.1745L13.4909 10.2969C13.4913 10.2977 13.4918 10.2986 13.4922 10.2995C13.6441 10.8346 13.2675 11.3333 12.7109 11.3333H11.349C11.2632 11.3336 11.1783 11.3504 11.099 11.3828C11.0853 11.388 11.0719 11.3937 11.0586 11.3997C11.056 11.401 11.0534 11.4023 11.0508 11.4036C10.9361 11.4573 10.8391 11.5425 10.7711 11.6493C10.7031 11.756 10.6669 11.8799 10.6667 12.0065V13.7344C10.6667 14.0421 10.4709 14.2973 10.1706 14.3802C10.1701 14.3802 10.1697 14.3802 10.1693 14.3802C9.64332 14.5254 8.90066 14.6667 8 14.6667C7.09934 14.6667 6.3563 14.5255 5.82943 14.3802C5.5291 14.2973 5.33203 14.0421 5.33203 13.7344V12.0065C5.33204 11.8827 5.29757 11.7613 5.23249 11.656C5.1674 11.5507 5.07428 11.4655 4.96354 11.4102C4.91846 11.3876 4.88945 11.3783 4.88411 11.3763C4.8092 11.348 4.72981 11.3335 4.64974 11.3333H3.28906C2.7335 11.3333 2.35627 10.8346 2.50781 10.2995L2.54167 10.1784C2.57104 10.0751 2.57502 9.96617 2.55325 9.86097C2.53149 9.75578 2.48463 9.65741 2.41667 9.57422C1.72301 8.72555 1.33333 7.73441 1.33333 6.66667C1.33333 3.793 4.24476 1.33333 8 1.33333ZM5.33333 8C4.22867 8 3.33333 8.78133 3.33333 9.33333C3.33333 9.88533 4.22867 10 5.33333 10C6.438 10 7.33333 9.88533 7.33333 9.33333C7.33333 8.78133 6.438 8 5.33333 8ZM10.6667 8C9.562 8 8.66667 8.78133 8.66667 9.33333C8.66667 9.88533 9.562 10 10.6667 10C11.7713 10 12.6667 9.88533 12.6667 9.33333C12.6667 8.78133 11.7713 8 10.6667 8ZM8 10C8 10 7.33333 10.9653 7.33333 11.3333C7.33333 11.7013 7.632 12 8 12C8.368 12 8.66667 11.7013 8.66667 11.3333C8.66667 10.9653 8 10 8 10ZM9.66406 11.9805C9.52071 11.9869 9.38326 12.0394 9.27214 12.1302C8.95565 12.363 8.37829 12.6667 8 12.6667C7.62171 12.6667 7.04435 12.363 6.72786 12.1302C6.60294 12.0351 6.44847 11.9872 6.29167 11.9948C6.15357 12.002 6.02112 12.052 5.91268 12.1378C5.80423 12.2236 5.72515 12.341 5.68639 12.4737C5.64762 12.6065 5.65109 12.748 5.69632 12.8787C5.74154 13.0093 5.82628 13.1227 5.9388 13.2031C6.35831 13.5117 7.07962 14 8 14C8.92038 14 9.64169 13.5117 10.0612 13.2031C10.183 13.1228 10.2752 13.0047 10.3234 12.8669C10.3716 12.7291 10.3734 12.5794 10.3283 12.4406C10.2832 12.3017 10.1938 12.1815 10.0738 12.0984C9.95381 12.0153 9.80987 11.9739 9.66406 11.9805Z" fill="black"/>
</svg>
