<svg width="48" height="48" viewBox="0 0 48 48" fill="none" xmlns="http://www.w3.org/2000/svg">
<path d="M9.99992 14.5651C8.10792 16.4551 5.65192 17.4091 3.17592 17.4571C1.77992 17.4831 0.951917 18.9951 1.72192 20.1591C2.54592 21.4051 3.68992 22.5031 5.20392 23.3311C8.47392 25.1191 12.5999 24.9531 15.6559 22.8191C20.9279 19.1371 21.3979 11.8251 17.0679 7.49515C16.6139 7.04115 16.1279 6.64715 15.6159 6.30515C14.4419 5.52315 12.9159 6.33115 12.8899 7.74115C12.8459 10.2151 11.8919 12.6711 9.99992 14.5651Z" fill="#F0B902"/>
<path d="M38.966 18.9392C36.69 12.8772 30.858 8.55518 24 8.55518C15.776 8.55518 9.008 14.7632 8.11 22.7452C3.492 23.6312 0 27.6792 0 32.5552C0 38.0772 4.478 42.5552 10 42.5552H36C42.628 42.5552 48 37.1832 48 30.5552C48 24.9532 44.156 20.2632 38.966 18.9392Z" fill="#BDCFED"/>
</svg>
