<svg width="16" height="16" viewBox="0 0 16 16" fill="none" xmlns="http://www.w3.org/2000/svg">
<path fill-rule="evenodd" clip-rule="evenodd" d="M3.99984 6.66668C3.26346 6.66668 2.6665 7.26363 2.6665 8.00001C2.6665 8.73639 3.26346 9.33334 3.99984 9.33334C4.73622 9.33334 5.33317 8.73639 5.33317 8.00001C5.33317 7.26363 4.73622 6.66668 3.99984 6.66668ZM7.99976 6.66666C7.26338 6.66666 6.66642 7.26361 6.66642 7.99999C6.66642 8.73637 7.26338 9.33332 7.99976 9.33332C8.73614 9.33332 9.33309 8.73637 9.33309 7.99999C9.33309 7.26361 8.73614 6.66666 7.99976 6.66666ZM11.9998 6.66666C11.2634 6.66666 10.6664 7.26361 10.6664 7.99999C10.6664 8.73637 11.2634 9.33332 11.9998 9.33332C12.7361 9.33332 13.3331 8.73637 13.3331 7.99999C13.3331 7.26361 12.7361 6.66666 11.9998 6.66666Z" fill="black"/>
</svg>
