<svg width="24" height="24" viewBox="0 0 24 24" fill="none" xmlns="http://www.w3.org/2000/svg">
<path fill-rule="evenodd" clip-rule="evenodd" d="M4 3C3.44772 3 3 3.44772 3 4V21H20C20.5523 21 21 20.5523 21 20C21 19.4477 20.5523 19 20 19H5V4C5 3.44772 4.55228 3 4 3Z" fill="black"/>
<path fill-rule="evenodd" clip-rule="evenodd" d="M20.0239 7.0239C19.6353 6.63201 19.0026 6.6292 18.6104 7.01761L14.9883 10.6055L11.9941 7.74219L7.01891 12.586C6.62333 12.9711 6.61472 13.6039 6.99968 13.9997C7.38489 14.3957 8.01824 14.4043 8.41405 14.0189L12.0059 10.5215L15.0117 13.3945L20.0175 8.43839C20.4101 8.04967 20.413 7.41619 20.0239 7.0239Z" fill="black"/>
</svg>
