<svg width="24" height="24" viewBox="0 0 24 24" fill="none" xmlns="http://www.w3.org/2000/svg">
<path d="M8.29167 14.8334H6.625V8.1667C6.625 6.45836 5 5.58336 5 5.58336L5.79167 4.12503C5.875 4.1667 8.29167 5.45836 8.29167 8.1667V14.8334Z" fill="#00A3C7"/>
<path d="M9.95833 19.8333V18.1667C11.9583 18.1667 12.75 17.2917 13.3333 16.1667C12.75 15.2083 12.4583 13.9167 12.4583 12.3333V7.75C12.4583 5.875 11 5.66667 10.375 5.66667C8.41667 5.66667 8.29167 7.41667 8.29167 7.75H6.625C6.625 6.25 7.625 4 10.375 4C12.625 4 14.125 5.5 14.125 7.75V12.3333C14.125 13.0417 14.1667 13.625 14.2917 14.125C14.8333 13.1667 15.5833 12.3333 17.0417 12.3333C18.9583 12.3333 20.375 13.5833 20.375 15.25C20.375 16.9167 18.9583 18.1667 17.0417 18.1667C16.0417 18.1667 15.2083 17.9167 14.5 17.4583C13.75 18.7083 12.5 19.8333 9.95833 19.8333ZM15.25 15.9167C15.9167 16.5 16.6667 16.5 17.0417 16.5C17.875 16.5 18.7083 16.0833 18.7083 15.25C18.7083 14.4167 17.875 14 17.0417 14C16.2083 14 15.875 14.5 15.25 15.9167C15.2917 15.9167 15.25 15.9167 15.25 15.9167Z" fill="#00A3C7"/>
<path d="M16.25 16.4166C15.9167 16.3333 15.5833 16.2083 15.25 15.9166C15.0417 16.375 14.7917 16.9166 14.5 17.4166C14.875 17.6666 15.2917 17.875 15.75 18C16 17.4583 16.125 16.9166 16.25 16.4166ZM13.3333 16.125C13.5 15.8333 13.625 15.5416 13.75 15.2083C13.9167 14.8333 14.0833 14.4583 14.2917 14.0833C14.2083 13.7083 14.125 13.2083 14.125 12.7083C13.4167 13.2083 13 13.875 12.7083 14.5416C12.8333 15.125 13.0417 15.6666 13.3333 16.125ZM5.75 4.08331L5 5.58331C5.04167 5.62498 6.625 6.49998 6.625 8.16665C6.625 7.45831 6.83333 6.20831 7.33333 5.45831C6.66667 4.58331 5.83333 4.12498 5.75 4.08331Z" fill="#005967"/>
</svg>
