<svg width="24" height="24" viewBox="0 0 24 24" fill="none" xmlns="http://www.w3.org/2000/svg">
<path fill-rule="evenodd" clip-rule="evenodd" d="M3 6.5C3 7.44036 3.37085 8.2941 3.97427 8.92296C3.35125 10.1469 3 11.5325 3 13C3 17.9706 7.02944 22 12 22C16.9706 22 21 17.9706 21 13C21 11.5325 20.6487 10.1469 20.0257 8.92296C20.6292 8.2941 21 7.44036 21 6.5C21 4.567 19.433 3 17.5 3C16.3506 3 15.3306 3.55406 14.6925 4.40967C13.8423 4.14347 12.9379 4 12 4C11.0621 4 10.1577 4.14347 9.3075 4.40967C8.66941 3.55406 7.64941 3 6.5 3C4.567 3 3 4.567 3 6.5ZM12 8C12.5523 8 13 8.44772 13 9V12H14.5C15.0523 12 15.5 12.4477 15.5 13C15.5 13.5523 15.0523 14 14.5 14H12C11.4477 14 11 13.5523 11 13V9C11 8.44772 11.4477 8 12 8Z" fill="black"/>
</svg>
