<svg width="24" height="24" viewBox="0 0 24 24" fill="none" xmlns="http://www.w3.org/2000/svg">
<path fill-rule="evenodd" clip-rule="evenodd" d="M13.7083 22.309L21.3083 9.14545C21.8308 8.24045 21.5346 7.08214 20.65 6.57143L12.6084 1.92857C11.7238 1.41786 10.5725 1.74045 10.05 2.64545L2.45002 15.809C1.92752 16.714 2.22377 17.8723 3.10835 18.3831L11.15 23.0259C12.0346 23.5366 13.1858 23.214 13.7083 22.309ZM11.5982 5.96411C12.0765 6.24025 12.6881 6.07637 12.9643 5.59808C13.2404 5.11979 13.0765 4.5082 12.5982 4.23206C12.12 3.95591 11.5084 4.11979 11.2322 4.59808C10.9561 5.07637 11.12 5.68796 11.5982 5.96411ZM16.0624 6.23206C15.5841 5.95591 14.9725 6.11979 14.6963 6.59808C14.4202 7.07637 14.5841 7.68796 15.0624 7.96411L17.6604 9.46411C18.1387 9.74025 18.7503 9.57637 19.0265 9.09808C19.3026 8.61979 19.1387 8.0082 18.6604 7.73206L16.0624 6.23206Z" fill="black"/>
<rect x="8.63379" y="3.09814" width="6" height="2" rx="1" transform="rotate(120 8.63379 3.09814)" fill="black"/>
<rect x="19.8564" y="17.6603" width="6" height="2" rx="1" transform="rotate(120 19.8564 17.6603)" fill="black"/>
</svg>
