<svg width="16" height="16" viewBox="0 0 16 16" fill="none" xmlns="http://www.w3.org/2000/svg">
<path d="M8 0C3.58962 0 0 3.58962 0 8C0 12.4104 3.58962 16 8 16C12.4104 16 16 12.4104 16 8C16 3.58962 12.4104 0 8 0ZM8 1.33333C11.6898 1.33333 14.6667 4.31021 14.6667 8C14.6667 11.6898 11.6898 14.6667 8 14.6667C4.31021 14.6667 1.33333 11.6898 1.33333 8C1.33333 4.31021 4.31021 1.33333 8 1.33333ZM5 6.66667C4.73478 6.66667 4.48043 6.77202 4.29289 6.95956C4.10536 7.1471 4 7.40145 4 7.66667C4 7.93188 4.10536 8.18624 4.29289 8.37377C4.48043 8.56131 4.73478 8.66667 5 8.66667C5.26522 8.66667 5.51957 8.56131 5.70711 8.37377C5.89464 8.18624 6 7.93188 6 7.66667C6 7.40145 5.89464 7.1471 5.70711 6.95956C5.51957 6.77202 5.26522 6.66667 5 6.66667ZM11 6.66667C10.7348 6.66667 10.4804 6.77202 10.2929 6.95956C10.1054 7.1471 10 7.40145 10 7.66667C10 7.93188 10.1054 8.18624 10.2929 8.37377C10.4804 8.56131 10.7348 8.66667 11 8.66667C11.2652 8.66667 11.5196 8.56131 11.7071 8.37377C11.8946 8.18624 12 7.93188 12 7.66667C12 7.40145 11.8946 7.1471 11.7071 6.95956C11.5196 6.77202 11.2652 6.66667 11 6.66667ZM5.375 10.6667C5.28666 10.6654 5.19895 10.6817 5.11697 10.7147C5.03499 10.7476 4.96038 10.7965 4.89747 10.8586C4.83455 10.9206 4.7846 10.9945 4.7505 11.076C4.7164 11.1575 4.69884 11.245 4.69884 11.3333C4.69884 11.4217 4.7164 11.5092 4.7505 11.5907C4.7846 11.6722 4.83455 11.7461 4.89747 11.8081C4.96038 11.8701 5.03499 11.919 5.11697 11.952C5.19895 11.9849 5.28666 12.0012 5.375 12H10.625C10.7133 12.0012 10.8011 11.9849 10.883 11.952C10.965 11.919 11.0396 11.8701 11.1025 11.8081C11.1654 11.7461 11.2154 11.6722 11.2495 11.5907C11.2836 11.5092 11.3012 11.4217 11.3012 11.3333C11.3012 11.245 11.2836 11.1575 11.2495 11.076C11.2154 10.9945 11.1654 10.9206 11.1025 10.8586C11.0396 10.7965 10.965 10.7476 10.883 10.7147C10.8011 10.6817 10.7133 10.6654 10.625 10.6667H5.375Z" fill="black"/>
</svg>
