<svg width="32" height="32" viewBox="0 0 32 32" fill="none" xmlns="http://www.w3.org/2000/svg">
<path d="M6.66677 9.7101C5.40544 10.9701 3.76811 11.6061 2.11744 11.6381C1.18677 11.6554 0.634774 12.6634 1.14811 13.4394C1.69744 14.2701 2.46011 15.0021 3.46944 15.5541C5.64944 16.7461 8.40011 16.6354 10.4374 15.2128C13.9521 12.7581 14.2654 7.88343 11.3788 4.99676C11.0761 4.6941 10.7521 4.43143 10.4108 4.20343C9.62811 3.6821 8.61077 4.22076 8.59344 5.16076C8.56411 6.8101 7.92811 8.44743 6.66677 9.7101Z" fill="#E2B00A"/>
<path d="M25.9773 12.6261C24.46 8.58478 20.572 5.70345 16 5.70345C10.5173 5.70345 6.00533 9.84211 5.40667 15.1634C2.328 15.7541 0 18.4528 0 21.7034C0 25.3848 2.98533 28.3701 6.66667 28.3701H24C28.4187 28.3701 32 24.7888 32 20.3701C32 16.6354 29.4373 13.5088 25.9773 12.6261Z" fill="#F5F9FF"/>
</svg>
