<svg width="16" height="16" viewBox="0 0 16 16" fill="none" xmlns="http://www.w3.org/2000/svg">
<path d="M9.3335 10.3333C8.78016 10.3333 8.3335 9.88667 8.3335 9.33333C8.3335 8.78 8.78016 8.33333 9.3335 8.33333C9.88683 8.33333 10.3335 8.78 10.3335 9.33333C10.3335 9.88667 9.88683 10.3333 9.3335 10.3333Z" fill="black"/>
<path d="M9.3335 14C8.78016 14 8.3335 13.5533 8.3335 13C8.3335 12.4467 8.78016 12 9.3335 12C9.88683 12 10.3335 12.4467 10.3335 13C10.3335 13.5533 9.88683 14 9.3335 14Z" fill="black"/>
<path fill-rule="evenodd" clip-rule="evenodd" d="M7.66667 6.33333V3.66667C7.66667 2.74667 6.92 2 6 2H3.66667C2.74667 2 2 2.74667 2 3.66667V6C2 6.92 2.74667 7.66667 3.66667 7.66667H6.33333C6.7 7.66667 7.03333 7.52 7.28 7.27333C7.49333 7.05333 7.63333 6.76 7.66 6.44C7.66667 6.4 7.66667 6.36667 7.66667 6.33333ZM4.08659 6.25341H5.58659C5.95326 6.25341 6.25325 5.95341 6.25325 5.58008V4.08008C6.25325 3.71341 5.95326 3.41341 5.58659 3.41341H4.08659C3.71992 3.41341 3.41992 3.71341 3.41992 4.08008V5.58675C3.41992 5.95341 3.71992 6.25341 4.08659 6.25341Z" fill="black"/>
<path fill-rule="evenodd" clip-rule="evenodd" d="M3.66667 14H6C6.92 14 7.66667 13.2533 7.66667 12.3333V10C7.66667 9.08 6.92 8.33333 6 8.33333H3.66667C2.74667 8.33333 2 9.08 2 10V12.3333C2 13.2533 2.74667 14 3.66667 14ZM4.08659 12.5862H5.58659C5.95326 12.5862 6.25325 12.2862 6.25325 11.9195V10.4195C6.25325 10.0529 5.95326 9.75287 5.58659 9.75287H4.08659C3.71992 9.75287 3.41992 10.0529 3.41992 10.4195V11.9195C3.41992 12.2862 3.71992 12.5862 4.08659 12.5862Z" fill="black"/>
<path fill-rule="evenodd" clip-rule="evenodd" d="M14.0002 6.33333V3.66667C14.0002 2.74667 13.2535 2 12.3335 2H10.0002C9.08016 2 8.3335 2.74667 8.3335 3.66667V6C8.3335 6.92 9.08016 7.66667 10.0002 7.66667H12.6668C13.0335 7.66667 13.3668 7.52 13.6135 7.27333C13.8268 7.05333 13.9668 6.76 13.9935 6.44C14.0002 6.4 14.0002 6.36667 14.0002 6.33333ZM10.4202 6.25341H11.9202C12.2868 6.25341 12.5868 5.95341 12.5868 5.58008V4.08008C12.5868 3.71341 12.2868 3.41341 11.9202 3.41341H10.4202C10.0535 3.41341 9.7535 3.71341 9.7535 4.08008V5.58675C9.7535 5.95341 10.0535 6.25341 10.4202 6.25341Z" fill="black"/>
<path fill-rule="evenodd" clip-rule="evenodd" d="M11.3335 12H12.0002V13C12.0002 13.5533 12.4469 14 13.0002 14C13.5536 14 14.0002 13.5533 14.0002 13V11.6667V11.5V11H14.0002C14.0002 10.4467 13.5535 10 13.0002 10H11.3335C10.7802 10 10.3335 10.4467 10.3335 11C10.3335 11.5533 10.7802 12 11.3335 12Z" fill="black"/>
</svg>
