<svg width="16" height="17" viewBox="0 0 16 17" fill="none" xmlns="http://www.w3.org/2000/svg">
<path fill-rule="evenodd" clip-rule="evenodd" d="M6.90947 14.8725L1.72402 9.68702C1.20332 9.16632 1.20332 8.32209 1.72402 7.8014L5.76835 3.75707C6.01624 3.50918 6.35177 3.36889 6.70233 3.36657L11.9223 3.332C12.6656 3.32708 13.2694 3.93087 13.2645 4.67413L13.2299 9.89415C13.2276 10.2447 13.0873 10.5802 12.8394 10.8281L8.79509 14.8725C8.27439 15.3932 7.43017 15.3932 6.90947 14.8725ZM9.35483 7.24153C9.61518 7.50188 10.0373 7.50188 10.2976 7.24153C10.558 6.98118 10.558 6.55907 10.2976 6.29872C10.0373 6.03837 9.61518 6.03837 9.35483 6.29872C9.09448 6.55907 9.09448 6.98118 9.35483 7.24153Z" fill="black"/>
</svg>
