<svg width="24" height="24" viewBox="0 0 24 24" fill="none" xmlns="http://www.w3.org/2000/svg">
<path d="M16.2271 15.649C12.7001 14.955 9.86907 12.124 9.17507 8.59697C8.95807 7.49797 8.95007 6.42997 9.11107 5.41997C9.28107 4.35997 8.17107 3.52797 7.22707 4.04097C3.65407 5.98397 1.39707 10.039 2.14207 14.534C2.82707 18.666 6.15807 21.997 10.2891 22.682C14.7841 23.427 18.8401 21.17 20.7831 17.596C21.2961 16.652 20.4651 15.543 19.4041 15.712C18.3941 15.874 17.3261 15.866 16.2271 15.649Z" fill="#E2B00A"/>
<path opacity="0.7" fill-rule="evenodd" clip-rule="evenodd" d="M14.0673 2.435C14.1863 2.17 14.4493 2 14.7393 2C15.0293 2 15.2923 2.17 15.4113 2.435L15.9643 3.67C15.9743 3.693 15.9893 3.714 16.0073 3.732C16.0253 3.75 16.0463 3.764 16.0693 3.775L17.3043 4.328C17.5693 4.447 17.7393 4.71 17.7393 5C17.7393 5.29 17.5693 5.553 17.3043 5.672L16.0693 6.225C16.0463 6.235 16.0253 6.25 16.0073 6.268C15.9893 6.286 15.9753 6.307 15.9643 6.33L15.4103 7.565C15.2913 7.83 15.0283 8 14.7383 8C14.4483 8 14.1853 7.83 14.0663 7.565L13.5133 6.33C13.5033 6.307 13.4883 6.286 13.4703 6.268C13.4523 6.25 13.4313 6.236 13.4083 6.225L12.1733 5.672C11.9083 5.553 11.7383 5.29 11.7383 5C11.7383 4.71 11.9083 4.447 12.1733 4.328L13.4083 3.775C13.4313 3.765 13.4523 3.75 13.4703 3.732C13.4883 3.714 13.5023 3.693 13.5133 3.67L14.0673 2.435Z" fill="#EDE1B2"/>
<path opacity="0.7" fill-rule="evenodd" clip-rule="evenodd" d="M18.552 9.11397C18.631 8.93797 18.807 8.82397 19 8.82397C19.193 8.82397 19.369 8.93797 19.448 9.11397L19.817 9.93797C19.824 9.95297 19.833 9.96697 19.845 9.97897C19.857 9.99097 19.871 10.001 19.886 10.007L20.71 10.376C20.886 10.455 21 10.631 21 10.824C21 11.017 20.886 11.193 20.71 11.272L19.886 11.641C19.871 11.648 19.857 11.657 19.845 11.669C19.833 11.681 19.823 11.695 19.817 11.71L19.448 12.534C19.369 12.71 19.193 12.824 19 12.824C18.807 12.824 18.631 12.71 18.552 12.534L18.183 11.71C18.176 11.695 18.167 11.681 18.155 11.669C18.143 11.657 18.129 11.647 18.114 11.641L17.29 11.272C17.114 11.193 17 11.017 17 10.824C17 10.631 17.114 10.455 17.29 10.376L18.114 10.007C18.129 9.99997 18.143 9.99097 18.155 9.97897C18.167 9.96697 18.177 9.95297 18.183 9.93797L18.552 9.11397Z" fill="#EDE1B2"/>
</svg>
