<svg width="24" height="24" viewBox="0 0 24 24" fill="none" xmlns="http://www.w3.org/2000/svg">
<path d="M12.4583 17.25H10.7917V8.12501C10.7917 7.79168 10.5417 6.00001 9.54167 6.00001C8.29167 6.00001 8.29167 8.08334 8.29167 8.08334H6.625C6.625 6.29168 7.54167 4.33334 9.54167 4.33334C11.6667 4.33334 12.4583 6.66668 12.4583 8.12501V17.25Z" fill="#00A3C7"/>
<path d="M17.8748 20.0833L17.2915 19.5C17.2498 19.4583 17.2082 19.4167 17.1665 19.375C16.5415 18.8333 14.9582 17.3333 14.9582 14.75V8.12501C14.9582 7.79168 14.7082 6.00001 13.7082 6.00001C12.4582 6.00001 12.4582 8.08334 12.4582 8.08334V8.91668H10.7915V8.08334C10.7915 6.29168 11.7082 4.33334 13.7082 4.33334C15.8332 4.33334 16.6248 6.66668 16.6248 8.12501V14.75C16.6248 16.625 17.7498 17.6667 18.2915 18.1667C18.3748 18.25 18.4165 18.2917 18.4582 18.3333L19.0415 18.9167L17.8748 20.0833Z" fill="#00A3C7"/>
<path d="M19.5417 20.1667H15.375V18.5001H17.875V16.0001H19.5417V20.1667ZM8.29167 17.2501H6.625V8.08338C6.625 6.37505 5 5.50005 5 5.50005L5.79167 4.04172C5.875 4.08338 8.29167 5.37505 8.29167 8.08338V17.2501Z" fill="#00A3C7"/>
<path d="M10.7917 8.08333C10.7917 7.125 11.0417 6.125 11.5833 5.375C11.4167 5.125 11.1667 4.91667 10.9167 4.75C10.4583 5.08333 10.125 5.54167 9.875 6.08333C10.625 6.45833 10.7917 7.83333 10.7917 8.08333ZM5.75 4L5 5.5C5.04167 5.54167 6.625 6.41667 6.625 8.08333C6.625 7.375 6.875 6.16667 7.41667 5.45833C6.70833 4.54167 5.83333 4.04167 5.75 4Z" fill="#005967"/>
</svg>
