<svg width="24" height="24" viewBox="0 0 24 24" fill="none" xmlns="http://www.w3.org/2000/svg">
<path fill-rule="evenodd" clip-rule="evenodd" d="M3 6.5C3 7.44036 3.37085 8.2941 3.97427 8.92296C3.35125 10.1469 3 11.5325 3 13C3 17.9706 7.02944 22 12 22C16.9706 22 21 17.9706 21 13C21 11.5325 20.6487 10.1469 20.0257 8.92296C20.6292 8.2941 21 7.44036 21 6.5C21 4.567 19.433 3 17.5 3C16.3506 3 15.3306 3.55406 14.6925 4.40967C13.8423 4.14347 12.9379 4 12 4C11.0621 4 10.1577 4.14347 9.3075 4.40967C8.66941 3.55406 7.64941 3 6.5 3C4.567 3 3 4.567 3 6.5ZM8.50002 10C8.50002 9.44772 8.94773 9 9.50002 9H14.5C14.8958 9 15.2544 9.23347 15.4145 9.59545C15.5747 9.95743 15.5062 10.3798 15.24 10.6727L11.7606 14.5H14.5C15.0523 14.5 15.5 14.9477 15.5 15.5C15.5 16.0523 15.0523 16.5 14.5 16.5H9.50002C9.1042 16.5 8.74563 16.2665 8.58551 15.9046C8.42538 15.5426 8.49382 15.1202 8.76008 14.8273L12.2395 11H9.50002C8.94773 11 8.50002 10.5523 8.50002 10Z" fill="black"/>
</svg>
