<svg width="48" height="48" viewBox="0 0 48 48" fill="none" xmlns="http://www.w3.org/2000/svg">
<path d="M33.4541 30.2979C26.4001 28.9099 20.7381 23.2479 19.3501 16.1939C18.9161 13.9959 18.9001 11.8599 19.2221 9.83994C19.5621 7.71994 17.3421 6.05594 15.4541 7.08194C8.30813 10.9679 3.79413 19.0779 5.28413 28.0679C6.65413 36.3319 13.3161 42.9939 21.5781 44.3639C30.5681 45.8539 38.6801 41.3399 42.5661 34.1919C43.5921 32.3039 41.9301 30.0859 39.8081 30.4239C37.7881 30.7479 35.6521 30.7319 33.4541 30.2979Z" fill="#F0B902"/>
<path opacity="0.7" fill-rule="evenodd" clip-rule="evenodd" d="M29.1341 3.87C29.3721 3.34 29.8981 3 30.4781 3C31.0581 3 31.5841 3.34 31.8221 3.87L32.9281 6.34C32.9481 6.386 32.9781 6.428 33.0141 6.464C33.0501 6.5 33.0921 6.528 33.1381 6.55L35.6081 7.656C36.1381 7.894 36.4781 8.42 36.4781 9C36.4781 9.58 36.1381 10.106 35.6081 10.344L33.1381 11.45C33.0921 11.47 33.0501 11.5 33.0141 11.536C32.9781 11.572 32.9501 11.614 32.9281 11.66L31.8201 14.13C31.5821 14.66 31.0561 15 30.4761 15C29.8961 15 29.3701 14.66 29.1321 14.13L28.0261 11.66C28.0061 11.614 27.9761 11.572 27.9401 11.536C27.9041 11.5 27.8621 11.472 27.8161 11.45L25.3461 10.344C24.8161 10.106 24.4761 9.58 24.4761 9C24.4761 8.42 24.8161 7.894 25.3461 7.656L27.8161 6.55C27.8621 6.53 27.9041 6.5 27.9401 6.464C27.9761 6.428 28.0041 6.386 28.0261 6.34L29.1341 3.87Z" fill="#EDE1B2"/>
<path opacity="0.7" fill-rule="evenodd" clip-rule="evenodd" d="M38.104 17.2279C38.262 16.8759 38.614 16.6479 39 16.6479C39.386 16.6479 39.738 16.8759 39.896 17.2279L40.634 18.8759C40.648 18.9059 40.666 18.9339 40.69 18.9579C40.714 18.9819 40.742 19.0019 40.772 19.0139L42.42 19.7519C42.772 19.9099 43 20.2619 43 20.6479C43 21.0339 42.772 21.3859 42.42 21.5439L40.772 22.2819C40.742 22.2959 40.714 22.3139 40.69 22.3379C40.666 22.3619 40.646 22.3899 40.634 22.4199L39.896 24.0679C39.738 24.4199 39.386 24.6479 39 24.6479C38.614 24.6479 38.262 24.4199 38.104 24.0679L37.366 22.4199C37.352 22.3899 37.334 22.3619 37.31 22.3379C37.286 22.3139 37.258 22.294 37.228 22.2819L35.58 21.5439C35.228 21.3859 35 21.0339 35 20.6479C35 20.2619 35.228 19.9099 35.58 19.7519L37.228 19.0139C37.258 18.9999 37.286 18.9819 37.31 18.9579C37.334 18.9339 37.354 18.9059 37.366 18.8759L38.104 17.2279Z" fill="#EDE1B2"/>
</svg>
