<svg width="24" height="24" viewBox="0 0 24 24" fill="none" xmlns="http://www.w3.org/2000/svg">
<path d="M6.28436 8.75168C6.46978 8.95293 6.73145 9.32251 6.90353 9.56584C7.48686 10.3892 8.0377 11.1667 8.8327 11.1667C9.19478 11.1667 9.53644 11.0038 9.92894 10.7083C9.61686 10.5571 8.88728 9.41084 8.88186 9.41459C8.69686 9.21376 8.43561 8.84501 8.26395 8.60251C8.0802 8.34293 7.89895 8.09126 7.7127 7.86376C7.66853 7.84501 7.6252 7.83334 7.58311 7.83334C7.36645 7.83334 6.83728 8.25043 6.2627 8.76918C6.26936 8.76418 6.2777 8.75626 6.28436 8.75168ZM12.1177 8.75209C12.3027 8.95293 12.5639 9.32168 12.7356 9.56418C13.3198 10.3883 13.871 11.1667 14.6669 11.1667C15.0289 11.1667 15.3702 11.0038 15.7623 10.7083C15.4498 10.5575 14.7206 9.41126 14.7152 9.41501C14.5298 9.21376 14.2681 8.84418 14.096 8.60084C13.9127 8.34209 13.7314 8.09043 13.546 7.86334C13.5019 7.84501 13.4585 7.83334 13.4164 7.83334C13.1994 7.83334 12.6685 8.25209 12.0927 8.77209C12.1002 8.76626 12.1102 8.75751 12.1177 8.75209ZM20.4998 9.50001V9.35876C20.3194 9.15084 20.0877 8.82459 19.9298 8.60168C19.7473 8.34418 19.5677 8.09376 19.3827 7.86751C19.3364 7.84709 19.2919 7.83334 19.2498 7.83334C19.0331 7.83334 18.5039 8.25043 17.9294 8.76918C17.936 8.76418 17.9444 8.75626 17.951 8.75168C18.136 8.95251 18.3977 9.32209 18.5698 9.56501C19.1531 10.3888 19.7039 11.1667 20.4998 11.1667V9.50001ZM6.28436 15.4183C6.46978 15.6196 6.73145 15.9892 6.90353 16.2325C7.48686 17.0558 8.0377 17.8333 8.8327 17.8333C9.19478 17.8333 9.53644 17.6704 9.92894 17.375C9.61686 17.2238 8.88728 16.0775 8.88186 16.0813C8.69686 15.8804 8.43561 15.5117 8.26395 15.2692C8.0802 15.0096 7.89895 14.7579 7.7127 14.5304C7.66853 14.5117 7.6252 14.5 7.58311 14.5C7.36645 14.5 6.83728 14.9171 6.2627 15.4358C6.26936 15.4308 6.2777 15.4229 6.28436 15.4183ZM12.1177 15.4188C12.3027 15.6196 12.5639 15.9883 12.7356 16.2308C13.3198 17.055 13.871 17.8333 14.6669 17.8333C15.0289 17.8333 15.3702 17.6704 15.7623 17.375C15.4498 17.2242 14.7206 16.0779 14.7152 16.0817C14.5298 15.8804 14.2681 15.5108 14.096 15.2675C13.9127 15.0088 13.7314 14.7571 13.546 14.53C13.5019 14.5117 13.4585 14.5 13.4164 14.5C13.1994 14.5 12.6685 14.9188 12.0927 15.4388C12.1002 15.4329 12.1102 15.4242 12.1177 15.4188ZM20.4998 16.1667V16.0254C20.3194 15.8175 20.0877 15.4913 19.9298 15.2683C19.7473 15.0108 19.5677 14.7604 19.3827 14.5342C19.3364 14.5138 19.2919 14.5 19.2498 14.5C19.0331 14.5 18.5039 14.9171 17.9294 15.4358C17.936 15.4308 17.9444 15.4229 17.951 15.4183C18.136 15.6192 18.3977 15.9888 18.5698 16.2317C19.1531 17.0554 19.7039 17.8333 20.4998 17.8333V16.1667Z" fill="#005967"/>
<path d="M20.5 9.5V9.35875C20.3196 9.15083 20.0879 8.82458 19.93 8.60167C19.3467 7.77792 18.7958 7 18 7C17.3321 7 16.7412 7.53583 15.755 8.48333C15.4575 8.76875 14.9987 9.20917 14.7154 9.415C14.53 9.21375 14.2683 8.84417 14.0962 8.60083C13.5125 7.7775 12.9621 7 12.1671 7C11.4996 7 10.9087 7.53542 9.92292 8.48208C9.625 8.76833 9.16583 9.20917 8.88208 9.41458C8.69708 9.21375 8.43583 8.845 8.26417 8.6025C7.68 7.77833 7.12875 7 6.33292 7C5.66583 7 5.07583 7.53542 4.09042 8.48167C3.77375 8.78542 3.27667 9.2625 3 9.44833V9.5V11.1667C3.66792 11.1667 4.25875 10.6308 5.245 9.68333C5.5425 9.39792 6.00125 8.9575 6.28458 8.75167C6.47 8.95292 6.73167 9.3225 6.90375 9.56583C7.48708 10.3892 8.03792 11.1667 8.83292 11.1667C9.50042 11.1667 10.0912 10.6313 11.0771 9.68458C11.375 9.39833 11.8342 8.9575 12.1179 8.75208C12.3029 8.95292 12.5642 9.32167 12.7358 9.56417C13.32 10.3883 13.8712 11.1667 14.6671 11.1667C15.3342 11.1667 15.9242 10.6313 16.9096 9.685C17.2075 9.39875 17.6675 8.9575 17.9512 8.75167C18.1362 8.9525 18.3979 9.32208 18.57 9.565C19.1533 10.3888 19.7042 11.1667 20.5 11.1667V9.5ZM20.5 16.1667V16.0254C20.3196 15.8175 20.0879 15.4913 19.93 15.2683C19.3467 14.4446 18.7958 13.6667 18 13.6667C17.3321 13.6667 16.7412 14.2025 15.755 15.15C15.4575 15.4354 14.9987 15.8758 14.7154 16.0817C14.53 15.8804 14.2683 15.5108 14.0962 15.2675C13.5125 14.4442 12.9621 13.6667 12.1671 13.6667C11.4996 13.6667 10.9087 14.2021 9.92292 15.1488C9.625 15.435 9.16583 15.8758 8.88208 16.0812C8.69708 15.8804 8.43583 15.5117 8.26417 15.2692C7.68 14.445 7.12875 13.6667 6.33292 13.6667C5.66583 13.6667 5.07583 14.2021 4.09042 15.1483C3.77375 15.4521 3.27667 15.9292 3 16.115V16.1667V17.8333C3.66792 17.8333 4.25875 17.2975 5.245 16.35C5.5425 16.0646 6.00125 15.6242 6.28458 15.4183C6.47 15.6196 6.73167 15.9892 6.90375 16.2325C7.48708 17.0558 8.03792 17.8333 8.83292 17.8333C9.50042 17.8333 10.0912 17.2979 11.0771 16.3513C11.375 16.065 11.8342 15.6242 12.1179 15.4188C12.3029 15.6196 12.5642 15.9883 12.7358 16.2308C13.32 17.055 13.8712 17.8333 14.6671 17.8333C15.3342 17.8333 15.9242 17.2979 16.9096 16.3517C17.2075 16.0654 17.6675 15.6242 17.9512 15.4183C18.1362 15.6192 18.3979 15.9887 18.57 16.2317C19.1533 17.0554 19.7042 17.8333 20.5 17.8333V16.1667Z" fill="#00A3C7"/>
</svg>
