<svg width="48" height="48" viewBox="0 0 48 48" fill="none" xmlns="http://www.w3.org/2000/svg">
<circle cx="24" cy="24" r="16" fill="black" fill-opacity="0.7"/>
<path fill-rule="evenodd" clip-rule="evenodd" d="M19.2529 28.8485C18.9879 28.5807 18.9879 28.1466 19.2529 27.8788L27.893 19.1516C28.158 18.8838 28.5879 18.8838 28.853 19.1516C29.118 19.4193 29.118 19.8535 28.853 20.1212L20.2129 28.8485C19.9479 29.1163 19.518 29.1163 19.2529 28.8485Z" fill="white"/>
<path fill-rule="evenodd" clip-rule="evenodd" d="M19.1465 19.1516C19.4116 18.8838 19.8414 18.8838 20.1065 19.1516L28.7465 27.8788C29.0116 28.1466 29.0116 28.5808 28.7465 28.8485C28.4814 29.1163 28.0516 29.1163 27.7865 28.8485L19.1465 20.1213C18.8814 19.8535 18.8814 19.4194 19.1465 19.1516Z" fill="white"/>
</svg>
